M48
; DRILL file KiCad 10.0.3 date 2026-07-17T16:09:43
; FORMAT={-:-/ absolute / metric / decimal}
; #@! TF.CreationDate,2026-07-17T16:09:43+05:30
; #@! TF.GenerationSoftware,Kicad,Pcbnew,10.0.3
; #@! TF.FileFunction,Plated,1,2,PTH
FMAT,2
METRIC
; #@! TA.AperFunction,Plated,PTH,ViaDrill
T1C0.300
; #@! TA.AperFunction,Plated,PTH,ComponentDrill
T2C0.800
; #@! TA.AperFunction,Plated,PTH,ComponentDrill
T3C1.000
; #@! TA.AperFunction,Plated,PTH,ComponentDrill
T4C1.100
; #@! TA.AperFunction,Plated,PTH,ComponentDrill
T5C1.300
; #@! TA.AperFunction,Plated,PTH,ComponentDrill
T6C1.500
%
G90
G05
T1
X83.0Y-52.0
X93.5Y-59.0
X113.25Y-153.25
X144.0Y-57.5
X150.5Y-150.75
X151.5Y-145.5
X153.75Y-147.5
X158.5Y-144.5
X159.0Y-150.0
X160.0Y-59.5
X162.75Y-153.25
X167.0Y-132.0
X178.0Y-68.5
X178.664Y-91.5
X179.5Y-65.0
X183.5Y-148.5
X185.0Y-86.5
X196.5Y-89.0
X205.0Y-62.0
X207.0Y-76.0
T2
X92.17Y-151.5
X92.25Y-147.95
X102.33Y-151.5
X102.41Y-147.95
X121.34Y-51.0
X121.42Y-47.5
X131.5Y-51.0
X131.58Y-47.5
X135.08Y-84.0
X135.42Y-80.5
X135.42Y-116.0
X135.42Y-119.5
X135.5Y-63.5
X135.5Y-67.0
X135.5Y-72.0
X135.5Y-75.5
X135.5Y-92.5
X135.66Y-89.0
X135.76Y-106.5
X135.76Y-110.0
X135.76Y-125.0
X135.76Y-128.5
X135.76Y-134.5
X135.76Y-138.0
X135.92Y-98.0
X135.92Y-101.5
X135.92Y-143.5
X135.92Y-147.0
X145.24Y-84.0
X145.58Y-80.5
X145.58Y-116.0
X145.58Y-119.5
X145.66Y-63.5
X145.66Y-67.0
X145.66Y-72.0
X145.66Y-75.5
X145.66Y-92.5
X145.82Y-89.0
X145.92Y-106.5
X145.92Y-110.0
X145.92Y-125.0
X145.92Y-128.5
X145.92Y-134.5
X145.92Y-138.0
X146.08Y-98.0
X146.08Y-101.5
X146.08Y-143.5
X146.08Y-147.0
X178.664Y-72.5
X178.664Y-82.66
X182.714Y-72.5
X182.714Y-82.66
T3
X78.92Y-140.96
X78.96Y-143.5
X80.5Y-77.5
X80.5Y-96.5
X80.5Y-103.75
X80.5Y-122.75
X81.46Y-140.96
X81.5Y-143.5
X84.0Y-140.96
X84.04Y-143.5
X86.54Y-140.96
X86.58Y-143.5
X89.08Y-140.96
X89.12Y-143.5
X94.5Y-77.5
X94.5Y-96.5
X94.5Y-103.75
X94.5Y-122.75
X100.25Y-77.5
X100.25Y-96.5
X100.5Y-103.75
X100.5Y-122.75
X103.42Y-140.98
X103.42Y-143.5
X104.0Y-59.0
X105.96Y-140.98
X105.96Y-143.5
X108.5Y-140.98
X108.5Y-143.5
X109.0Y-59.0
X111.04Y-140.98
X111.04Y-143.5
X113.58Y-140.98
X113.58Y-143.5
X114.25Y-77.5
X114.25Y-96.5
X114.5Y-103.75
X114.5Y-122.75
X153.174Y-64.74
X153.174Y-67.28
X153.174Y-69.82
X153.174Y-72.36
X153.174Y-74.9
X153.174Y-77.44
X153.174Y-79.98
X153.174Y-82.52
X153.174Y-85.06
X153.174Y-87.6
X155.714Y-64.74
X155.714Y-67.28
X155.714Y-69.82
X155.714Y-72.36
X155.714Y-74.9
X155.714Y-77.44
X155.714Y-79.98
X155.714Y-82.52
X155.714Y-85.06
X155.714Y-87.6
X163.92Y-101.24
X163.92Y-103.78
X163.92Y-106.32
X163.92Y-108.86
X163.92Y-111.4
X163.92Y-113.94
X163.92Y-116.48
X166.46Y-101.24
X166.46Y-103.78
X166.46Y-106.32
X166.46Y-108.86
X166.46Y-111.4
X166.46Y-113.94
X166.46Y-116.48
X169.64Y-127.0
X169.64Y-152.4
X171.714Y-64.76
X171.714Y-67.3
X171.714Y-69.84
X171.714Y-72.38
X171.714Y-74.92
X171.714Y-77.46
X171.714Y-80.0
X171.714Y-82.54
X171.714Y-85.08
X171.714Y-87.62
X172.18Y-127.0
X172.18Y-152.4
X174.72Y-127.0
X174.72Y-152.4
X175.5Y-49.46
X175.5Y-52.0
X175.5Y-54.54
X175.672Y-29.96
X175.672Y-32.5
X175.672Y-35.04
X177.26Y-127.0
X177.26Y-152.4
X179.8Y-127.0
X179.8Y-152.4
X182.34Y-127.0
X182.34Y-152.4
X184.88Y-127.0
X184.88Y-152.4
X186.327Y-49.91
X186.327Y-52.45
X186.327Y-54.99
X186.369Y-29.995
X186.369Y-32.535
X186.369Y-35.075
X187.42Y-127.0
X187.42Y-152.4
X189.96Y-127.0
X189.96Y-152.4
X192.0Y-81.21
X192.0Y-83.75
X192.5Y-127.0
X192.5Y-152.4
X195.04Y-127.0
X195.04Y-152.4
X197.58Y-127.0
X197.58Y-152.4
X200.12Y-127.0
X200.12Y-152.4
X202.66Y-127.0
X202.66Y-152.4
X205.2Y-127.0
X205.2Y-152.4
X214.0Y-81.21
X214.0Y-83.75
T4
X89.92Y-67.5
X95.0Y-67.5
X123.66Y-90.5
X123.92Y-100.0
X124.0Y-63.5
X124.08Y-81.5
X124.16Y-72.5
X124.76Y-126.0
X124.76Y-135.0
X124.92Y-117.5
X124.92Y-143.5
X125.26Y-108.5
X126.2Y-90.5
X126.46Y-100.0
X126.54Y-63.5
X126.62Y-81.5
X126.7Y-72.5
X127.3Y-126.0
X127.3Y-135.0
X127.46Y-117.5
X127.46Y-143.5
X127.8Y-108.5
X128.74Y-90.5
X129.0Y-100.0
X129.08Y-63.5
X129.16Y-81.5
X129.24Y-72.5
X129.84Y-126.0
X129.84Y-135.0
X130.0Y-117.5
X130.0Y-143.5
X130.34Y-108.5
T5
X81.0Y-31.5
X86.08Y-31.5
X93.965Y-31.327
X99.045Y-31.327
X111.0Y-31.375
X116.08Y-31.375
X123.5Y-31.5
X128.58Y-31.5
X151.0Y-49.585
X151.0Y-54.665
X151.172Y-30.085
X151.172Y-35.165
X210.827Y-49.955
X210.827Y-55.035
X210.869Y-29.99
X210.869Y-35.07
T6
X80.27Y-46.25
X101.57Y-46.25
M30
