%TF.GenerationSoftware,KiCad,Pcbnew,9.0.7*%
%TF.CreationDate,2026-03-25T15:08:41+05:30*%
%TF.ProjectId,GPB1,47504231-2e6b-4696-9361-645f70636258,rev?*%
%TF.SameCoordinates,Original*%
%TF.FileFunction,Copper,L2,Bot*%
%TF.FilePolarity,Positive*%
%FSLAX46Y46*%
G04 Gerber Fmt 4.6, Leading zero omitted, Abs format (unit mm)*
G04 Created by KiCad (PCBNEW 9.0.7) date 2026-03-25 15:08:41*
%MOMM*%
%LPD*%
G01*
G04 APERTURE LIST*
G04 Aperture macros list*
%AMRoundRect*
0 Rectangle with rounded corners*
0 $1 Rounding radius*
0 $2 $3 $4 $5 $6 $7 $8 $9 X,Y pos of 4 corners*
0 Add a 4 corners polygon primitive as box body*
4,1,4,$2,$3,$4,$5,$6,$7,$8,$9,$2,$3,0*
0 Add four circle primitives for the rounded corners*
1,1,$1+$1,$2,$3*
1,1,$1+$1,$4,$5*
1,1,$1+$1,$6,$7*
1,1,$1+$1,$8,$9*
0 Add four rect primitives between the rounded corners*
20,1,$1+$1,$2,$3,$4,$5,0*
20,1,$1+$1,$4,$5,$6,$7,0*
20,1,$1+$1,$6,$7,$8,$9,0*
20,1,$1+$1,$8,$9,$2,$3,0*%
G04 Aperture macros list end*
%TA.AperFunction,ComponentPad*%
%ADD10R,1.700000X1.700000*%
%TD*%
%TA.AperFunction,ComponentPad*%
%ADD11C,1.700000*%
%TD*%
%TA.AperFunction,ComponentPad*%
%ADD12RoundRect,0.250000X1.050000X1.050000X-1.050000X1.050000X-1.050000X-1.050000X1.050000X-1.050000X0*%
%TD*%
%TA.AperFunction,ComponentPad*%
%ADD13C,2.600000*%
%TD*%
%TA.AperFunction,ComponentPad*%
%ADD14C,1.600000*%
%TD*%
%TA.AperFunction,ComponentPad*%
%ADD15RoundRect,0.250000X-1.350000X-1.350000X1.350000X-1.350000X1.350000X1.350000X-1.350000X1.350000X0*%
%TD*%
%TA.AperFunction,ComponentPad*%
%ADD16C,3.200000*%
%TD*%
%TA.AperFunction,ComponentPad*%
%ADD17RoundRect,0.250000X-1.050000X1.050000X-1.050000X-1.050000X1.050000X-1.050000X1.050000X1.050000X0*%
%TD*%
%TA.AperFunction,ViaPad*%
%ADD18C,0.600000*%
%TD*%
%TA.AperFunction,Conductor*%
%ADD19C,0.200000*%
%TD*%
%TA.AperFunction,Conductor*%
%ADD20C,1.500000*%
%TD*%
%TA.AperFunction,Conductor*%
%ADD21C,0.800000*%
%TD*%
G04 APERTURE END LIST*
D10*
%TO.P,J19,1,Pin_1*%
%TO.N,unconnected-(J19-Pin_1-Pad1)*%
X111000000Y-92500000D03*
D11*
%TO.P,J19,2,Pin_2*%
%TO.N,TX0*%
X111000000Y-95040000D03*
%TO.P,J19,3,Pin_3*%
%TO.N,RX1*%
X111000000Y-97580000D03*
%TO.P,J19,4,Pin_4*%
%TO.N,CRS*%
X111000000Y-100120000D03*
%TO.P,J19,5,Pin_5*%
%TO.N,MDC*%
X111000000Y-102660000D03*
%TO.P,J19,6,Pin_6*%
%TO.N,unconnected-(J19-Pin_6-Pad6)*%
X111000000Y-105200000D03*
%TO.P,J19,7,Pin_7*%
%TO.N,unconnected-(J19-Pin_7-Pad7)*%
X111000000Y-107740000D03*
%TD*%
D10*
%TO.P,J8,1,Pin_1*%
%TO.N,TX1*%
X114000000Y-92500000D03*
D11*
%TO.P,J8,2,Pin_2*%
%TO.N,TX_EN*%
X114000000Y-95040000D03*
%TO.P,J8,3,Pin_3*%
%TO.N,RXO*%
X114000000Y-97580000D03*
%TO.P,J8,4,Pin_4*%
%TO.N,nINT*%
X114000000Y-100120000D03*
%TO.P,J8,5,Pin_5*%
%TO.N,MDIO*%
X114000000Y-102660000D03*
%TO.P,J8,6,Pin_6*%
%TO.N,GND*%
X114000000Y-105200000D03*
%TO.P,J8,7,Pin_7*%
%TO.N,AMS_O+*%
X114000000Y-107740000D03*
%TD*%
D10*
%TO.P,J7,1,VCC*%
%TO.N,BC1_O+*%
X94500000Y-106080000D03*
D11*
%TO.P,J7,2,IN2*%
%TO.N,IN1*%
X94500000Y-103540000D03*
%TO.P,J7,3,IN1*%
%TO.N,IN2*%
X94500000Y-101000000D03*
%TO.P,J7,4,GND*%
%TO.N,GND*%
X94500000Y-98460000D03*
%TD*%
D10*
%TO.P,J13,1,Pin_1*%
%TO.N,+14.5V*%
X51000000Y-71000000D03*
%TD*%
%TO.P,J2,1,D23*%
%TO.N,MDC*%
X123000000Y-120000000D03*
D11*
%TO.P,J2,2,D22*%
%TO.N,TX1*%
X123000000Y-122540000D03*
%TO.P,J2,3,TXO*%
%TO.N,unconnected-(J2-TXO-Pad3)*%
X123000000Y-125080000D03*
%TO.P,J2,4,RX0*%
%TO.N,unconnected-(J2-RX0-Pad4)*%
X123000000Y-127620000D03*
%TO.P,J2,5,D21*%
%TO.N,TX_EN*%
X123000000Y-130160000D03*
%TO.P,J2,6,D19*%
%TO.N,TX0*%
X123000000Y-132700000D03*
%TO.P,J2,7,D18*%
%TO.N,MDIO*%
X123000000Y-135240000D03*
%TO.P,J2,8,D5*%
%TO.N,unconnected-(J2-D5-Pad8)*%
X123000000Y-137780000D03*
%TO.P,J2,9,TX2*%
%TO.N,nINT*%
X123000000Y-140320000D03*
%TO.P,J2,10,RX2*%
%TO.N,unconnected-(J2-RX2-Pad10)*%
X123000000Y-142860000D03*
%TO.P,J2,11,D4*%
%TO.N,IN2*%
X123000000Y-145400000D03*
%TO.P,J2,12,D2*%
%TO.N,unconnected-(J2-D2-Pad12)*%
X123000000Y-147940000D03*
%TO.P,J2,13,D15*%
%TO.N,unconnected-(J2-D15-Pad13)*%
X123000000Y-150480000D03*
%TO.P,J2,14,GND*%
%TO.N,unconnected-(J2-GND-Pad14)*%
X123000000Y-153020000D03*
%TO.P,J2,15,3V3*%
%TO.N,unconnected-(J2-3V3-Pad15)*%
X123000000Y-155560000D03*
%TD*%
D10*
%TO.P,J10,1,O+*%
%TO.N,AMS_O+*%
X120500000Y-77500000D03*
D11*
%TO.P,J10,2,GND*%
%TO.N,GND*%
X120500000Y-80040000D03*
%TD*%
D12*
%TO.P,J20,1,V+*%
%TO.N,+14.5V*%
X86000000Y-56500000D03*
D13*
%TO.P,J20,2,V-*%
%TO.N,GND*%
X80920000Y-56500000D03*
%TD*%
D12*
%TO.P,J9,1,V+*%
%TO.N,+14.5V*%
X73000000Y-56500000D03*
D13*
%TO.P,J9,2,V-*%
%TO.N,GND*%
X67920000Y-56500000D03*
%TD*%
D14*
%TO.P,R3,1*%
%TO.N,Net-(R2-Pad2)*%
X113150000Y-63000000D03*
%TO.P,R3,2*%
%TO.N,Net-(R3-Pad2)*%
X125850000Y-63000000D03*
%TD*%
D10*
%TO.P,J12,1,Pin_1*%
%TO.N,GND*%
X49000000Y-147000000D03*
%TD*%
D15*
%TO.P,D1,1,K*%
%TO.N,+14.5V*%
X93380000Y-56000000D03*
D16*
%TO.P,D1,2,A*%
X108620000Y-56000000D03*
%TD*%
D10*
%TO.P,J15,1,Pin_1*%
%TO.N,BC1_O+*%
X89000000Y-129500000D03*
%TD*%
%TO.P,J18,1,Pin_1*%
%TO.N,GND*%
X91000000Y-88500000D03*
%TD*%
D14*
%TO.P,R2,1*%
%TO.N,Net-(R1-Pad2)*%
X114420000Y-58560000D03*
%TO.P,R2,2*%
%TO.N,Net-(R2-Pad2)*%
X124580000Y-58560000D03*
%TD*%
D17*
%TO.P,J11,1,V+*%
%TO.N,BC2_O+*%
X55327500Y-57955000D03*
D13*
%TO.P,J11,2,V-*%
%TO.N,GND*%
X55327500Y-63035000D03*
%TD*%
D10*
%TO.P,J17,1,Pin_1*%
%TO.N,BC2_O+*%
X91000000Y-71000000D03*
%TD*%
%TO.P,J5,1,VCC*%
%TO.N,BC1_O+*%
X82000000Y-97475000D03*
D11*
%TO.P,J5,2,OUT*%
%TO.N,ACS_1*%
X82000000Y-100015000D03*
%TO.P,J5,3,GND*%
%TO.N,GND*%
X82000000Y-102555000D03*
%TD*%
D10*
%TO.P,J4,1,Pin_1*%
%TO.N,+14.5V*%
X49000000Y-129500000D03*
%TD*%
D14*
%TO.P,R5,1*%
%TO.N,V.D*%
X114340000Y-71500000D03*
%TO.P,R5,2*%
%TO.N,GND*%
X124500000Y-71500000D03*
%TD*%
%TO.P,R1,1*%
%TO.N,+14.5V*%
X114420000Y-54510000D03*
%TO.P,R1,2*%
%TO.N,Net-(R1-Pad2)*%
X124580000Y-54510000D03*
%TD*%
D10*
%TO.P,J1,1,EN*%
%TO.N,unconnected-(J1-EN-Pad1)*%
X97600000Y-120000000D03*
D11*
%TO.P,J1,2,Vp*%
%TO.N,ACS_1*%
X97600000Y-122540000D03*
%TO.P,J1,3,Vn*%
%TO.N,unconnected-(J1-Vn-Pad3)*%
X97600000Y-125080000D03*
%TO.P,J1,4,D34*%
%TO.N,V.D*%
X97600000Y-127620000D03*
%TO.P,J1,5,D35*%
%TO.N,ACS_2*%
X97600000Y-130160000D03*
%TO.P,J1,6,D32*%
%TO.N,unconnected-(J1-D32-Pad6)*%
X97600000Y-132700000D03*
%TO.P,J1,7,D33*%
%TO.N,unconnected-(J1-D33-Pad7)*%
X97600000Y-135240000D03*
%TO.P,J1,8,D25*%
%TO.N,RXO*%
X97600000Y-137780000D03*
%TO.P,J1,9,D26*%
%TO.N,RX1*%
X97600000Y-140320000D03*
%TO.P,J1,10,D27*%
%TO.N,CRS*%
X97600000Y-142860000D03*
%TO.P,J1,11,D14*%
%TO.N,unconnected-(J1-D14-Pad11)*%
X97600000Y-145400000D03*
%TO.P,J1,12,D12*%
%TO.N,unconnected-(J1-D12-Pad12)*%
X97600000Y-147940000D03*
%TO.P,J1,13,D13*%
%TO.N,IN1*%
X97600000Y-150480000D03*
%TO.P,J1,14,GND*%
%TO.N,GND*%
X97600000Y-153020000D03*
%TO.P,J1,15,VIN*%
%TO.N,BC1_O+*%
X97600000Y-155560000D03*
%TD*%
D14*
%TO.P,R4,1*%
%TO.N,Net-(R3-Pad2)*%
X114260000Y-67500000D03*
%TO.P,R4,2*%
%TO.N,V.D*%
X124420000Y-67500000D03*
%TD*%
D10*
%TO.P,J3,1,I+*%
%TO.N,BC1_O+*%
X99000000Y-77500000D03*
D11*
%TO.P,J3,2,GND*%
%TO.N,GND*%
X99000000Y-80040000D03*
%TD*%
D10*
%TO.P,J16,1,Pin_1*%
%TO.N,GND*%
X89000000Y-147000000D03*
%TD*%
%TO.P,J6,1,VCC*%
%TO.N,BC1_O+*%
X82000000Y-112500000D03*
D11*
%TO.P,J6,2,OUT*%
%TO.N,ACS_2*%
X82000000Y-115040000D03*
%TO.P,J6,3,GND*%
%TO.N,GND*%
X82000000Y-117580000D03*
%TD*%
D10*
%TO.P,J14,1,Pin_1*%
%TO.N,GND*%
X51000000Y-88500000D03*
%TD*%
D18*
%TO.N,TX0*%
X112000000Y-133000000D03*
X116000000Y-133000000D03*
%TO.N,MDC*%
X118500000Y-120000000D03*
X115000000Y-120000000D03*
%TD*%
D19*
%TO.N,ACS_2*%
X90040000Y-115040000D02*
X90500000Y-115500000D01*
X90500000Y-123500000D02*
X91500000Y-124500000D01*
X95500000Y-124500000D02*
X95500000Y-129500000D01*
X96160000Y-130160000D02*
X97600000Y-130160000D01*
X90500000Y-115500000D02*
X90500000Y-123500000D01*
X82000000Y-115040000D02*
X90040000Y-115040000D01*
X95500000Y-129500000D02*
X96160000Y-130160000D01*
X91500000Y-124500000D02*
X95500000Y-124500000D01*
%TO.N,ACS_1*%
X94500000Y-116500000D02*
X95000000Y-117000000D01*
X90000000Y-100000000D02*
X92000000Y-102000000D01*
X95000000Y-117000000D02*
X95000000Y-121500000D01*
X92000000Y-115500000D02*
X93000000Y-116500000D01*
X82015000Y-100000000D02*
X90000000Y-100000000D01*
X95000000Y-121500000D02*
X96040000Y-122540000D01*
X96040000Y-122540000D02*
X97600000Y-122540000D01*
X93000000Y-116500000D02*
X94500000Y-116500000D01*
X92000000Y-102000000D02*
X92000000Y-115500000D01*
X82000000Y-100015000D02*
X82015000Y-100000000D01*
%TO.N,CRS*%
X110500000Y-100420000D02*
X110500000Y-100500000D01*
%TO.N,TX0*%
X116500000Y-133000000D02*
X116800000Y-132700000D01*
X111000000Y-95040000D02*
X108540000Y-95040000D01*
X108500000Y-95080000D02*
X108500000Y-132500000D01*
X108500000Y-132500000D02*
X109000000Y-133000000D01*
X116800000Y-132700000D02*
X123000000Y-132700000D01*
X108540000Y-95040000D02*
X108500000Y-95080000D01*
X109000000Y-133000000D02*
X112000000Y-133000000D01*
X116000000Y-133000000D02*
X116500000Y-133000000D01*
%TO.N,MDC*%
X115000000Y-120000000D02*
X118500000Y-120000000D01*
%TO.N,nINT*%
X114000000Y-100120000D02*
X126120000Y-100120000D01*
X126120000Y-100120000D02*
X126500000Y-100500000D01*
X126500000Y-100500000D02*
X126500000Y-140000000D01*
X126180000Y-140320000D02*
X126500000Y-140000000D01*
X123000000Y-140320000D02*
X126180000Y-140320000D01*
%TO.N,+14.5V*%
X86000000Y-57000000D02*
X86000000Y-56500000D01*
D20*
X72500000Y-70500000D02*
X55000000Y-70500000D01*
X93380000Y-58120000D02*
X93000000Y-58500000D01*
X77000000Y-52500000D02*
X112410000Y-52500000D01*
X87500000Y-58500000D02*
X86000000Y-57000000D01*
X55000000Y-70500000D02*
X55000000Y-125000000D01*
X93000000Y-58500000D02*
X87500000Y-58500000D01*
X93380000Y-56000000D02*
X93380000Y-58120000D01*
X73000000Y-56500000D02*
X77000000Y-52500000D01*
X112410000Y-52500000D02*
X114420000Y-54510000D01*
X50500000Y-129500000D02*
X49000000Y-129500000D01*
X55000000Y-70500000D02*
X51000000Y-70500000D01*
X86000000Y-57000000D02*
X72500000Y-70500000D01*
X55000000Y-125000000D02*
X50500000Y-129500000D01*
D19*
%TO.N,AMS_O+*%
X112523240Y-106263240D02*
X112523240Y-97967760D01*
X112849000Y-97642000D02*
X112849000Y-97103240D01*
X114000000Y-107740000D02*
X112523240Y-106263240D01*
D21*
X117500000Y-78000000D02*
X120000000Y-78000000D01*
X120000000Y-78000000D02*
X120500000Y-77500000D01*
X115585100Y-96500000D02*
X117500000Y-96500000D01*
D19*
X112849000Y-97103240D02*
X113523240Y-96429000D01*
D21*
X117500000Y-96500000D02*
X117500000Y-78000000D01*
D19*
X112523240Y-97967760D02*
X112849000Y-97642000D01*
X113523240Y-96429000D02*
X115514100Y-96429000D01*
X115514100Y-96429000D02*
X115585100Y-96500000D01*
%TD*%
%TA.AperFunction,Conductor*%
%TO.N,GND*%
G36*
X123502478Y-50019685D02*
G01*
X123537023Y-50052890D01*
X126900102Y-54857289D01*
X126977585Y-54967978D01*
X126999903Y-55034187D01*
X127000000Y-55039087D01*
X127000000Y-62011453D01*
X126980315Y-62078492D01*
X126927511Y-62124247D01*
X126858353Y-62134191D01*
X126794797Y-62105166D01*
X126788319Y-62099134D01*
X126697213Y-62008028D01*
X126531613Y-61887715D01*
X126531612Y-61887714D01*
X126531610Y-61887713D01*
X126474653Y-61858691D01*
X126349223Y-61794781D01*
X126154534Y-61731522D01*
X125979995Y-61703878D01*
X125952352Y-61699500D01*
X125747648Y-61699500D01*
X125723329Y-61703351D01*
X125545465Y-61731522D01*
X125350776Y-61794781D01*
X125168386Y-61887715D01*
X125002786Y-62008028D01*
X124858028Y-62152786D01*
X124737715Y-62318386D01*
X124644781Y-62500776D01*
X124581522Y-62695465D01*
X124549500Y-62897648D01*
X124549500Y-63102351D01*
X124581522Y-63304534D01*
X124644781Y-63499223D01*
X124737715Y-63681613D01*
X124858028Y-63847213D01*
X125002786Y-63991971D01*
X125157749Y-64104556D01*
X125168390Y-64112287D01*
X125284607Y-64171503D01*
X125350776Y-64205218D01*
X125350778Y-64205218D01*
X125350781Y-64205220D01*
X125455137Y-64239127D01*
X125545465Y-64268477D01*
X125646557Y-64284488D01*
X125747648Y-64300500D01*
X125747649Y-64300500D01*
X125952351Y-64300500D01*
X125952352Y-64300500D01*
X126154534Y-64268477D01*
X126349219Y-64205220D01*
X126531610Y-64112287D01*
X126624590Y-64044732D01*
X126697213Y-63991971D01*
X126697215Y-63991968D01*
X126697219Y-63991966D01*
X126788319Y-63900866D01*
X126849642Y-63867381D01*
X126919334Y-63872365D01*
X126975267Y-63914237D01*
X126999684Y-63979701D01*
X127000000Y-63988547D01*
X127000000Y-99851403D01*
X126980315Y-99918442D01*
X126927511Y-99964197D01*
X126858353Y-99974141D01*
X126794797Y-99945116D01*
X126788319Y-99939084D01*
X126607590Y-99758355D01*
X126607588Y-99758352D01*
X126488717Y-99639481D01*
X126488716Y-99639480D01*
X126401904Y-99589360D01*
X126401904Y-99589359D01*
X126401900Y-99589358D01*
X126351785Y-99560423D01*
X126199057Y-99519499D01*
X126040943Y-99519499D01*
X126033347Y-99519499D01*
X126033331Y-99519500D01*
X115285719Y-99519500D01*
X115218680Y-99499815D01*
X115175235Y-99451795D01*
X115155052Y-99412185D01*
X115155051Y-99412184D01*
X115030109Y-99240213D01*
X114879786Y-99089890D01*
X114707820Y-98964951D01*
X114707115Y-98964591D01*
X114699054Y-98960485D01*
X114648259Y-98912512D01*
X114631463Y-98844692D01*
X114653999Y-98778556D01*
X114699054Y-98739515D01*
X114707816Y-98735051D01*
X114780082Y-98682547D01*
X114879786Y-98610109D01*
X114879788Y-98610106D01*
X114879792Y-98610104D01*
X115030104Y-98459792D01*
X115030106Y-98459788D01*
X115030109Y-98459786D01*
X115155048Y-98287820D01*
X115155047Y-98287820D01*
X115155051Y-98287816D01*
X115251557Y-98098412D01*
X115317246Y-97896243D01*
X115350500Y-97686287D01*
X115350500Y-97522571D01*
X115370185Y-97455532D01*
X115422989Y-97409777D01*
X115490325Y-97400094D01*
X115490344Y-97399903D01*
X115491125Y-97399979D01*
X115492147Y-97399833D01*
X115495542Y-97400414D01*
X115496407Y-97400500D01*
X115496409Y-97400500D01*
X117588693Y-97400500D01*
X117588694Y-97400499D01*
X117646682Y-97388964D01*
X117762658Y-97365896D01*
X117762661Y-97365894D01*
X117762666Y-97365894D01*
X117926547Y-97298013D01*
X118074035Y-97199464D01*
X118199464Y-97074035D01*
X118298013Y-96926547D01*
X118365894Y-96762666D01*
X118371493Y-96734522D01*
X118393731Y-96622720D01*
X118400500Y-96588691D01*
X118400500Y-79024500D01*
X118420185Y-78957461D01*
X118472989Y-78911706D01*
X118524500Y-78900500D01*
X119662691Y-78900500D01*
X119729730Y-78920185D01*
X119750372Y-78936819D01*
X120370591Y-79557037D01*
X120307007Y-79574075D01*
X120192993Y-79639901D01*
X120099901Y-79732993D01*
X120034075Y-79847007D01*
X120017037Y-79910591D01*
X119384728Y-79278282D01*
X119384727Y-79278282D01*
X119345380Y-79332439D01*
X119248904Y-79521782D01*
X119183242Y-79723869D01*
X119183242Y-79723872D01*
X119150000Y-79933753D01*
X119150000Y-80146246D01*
X119183242Y-80356127D01*
X119183242Y-80356130D01*
X119248904Y-80558217D01*
X119345375Y-80747550D01*
X119384728Y-80801716D01*
X120017037Y-80169408D01*
X120034075Y-80232993D01*
X120099901Y-80347007D01*
X120192993Y-80440099D01*
X120307007Y-80505925D01*
X120370590Y-80522962D01*
X119738282Y-81155269D01*
X119738282Y-81155270D01*
X119792449Y-81194624D01*
X119981782Y-81291095D01*
X120183870Y-81356757D01*
X120393754Y-81390000D01*
X120606246Y-81390000D01*
X120816127Y-81356757D01*
X120816130Y-81356757D01*
X121018217Y-81291095D01*
X121207554Y-81194622D01*
X121261716Y-81155270D01*
X121261717Y-81155270D01*
X120629408Y-80522962D01*
X120692993Y-80505925D01*
X120807007Y-80440099D01*
X120900099Y-80347007D01*
X120965925Y-80232993D01*
X120982962Y-80169409D01*
X121615270Y-80801717D01*
X121615270Y-80801716D01*
X121654622Y-80747554D01*
X121751095Y-80558217D01*
X121816757Y-80356130D01*
X121816757Y-80356127D01*
X121850000Y-80146246D01*
X121850000Y-79933753D01*
X121816757Y-79723872D01*
X121816757Y-79723869D01*
X121751095Y-79521782D01*
X121654624Y-79332449D01*
X121615270Y-79278282D01*
X121615269Y-79278282D01*
X120982962Y-79910590D01*
X120965925Y-79847007D01*
X120900099Y-79732993D01*
X120807007Y-79639901D01*
X120692993Y-79574075D01*
X120629409Y-79557037D01*
X121299627Y-78886818D01*
X121360950Y-78853333D01*
X121387308Y-78850499D01*
X121397871Y-78850499D01*
X121397872Y-78850499D01*
X121457483Y-78844091D01*
X121592331Y-78793796D01*
X121707546Y-78707546D01*
X121793796Y-78592331D01*
X121844091Y-78457483D01*
X121850500Y-78397873D01*
X121850499Y-76602128D01*
X121844091Y-76542517D01*
X121793796Y-76407669D01*
X121793795Y-76407668D01*
X121793793Y-76407664D01*
X121707547Y-76292455D01*
X121707544Y-76292452D01*
X121592335Y-76206206D01*
X121592328Y-76206202D01*
X121457482Y-76155908D01*
X121457483Y-76155908D01*
X121397883Y-76149501D01*
X121397881Y-76149500D01*
X121397873Y-76149500D01*
X121397864Y-76149500D01*
X119602129Y-76149500D01*
X119602123Y-76149501D01*
X119542516Y-76155908D01*
X119407671Y-76206202D01*
X119407664Y-76206206D01*
X119292455Y-76292452D01*
X119292452Y-76292455D01*
X119206206Y-76407664D01*
X119206202Y-76407671D01*
X119155908Y-76542517D01*
X119149501Y-76602116D01*
X119149501Y-76602123D01*
X119149500Y-76602135D01*
X119149500Y-76975500D01*
X119129815Y-77042539D01*
X119077011Y-77088294D01*
X119025500Y-77099500D01*
X117411306Y-77099500D01*
X117237341Y-77134103D01*
X117237332Y-77134106D01*
X117073459Y-77201983D01*
X117073446Y-77201990D01*
X116925965Y-77300535D01*
X116925961Y-77300538D01*
X116800538Y-77425961D01*
X116800535Y-77425965D01*
X116701990Y-77573446D01*
X116701983Y-77573459D01*
X116634106Y-77737332D01*
X116634103Y-77737341D01*
X116599500Y-77911304D01*
X116599500Y-95475500D01*
X116579815Y-95542539D01*
X116527011Y-95588294D01*
X116475500Y-95599500D01*
X115496409Y-95599500D01*
X115427863Y-95613134D01*
X115358271Y-95606905D01*
X115303095Y-95564042D01*
X115279851Y-95498152D01*
X115285740Y-95453205D01*
X115317246Y-95356243D01*
X115350500Y-95146287D01*
X115350500Y-94933713D01*
X115317246Y-94723757D01*
X115251557Y-94521588D01*
X115155051Y-94332184D01*
X115155049Y-94332181D01*
X115155048Y-94332179D01*
X115030109Y-94160213D01*
X114916569Y-94046673D01*
X114883084Y-93985350D01*
X114888068Y-93915658D01*
X114929940Y-93859725D01*
X114960915Y-93842810D01*
X115092331Y-93793796D01*
X115207546Y-93707546D01*
X115293796Y-93592331D01*
X115344091Y-93457483D01*
X115350500Y-93397873D01*
X115350499Y-91602128D01*
X115344091Y-91542517D01*
X115293796Y-91407669D01*
X115293795Y-91407668D01*
X115293793Y-91407664D01*
X115207547Y-91292455D01*
X115207544Y-91292452D01*
X115092335Y-91206206D01*
X115092328Y-91206202D01*
X114957482Y-91155908D01*
X114957483Y-91155908D01*
X114897883Y-91149501D01*
X114897881Y-91149500D01*
X114897873Y-91149500D01*
X114897864Y-91149500D01*
X113102129Y-91149500D01*
X113102123Y-91149501D01*
X113042516Y-91155908D01*
X112907671Y-91206202D01*
X112907664Y-91206206D01*
X112792455Y-91292452D01*
X112792452Y-91292455D01*
X112706206Y-91407664D01*
X112706202Y-91407671D01*
X112655908Y-91542517D01*
X112649501Y-91602116D01*
X112649501Y-91602123D01*
X112649500Y-91602135D01*
X112649500Y-93397870D01*
X112649501Y-93397876D01*
X112655908Y-93457483D01*
X112706202Y-93592328D01*
X112706206Y-93592335D01*
X112792452Y-93707544D01*
X112792455Y-93707547D01*
X112907664Y-93793793D01*
X112907671Y-93793797D01*
X113039082Y-93842810D01*
X113095016Y-93884681D01*
X113119433Y-93950145D01*
X113104582Y-94018418D01*
X113083431Y-94046673D01*
X112969889Y-94160215D01*
X112844951Y-94332179D01*
X112748444Y-94521585D01*
X112682753Y-94723760D01*
X112649500Y-94933713D01*
X112649500Y-95146287D01*
X112682754Y-95356243D01*
X112728863Y-95498152D01*
X112748444Y-95558414D01*
X112844951Y-95747820D01*
X112969890Y-95919786D01*
X112988873Y-95938769D01*
X113022358Y-96000092D01*
X113017374Y-96069784D01*
X112988873Y-96114131D01*
X112368481Y-96734522D01*
X112368480Y-96734524D01*
X112329026Y-96802861D01*
X112326681Y-96806921D01*
X112325152Y-96809570D01*
X112274577Y-96857777D01*
X112205968Y-96870990D01*
X112141107Y-96845012D01*
X112117457Y-96820440D01*
X112030104Y-96700208D01*
X111879792Y-96549896D01*
X111879786Y-96549890D01*
X111707820Y-96424951D01*
X111707115Y-96424591D01*
X111699054Y-96420485D01*
X111648259Y-96372512D01*
X111631463Y-96304692D01*
X111653999Y-96238556D01*
X111699054Y-96199515D01*
X111707816Y-96195051D01*
X111796102Y-96130908D01*
X111879786Y-96070109D01*
X111879788Y-96070106D01*
X111879792Y-96070104D01*
X112030104Y-95919792D01*
X112030106Y-95919788D01*
X112030109Y-95919786D01*
X112155048Y-95747820D01*
X112155047Y-95747820D01*
X112155051Y-95747816D01*
X112251557Y-95558412D01*
X112317246Y-95356243D01*
X112350500Y-95146287D01*
X112350500Y-94933713D01*
X112317246Y-94723757D01*
X112251557Y-94521588D01*
X112155051Y-94332184D01*
X112155049Y-94332181D01*
X112155048Y-94332179D01*
X112030109Y-94160213D01*
X111916569Y-94046673D01*
X111883084Y-93985350D01*
X111888068Y-93915658D01*
X111929940Y-93859725D01*
X111960915Y-93842810D01*
X112092331Y-93793796D01*
X112207546Y-93707546D01*
X112293796Y-93592331D01*
X112344091Y-93457483D01*
X112350500Y-93397873D01*
X112350499Y-91602128D01*
X112344091Y-91542517D01*
X112293796Y-91407669D01*
X112293795Y-91407668D01*
X112293793Y-91407664D01*
X112207547Y-91292455D01*
X112207544Y-91292452D01*
X112092335Y-91206206D01*
X112092328Y-91206202D01*
X111957482Y-91155908D01*
X111957483Y-91155908D01*
X111897883Y-91149501D01*
X111897881Y-91149500D01*
X111897873Y-91149500D01*
X111897864Y-91149500D01*
X110102129Y-91149500D01*
X110102123Y-91149501D01*
X110042516Y-91155908D01*
X109907671Y-91206202D01*
X109907664Y-91206206D01*
X109792455Y-91292452D01*
X109792452Y-91292455D01*
X109706206Y-91407664D01*
X109706202Y-91407671D01*
X109655908Y-91542517D01*
X109649501Y-91602116D01*
X109649501Y-91602123D01*
X109649500Y-91602135D01*
X109649500Y-93397870D01*
X109649501Y-93397876D01*
X109655908Y-93457483D01*
X109706202Y-93592328D01*
X109706206Y-93592335D01*
X109792452Y-93707544D01*
X109792455Y-93707547D01*
X109907664Y-93793793D01*
X109907671Y-93793797D01*
X110039082Y-93842810D01*
X110095016Y-93884681D01*
X110119433Y-93950145D01*
X110104582Y-94018418D01*
X110083431Y-94046673D01*
X109969889Y-94160215D01*
X109844948Y-94332184D01*
X109844947Y-94332185D01*
X109824765Y-94371795D01*
X109776791Y-94422591D01*
X109714281Y-94439500D01*
X108626670Y-94439500D01*
X108626654Y-94439499D01*
X108619058Y-94439499D01*
X108460943Y-94439499D01*
X108351659Y-94468782D01*
X108311664Y-94479499D01*
X108311663Y-94479498D01*
X108308217Y-94480422D01*
X108308213Y-94480423D01*
X108171290Y-94559475D01*
X108171282Y-94559481D01*
X108019481Y-94711282D01*
X108019479Y-94711285D01*
X107969361Y-94798094D01*
X107969359Y-94798096D01*
X107940425Y-94848209D01*
X107940424Y-94848210D01*
X107940423Y-94848215D01*
X107899499Y-95000943D01*
X107899499Y-95000945D01*
X107899499Y-95169046D01*
X107899500Y-95169059D01*
X107899500Y-132413330D01*
X107899499Y-132413348D01*
X107899499Y-132579054D01*
X107899498Y-132579054D01*
X107899499Y-132579057D01*
X107940423Y-132731785D01*
X107960468Y-132766503D01*
X108019480Y-132868716D01*
X108131284Y-132980520D01*
X108131285Y-132980521D01*
X108631284Y-133480520D01*
X108631286Y-133480521D01*
X108631290Y-133480524D01*
X108768209Y-133559573D01*
X108768216Y-133559577D01*
X108920943Y-133600501D01*
X108920945Y-133600501D01*
X109086654Y-133600501D01*
X109086670Y-133600500D01*
X111420234Y-133600500D01*
X111487273Y-133620185D01*
X111489125Y-133621398D01*
X111620814Y-133709390D01*
X111620827Y-133709397D01*
X111766498Y-133769735D01*
X111766503Y-133769737D01*
X111921153Y-133800499D01*
X111921156Y-133800500D01*
X111921158Y-133800500D01*
X112078844Y-133800500D01*
X112078845Y-133800499D01*
X112233497Y-133769737D01*
X112379179Y-133709394D01*
X112510289Y-133621789D01*
X112621789Y-133510289D01*
X112709394Y-133379179D01*
X112769737Y-133233497D01*
X112800500Y-133078842D01*
X112800500Y-132921158D01*
X112800500Y-132921155D01*
X112800499Y-132921153D01*
X112769737Y-132766503D01*
X112769735Y-132766498D01*
X112709397Y-132620827D01*
X112709390Y-132620814D01*
X112621789Y-132489711D01*
X112621786Y-132489707D01*
X112510292Y-132378213D01*
X112510288Y-132378210D01*
X112379185Y-132290609D01*
X112379172Y-132290602D01*
X112233501Y-132230264D01*
X112233489Y-132230261D01*
X112078845Y-132199500D01*
X112078842Y-132199500D01*
X111921158Y-132199500D01*
X111921155Y-132199500D01*
X111766510Y-132230261D01*
X111766498Y-132230264D01*
X111620827Y-132290602D01*
X111620814Y-132290609D01*
X111489125Y-132378602D01*
X111422447Y-132399480D01*
X111420234Y-132399500D01*
X109300098Y-132399500D01*
X109270657Y-132390855D01*
X109240671Y-132384332D01*
X109235655Y-132380577D01*
X109233059Y-132379815D01*
X109212417Y-132363181D01*
X109136819Y-132287583D01*
X109103334Y-132226260D01*
X109100500Y-132199902D01*
X109100500Y-119921153D01*
X114199500Y-119921153D01*
X114199500Y-120078846D01*
X114230261Y-120233489D01*
X114230264Y-120233501D01*
X114290602Y-120379172D01*
X114290609Y-120379185D01*
X114378210Y-120510288D01*
X114378213Y-120510292D01*
X114489707Y-120621786D01*
X114489711Y-120621789D01*
X114620814Y-120709390D01*
X114620827Y-120709397D01*
X114766498Y-120769735D01*
X114766503Y-120769737D01*
X114921153Y-120800499D01*
X114921156Y-120800500D01*
X114921158Y-120800500D01*
X115078844Y-120800500D01*
X115078845Y-120800499D01*
X115233497Y-120769737D01*
X115379179Y-120709394D01*
X115379185Y-120709390D01*
X115510875Y-120621398D01*
X115577553Y-120600520D01*
X115579766Y-120600500D01*
X117920234Y-120600500D01*
X117987273Y-120620185D01*
X117989125Y-120621398D01*
X118120814Y-120709390D01*
X118120827Y-120709397D01*
X118266498Y-120769735D01*
X118266503Y-120769737D01*
X118421153Y-120800499D01*
X118421156Y-120800500D01*
X118421158Y-120800500D01*
X118578844Y-120800500D01*
X118578845Y-120800499D01*
X118733497Y-120769737D01*
X118879179Y-120709394D01*
X119010289Y-120621789D01*
X119121789Y-120510289D01*
X119209394Y-120379179D01*
X119269737Y-120233497D01*
X119300500Y-120078842D01*
X119300500Y-119921158D01*
X119300500Y-119921155D01*
X119300499Y-119921153D01*
X119269738Y-119766510D01*
X119269737Y-119766503D01*
X119269735Y-119766498D01*
X119209397Y-119620827D01*
X119209390Y-119620814D01*
X119121789Y-119489711D01*
X119121786Y-119489707D01*
X119010292Y-119378213D01*
X119010288Y-119378210D01*
X118879185Y-119290609D01*
X118879172Y-119290602D01*
X118733501Y-119230264D01*
X118733489Y-119230261D01*
X118578845Y-119199500D01*
X118578842Y-119199500D01*
X118421158Y-119199500D01*
X118421155Y-119199500D01*
X118266510Y-119230261D01*
X118266498Y-119230264D01*
X118120827Y-119290602D01*
X118120814Y-119290609D01*
X117989125Y-119378602D01*
X117922447Y-119399480D01*
X117920234Y-119399500D01*
X115579766Y-119399500D01*
X115512727Y-119379815D01*
X115510875Y-119378602D01*
X115379185Y-119290609D01*
X115379172Y-119290602D01*
X115233501Y-119230264D01*
X115233489Y-119230261D01*
X115078845Y-119199500D01*
X115078842Y-119199500D01*
X114921158Y-119199500D01*
X114921155Y-119199500D01*
X114766510Y-119230261D01*
X114766498Y-119230264D01*
X114620827Y-119290602D01*
X114620814Y-119290609D01*
X114489711Y-119378210D01*
X114489707Y-119378213D01*
X114378213Y-119489707D01*
X114378210Y-119489711D01*
X114290609Y-119620814D01*
X114290602Y-119620827D01*
X114230264Y-119766498D01*
X114230261Y-119766510D01*
X114199500Y-119921153D01*
X109100500Y-119921153D01*
X109100500Y-95764500D01*
X109120185Y-95697461D01*
X109172989Y-95651706D01*
X109224500Y-95640500D01*
X109714281Y-95640500D01*
X109781320Y-95660185D01*
X109824765Y-95708205D01*
X109844947Y-95747814D01*
X109844948Y-95747815D01*
X109969890Y-95919786D01*
X110120213Y-96070109D01*
X110292182Y-96195050D01*
X110300946Y-96199516D01*
X110351742Y-96247491D01*
X110368536Y-96315312D01*
X110345998Y-96381447D01*
X110300946Y-96420484D01*
X110292182Y-96424949D01*
X110120213Y-96549890D01*
X109969890Y-96700213D01*
X109844951Y-96872179D01*
X109748444Y-97061585D01*
X109682753Y-97263760D01*
X109649500Y-97473713D01*
X109649500Y-97686286D01*
X109682753Y-97896239D01*
X109748444Y-98098414D01*
X109844951Y-98287820D01*
X109969890Y-98459786D01*
X110120213Y-98610109D01*
X110292182Y-98735050D01*
X110300946Y-98739516D01*
X110351742Y-98787491D01*
X110368536Y-98855312D01*
X110345998Y-98921447D01*
X110300946Y-98960484D01*
X110292182Y-98964949D01*
X110120213Y-99089890D01*
X109969890Y-99240213D01*
X109844951Y-99412179D01*
X109748444Y-99601585D01*
X109748443Y-99601587D01*
X109748443Y-99601588D01*
X109736498Y-99638352D01*
X109682753Y-99803760D01*
X109649500Y-100013713D01*
X109649500Y-100226286D01*
X109680330Y-100420943D01*
X109682754Y-100436243D01*
X109747925Y-100636819D01*
X109748444Y-100638414D01*
X109844951Y-100827820D01*
X109969890Y-100999786D01*
X110120213Y-101150109D01*
X110292182Y-101275050D01*
X110300946Y-101279516D01*
X110351742Y-101327491D01*
X110368536Y-101395312D01*
X110345998Y-101461447D01*
X110300946Y-101500484D01*
X110292182Y-101504949D01*
X110120213Y-101629890D01*
X109969890Y-101780213D01*
X109844951Y-101952179D01*
X109748444Y-102141585D01*
X109682753Y-102343760D01*
X109649500Y-102553713D01*
X109649500Y-102766286D01*
X109682753Y-102976239D01*
X109748444Y-103178414D01*
X109844951Y-103367820D01*
X109969890Y-103539786D01*
X110120213Y-103690109D01*
X110292182Y-103815050D01*
X110300946Y-103819516D01*
X110351742Y-103867491D01*
X110368536Y-103935312D01*
X110345998Y-104001447D01*
X110300946Y-104040484D01*
X110292182Y-104044949D01*
X110120213Y-104169890D01*
X109969890Y-104320213D01*
X109844951Y-104492179D01*
X109748444Y-104681585D01*
X109682753Y-104883760D01*
X109649500Y-105093713D01*
X109649500Y-105306286D01*
X109682753Y-105516239D01*
X109748444Y-105718414D01*
X109844951Y-105907820D01*
X109969890Y-106079786D01*
X110120213Y-106230109D01*
X110292182Y-106355050D01*
X110300946Y-106359516D01*
X110351742Y-106407491D01*
X110368536Y-106475312D01*
X110345998Y-106541447D01*
X110300946Y-106580484D01*
X110292182Y-106584949D01*
X110120213Y-106709890D01*
X109969890Y-106860213D01*
X109844951Y-107032179D01*
X109748444Y-107221585D01*
X109748443Y-107221587D01*
X109748443Y-107221588D01*
X109727012Y-107287546D01*
X109682753Y-107423760D01*
X109649500Y-107633713D01*
X109649500Y-107846286D01*
X109682753Y-108056239D01*
X109748444Y-108258414D01*
X109844951Y-108447820D01*
X109969890Y-108619786D01*
X110120213Y-108770109D01*
X110292179Y-108895048D01*
X110292181Y-108895049D01*
X110292184Y-108895051D01*
X110481588Y-108991557D01*
X110683757Y-109057246D01*
X110893713Y-109090500D01*
X110893714Y-109090500D01*
X111106286Y-109090500D01*
X111106287Y-109090500D01*
X111316243Y-109057246D01*
X111518412Y-108991557D01*
X111707816Y-108895051D01*
X111729789Y-108879086D01*
X111879786Y-108770109D01*
X111879788Y-108770106D01*
X111879792Y-108770104D01*
X112030104Y-108619792D01*
X112030106Y-108619788D01*
X112030109Y-108619786D01*
X112155048Y-108447820D01*
X112155047Y-108447820D01*
X112155051Y-108447816D01*
X112251557Y-108258412D01*
X112317246Y-108056243D01*
X112350500Y-107846287D01*
X112350500Y-107633713D01*
X112317246Y-107423757D01*
X112251557Y-107221588D01*
X112211400Y-107142776D01*
X112198505Y-107074109D01*
X112224781Y-107009369D01*
X112281887Y-106969111D01*
X112351693Y-106966119D01*
X112409567Y-106998802D01*
X112666241Y-107255476D01*
X112699726Y-107316799D01*
X112696492Y-107381473D01*
X112682753Y-107423757D01*
X112649500Y-107633713D01*
X112649500Y-107846286D01*
X112682753Y-108056239D01*
X112748444Y-108258414D01*
X112844951Y-108447820D01*
X112969890Y-108619786D01*
X113120213Y-108770109D01*
X113292179Y-108895048D01*
X113292181Y-108895049D01*
X113292184Y-108895051D01*
X113481588Y-108991557D01*
X113683757Y-109057246D01*
X113893713Y-109090500D01*
X113893714Y-109090500D01*
X114106286Y-109090500D01*
X114106287Y-109090500D01*
X114316243Y-109057246D01*
X114518412Y-108991557D01*
X114707816Y-108895051D01*
X114729789Y-108879086D01*
X114879786Y-108770109D01*
X114879788Y-108770106D01*
X114879792Y-108770104D01*
X115030104Y-108619792D01*
X115030106Y-108619788D01*
X115030109Y-108619786D01*
X115155048Y-108447820D01*
X115155047Y-108447820D01*
X115155051Y-108447816D01*
X115251557Y-108258412D01*
X115317246Y-108056243D01*
X115350500Y-107846287D01*
X115350500Y-107633713D01*
X115317246Y-107423757D01*
X115251557Y-107221588D01*
X115155051Y-107032184D01*
X115155049Y-107032181D01*
X115155048Y-107032179D01*
X115030109Y-106860213D01*
X114879786Y-106709890D01*
X114707817Y-106584949D01*
X114698504Y-106580204D01*
X114647707Y-106532230D01*
X114630912Y-106464409D01*
X114653449Y-106398274D01*
X114698507Y-106359232D01*
X114707555Y-106354622D01*
X114761716Y-106315270D01*
X114761717Y-106315270D01*
X114129409Y-105682962D01*
X114192993Y-105665925D01*
X114307007Y-105600099D01*
X114400099Y-105507007D01*
X114465925Y-105392993D01*
X114482962Y-105329409D01*
X115115270Y-105961717D01*
X115115270Y-105961716D01*
X115154622Y-105907554D01*
X115251095Y-105718217D01*
X115316757Y-105516130D01*
X115316757Y-105516127D01*
X115350000Y-105306246D01*
X115350000Y-105093753D01*
X115316757Y-104883872D01*
X115316757Y-104883869D01*
X115251095Y-104681782D01*
X115154624Y-104492449D01*
X115115270Y-104438282D01*
X115115269Y-104438282D01*
X114482962Y-105070590D01*
X114465925Y-105007007D01*
X114400099Y-104892993D01*
X114307007Y-104799901D01*
X114192993Y-104734075D01*
X114129407Y-104717036D01*
X114761716Y-104084728D01*
X114707547Y-104045373D01*
X114707547Y-104045372D01*
X114698500Y-104040763D01*
X114647706Y-103992788D01*
X114630912Y-103924966D01*
X114653451Y-103858832D01*
X114698508Y-103819793D01*
X114707816Y-103815051D01*
X114852928Y-103709622D01*
X114879786Y-103690109D01*
X114879788Y-103690106D01*
X114879792Y-103690104D01*
X115030104Y-103539792D01*
X115030106Y-103539788D01*
X115030109Y-103539786D01*
X115155048Y-103367820D01*
X115155047Y-103367820D01*
X115155051Y-103367816D01*
X115251557Y-103178412D01*
X115317246Y-102976243D01*
X115350500Y-102766287D01*
X115350500Y-102553713D01*
X115317246Y-102343757D01*
X115251557Y-102141588D01*
X115155051Y-101952184D01*
X115155049Y-101952181D01*
X115155048Y-101952179D01*
X115030109Y-101780213D01*
X114879786Y-101629890D01*
X114707820Y-101504951D01*
X114707115Y-101504591D01*
X114699054Y-101500485D01*
X114648259Y-101452512D01*
X114631463Y-101384692D01*
X114653999Y-101318556D01*
X114699054Y-101279515D01*
X114707816Y-101275051D01*
X114779781Y-101222766D01*
X114879786Y-101150109D01*
X114879788Y-101150106D01*
X114879792Y-101150104D01*
X115030104Y-100999792D01*
X115030106Y-100999788D01*
X115030109Y-100999786D01*
X115142929Y-100844500D01*
X115155051Y-100827816D01*
X115155349Y-100827230D01*
X115175235Y-100788205D01*
X115223209Y-100737409D01*
X115285719Y-100720500D01*
X125775500Y-100720500D01*
X125842539Y-100740185D01*
X125888294Y-100792989D01*
X125899500Y-100844500D01*
X125899500Y-139595500D01*
X125879815Y-139662539D01*
X125827011Y-139708294D01*
X125775500Y-139719500D01*
X124285719Y-139719500D01*
X124218680Y-139699815D01*
X124175235Y-139651795D01*
X124155052Y-139612185D01*
X124155051Y-139612184D01*
X124030109Y-139440213D01*
X123879786Y-139289890D01*
X123707820Y-139164951D01*
X123707115Y-139164591D01*
X123699054Y-139160485D01*
X123648259Y-139112512D01*
X123631463Y-139044692D01*
X123653999Y-138978556D01*
X123699054Y-138939515D01*
X123707816Y-138935051D01*
X123729789Y-138919086D01*
X123879786Y-138810109D01*
X123879788Y-138810106D01*
X123879792Y-138810104D01*
X124030104Y-138659792D01*
X124030106Y-138659788D01*
X124030109Y-138659786D01*
X124155048Y-138487820D01*
X124155047Y-138487820D01*
X124155051Y-138487816D01*
X124251557Y-138298412D01*
X124317246Y-138096243D01*
X124350500Y-137886287D01*
X124350500Y-137673713D01*
X124317246Y-137463757D01*
X124251557Y-137261588D01*
X124155051Y-137072184D01*
X124155049Y-137072181D01*
X124155048Y-137072179D01*
X124030109Y-136900213D01*
X123879786Y-136749890D01*
X123707820Y-136624951D01*
X123707115Y-136624591D01*
X123699054Y-136620485D01*
X123648259Y-136572512D01*
X123631463Y-136504692D01*
X123653999Y-136438556D01*
X123699054Y-136399515D01*
X123707816Y-136395051D01*
X123729789Y-136379086D01*
X123879786Y-136270109D01*
X123879788Y-136270106D01*
X123879792Y-136270104D01*
X124030104Y-136119792D01*
X124030106Y-136119788D01*
X124030109Y-136119786D01*
X124155048Y-135947820D01*
X124155047Y-135947820D01*
X124155051Y-135947816D01*
X124251557Y-135758412D01*
X124317246Y-135556243D01*
X124350500Y-135346287D01*
X124350500Y-135133713D01*
X124317246Y-134923757D01*
X124251557Y-134721588D01*
X124155051Y-134532184D01*
X124155049Y-134532181D01*
X124155048Y-134532179D01*
X124030109Y-134360213D01*
X123879786Y-134209890D01*
X123707820Y-134084951D01*
X123707115Y-134084591D01*
X123699054Y-134080485D01*
X123648259Y-134032512D01*
X123631463Y-133964692D01*
X123653999Y-133898556D01*
X123699054Y-133859515D01*
X123707816Y-133855051D01*
X123782901Y-133800499D01*
X123879786Y-133730109D01*
X123879788Y-133730106D01*
X123879792Y-133730104D01*
X124030104Y-133579792D01*
X124030106Y-133579788D01*
X124030109Y-133579786D01*
X124155048Y-133407820D01*
X124155047Y-133407820D01*
X124155051Y-133407816D01*
X124251557Y-133218412D01*
X124317246Y-133016243D01*
X124350500Y-132806287D01*
X124350500Y-132593713D01*
X124317246Y-132383757D01*
X124251557Y-132181588D01*
X124155051Y-131992184D01*
X124155049Y-131992181D01*
X124155048Y-131992179D01*
X124030109Y-131820213D01*
X123879786Y-131669890D01*
X123707820Y-131544951D01*
X123707115Y-131544591D01*
X123699054Y-131540485D01*
X123648259Y-131492512D01*
X123631463Y-131424692D01*
X123653999Y-131358556D01*
X123699054Y-131319515D01*
X123707816Y-131315051D01*
X123729789Y-131299086D01*
X123879786Y-131190109D01*
X123879788Y-131190106D01*
X123879792Y-131190104D01*
X124030104Y-131039792D01*
X124030106Y-131039788D01*
X124030109Y-131039786D01*
X124155048Y-130867820D01*
X124155047Y-130867820D01*
X124155051Y-130867816D01*
X124251557Y-130678412D01*
X124317246Y-130476243D01*
X124350500Y-130266287D01*
X124350500Y-130053713D01*
X124317246Y-129843757D01*
X124251557Y-129641588D01*
X124155051Y-129452184D01*
X124155049Y-129452181D01*
X124155048Y-129452179D01*
X124030109Y-129280213D01*
X123879786Y-129129890D01*
X123707820Y-129004951D01*
X123707115Y-129004591D01*
X123699054Y-129000485D01*
X123648259Y-128952512D01*
X123631463Y-128884692D01*
X123653999Y-128818556D01*
X123699054Y-128779515D01*
X123707816Y-128775051D01*
X123729789Y-128759086D01*
X123879786Y-128650109D01*
X123879788Y-128650106D01*
X123879792Y-128650104D01*
X124030104Y-128499792D01*
X124030106Y-128499788D01*
X124030109Y-128499786D01*
X124155048Y-128327820D01*
X124155047Y-128327820D01*
X124155051Y-128327816D01*
X124251557Y-128138412D01*
X124317246Y-127936243D01*
X124350500Y-127726287D01*
X124350500Y-127513713D01*
X124317246Y-127303757D01*
X124251557Y-127101588D01*
X124155051Y-126912184D01*
X124155049Y-126912181D01*
X124155048Y-126912179D01*
X124030109Y-126740213D01*
X123879786Y-126589890D01*
X123707820Y-126464951D01*
X123707115Y-126464591D01*
X123699054Y-126460485D01*
X123648259Y-126412512D01*
X123631463Y-126344692D01*
X123653999Y-126278556D01*
X123699054Y-126239515D01*
X123707816Y-126235051D01*
X123729789Y-126219086D01*
X123879786Y-126110109D01*
X123879788Y-126110106D01*
X123879792Y-126110104D01*
X124030104Y-125959792D01*
X124030106Y-125959788D01*
X124030109Y-125959786D01*
X124155048Y-125787820D01*
X124155047Y-125787820D01*
X124155051Y-125787816D01*
X124251557Y-125598412D01*
X124317246Y-125396243D01*
X124350500Y-125186287D01*
X124350500Y-124973713D01*
X124317246Y-124763757D01*
X124251557Y-124561588D01*
X124155051Y-124372184D01*
X124155049Y-124372181D01*
X124155048Y-124372179D01*
X124030109Y-124200213D01*
X123879786Y-124049890D01*
X123707820Y-123924951D01*
X123707115Y-123924591D01*
X123699054Y-123920485D01*
X123648259Y-123872512D01*
X123631463Y-123804692D01*
X123653999Y-123738556D01*
X123699054Y-123699515D01*
X123707816Y-123695051D01*
X123729789Y-123679086D01*
X123879786Y-123570109D01*
X123879788Y-123570106D01*
X123879792Y-123570104D01*
X124030104Y-123419792D01*
X124030106Y-123419788D01*
X124030109Y-123419786D01*
X124155048Y-123247820D01*
X124155047Y-123247820D01*
X124155051Y-123247816D01*
X124251557Y-123058412D01*
X124317246Y-122856243D01*
X124350500Y-122646287D01*
X124350500Y-122433713D01*
X124317246Y-122223757D01*
X124251557Y-122021588D01*
X124155051Y-121832184D01*
X124155049Y-121832181D01*
X124155048Y-121832179D01*
X124030109Y-121660213D01*
X123916569Y-121546673D01*
X123883084Y-121485350D01*
X123888068Y-121415658D01*
X123929940Y-121359725D01*
X123960915Y-121342810D01*
X124092331Y-121293796D01*
X124207546Y-121207546D01*
X124293796Y-121092331D01*
X124344091Y-120957483D01*
X124350500Y-120897873D01*
X124350499Y-119102128D01*
X124344091Y-119042517D01*
X124293796Y-118907669D01*
X124293795Y-118907668D01*
X124293793Y-118907664D01*
X124207547Y-118792455D01*
X124207544Y-118792452D01*
X124092335Y-118706206D01*
X124092328Y-118706202D01*
X123957482Y-118655908D01*
X123957483Y-118655908D01*
X123897883Y-118649501D01*
X123897881Y-118649500D01*
X123897873Y-118649500D01*
X123897864Y-118649500D01*
X122102129Y-118649500D01*
X122102123Y-118649501D01*
X122042516Y-118655908D01*
X121907671Y-118706202D01*
X121907664Y-118706206D01*
X121792455Y-118792452D01*
X121792452Y-118792455D01*
X121706206Y-118907664D01*
X121706202Y-118907671D01*
X121655908Y-119042517D01*
X121649501Y-119102116D01*
X121649501Y-119102123D01*
X121649500Y-119102135D01*
X121649500Y-120897870D01*
X121649501Y-120897876D01*
X121655908Y-120957483D01*
X121706202Y-121092328D01*
X121706206Y-121092335D01*
X121792452Y-121207544D01*
X121792455Y-121207547D01*
X121907664Y-121293793D01*
X121907671Y-121293797D01*
X122039082Y-121342810D01*
X122095016Y-121384681D01*
X122119433Y-121450145D01*
X122104582Y-121518418D01*
X122083431Y-121546673D01*
X121969889Y-121660215D01*
X121844951Y-121832179D01*
X121748444Y-122021585D01*
X121682753Y-122223760D01*
X121649500Y-122433713D01*
X121649500Y-122646287D01*
X121682754Y-122856243D01*
X121698396Y-122904385D01*
X121748444Y-123058414D01*
X121844951Y-123247820D01*
X121969890Y-123419786D01*
X122120213Y-123570109D01*
X122292182Y-123695050D01*
X122300946Y-123699516D01*
X122351742Y-123747491D01*
X122368536Y-123815312D01*
X122345998Y-123881447D01*
X122300946Y-123920484D01*
X122292182Y-123924949D01*
X122120213Y-124049890D01*
X121969890Y-124200213D01*
X121844951Y-124372179D01*
X121748444Y-124561585D01*
X121682753Y-124763760D01*
X121649500Y-124973713D01*
X121649500Y-125186286D01*
X121682753Y-125396239D01*
X121748444Y-125598414D01*
X121844951Y-125787820D01*
X121969890Y-125959786D01*
X122120213Y-126110109D01*
X122292182Y-126235050D01*
X122300946Y-126239516D01*
X122351742Y-126287491D01*
X122368536Y-126355312D01*
X122345998Y-126421447D01*
X122300946Y-126460484D01*
X122292182Y-126464949D01*
X122120213Y-126589890D01*
X121969890Y-126740213D01*
X121844951Y-126912179D01*
X121748444Y-127101585D01*
X121682753Y-127303760D01*
X121649500Y-127513713D01*
X121649500Y-127726287D01*
X121682754Y-127936243D01*
X121746246Y-128131651D01*
X121748444Y-128138414D01*
X121844951Y-128327820D01*
X121969890Y-128499786D01*
X122120213Y-128650109D01*
X122292182Y-128775050D01*
X122300946Y-128779516D01*
X122351742Y-128827491D01*
X122368536Y-128895312D01*
X122345998Y-128961447D01*
X122300946Y-129000484D01*
X122292182Y-129004949D01*
X122120213Y-129129890D01*
X121969890Y-129280213D01*
X121844951Y-129452179D01*
X121748444Y-129641585D01*
X121682753Y-129843760D01*
X121649500Y-130053713D01*
X121649500Y-130266286D01*
X121679782Y-130457483D01*
X121682754Y-130476243D01*
X121742097Y-130658882D01*
X121748444Y-130678414D01*
X121844951Y-130867820D01*
X121969890Y-131039786D01*
X122120213Y-131190109D01*
X122292182Y-131315050D01*
X122300946Y-131319516D01*
X122351742Y-131367491D01*
X122368536Y-131435312D01*
X122345998Y-131501447D01*
X122300946Y-131540484D01*
X122292182Y-131544949D01*
X122120213Y-131669890D01*
X121969890Y-131820213D01*
X121844948Y-131992184D01*
X121844947Y-131992185D01*
X121824765Y-132031795D01*
X121776791Y-132082591D01*
X121714281Y-132099500D01*
X116879057Y-132099500D01*
X116720943Y-132099500D01*
X116568215Y-132140423D01*
X116568214Y-132140423D01*
X116568212Y-132140424D01*
X116568209Y-132140425D01*
X116520666Y-132167874D01*
X116520641Y-132167889D01*
X116518095Y-132169360D01*
X116431284Y-132219480D01*
X116414899Y-132235864D01*
X116403684Y-132243074D01*
X116382426Y-132249318D01*
X116362982Y-132259934D01*
X116349559Y-132258972D01*
X116336647Y-132262766D01*
X116315387Y-132256526D01*
X116293290Y-132254944D01*
X116289182Y-132253328D01*
X116279501Y-132249318D01*
X116233497Y-132230263D01*
X116233493Y-132230262D01*
X116233488Y-132230260D01*
X116078845Y-132199500D01*
X116078842Y-132199500D01*
X115921158Y-132199500D01*
X115921155Y-132199500D01*
X115766510Y-132230261D01*
X115766498Y-132230264D01*
X115620827Y-132290602D01*
X115620814Y-132290609D01*
X115489711Y-132378210D01*
X115489707Y-132378213D01*
X115378213Y-132489707D01*
X115378210Y-132489711D01*
X115290609Y-132620814D01*
X115290602Y-132620827D01*
X115230264Y-132766498D01*
X115230261Y-132766510D01*
X115199500Y-132921153D01*
X115199500Y-133078846D01*
X115230261Y-133233489D01*
X115230264Y-133233501D01*
X115290602Y-133379172D01*
X115290609Y-133379185D01*
X115378210Y-133510288D01*
X115378213Y-133510292D01*
X115489707Y-133621786D01*
X115489711Y-133621789D01*
X115620814Y-133709390D01*
X115620827Y-133709397D01*
X115766498Y-133769735D01*
X115766503Y-133769737D01*
X115921153Y-133800499D01*
X115921156Y-133800500D01*
X115921158Y-133800500D01*
X116078844Y-133800500D01*
X116078845Y-133800499D01*
X116233497Y-133769737D01*
X116379179Y-133709394D01*
X116510289Y-133621789D01*
X116510288Y-133621789D01*
X116510873Y-133621399D01*
X116571124Y-133602532D01*
X116570997Y-133601562D01*
X116576568Y-133600828D01*
X116577550Y-133600521D01*
X116579002Y-133600507D01*
X116579054Y-133600501D01*
X116579057Y-133600501D01*
X116731785Y-133559577D01*
X116781904Y-133530639D01*
X116868716Y-133480520D01*
X116980520Y-133368716D01*
X116980520Y-133368714D01*
X116990728Y-133358507D01*
X116990732Y-133358502D01*
X117012418Y-133336817D01*
X117073742Y-133303333D01*
X117100097Y-133300500D01*
X121714281Y-133300500D01*
X121781320Y-133320185D01*
X121824765Y-133368205D01*
X121844947Y-133407814D01*
X121844948Y-133407815D01*
X121969890Y-133579786D01*
X122120213Y-133730109D01*
X122292182Y-133855050D01*
X122300946Y-133859516D01*
X122351742Y-133907491D01*
X122368536Y-133975312D01*
X122345998Y-134041447D01*
X122300946Y-134080484D01*
X122292182Y-134084949D01*
X122120213Y-134209890D01*
X121969890Y-134360213D01*
X121844951Y-134532179D01*
X121748444Y-134721585D01*
X121682753Y-134923760D01*
X121649500Y-135133713D01*
X121649500Y-135346286D01*
X121682753Y-135556239D01*
X121748444Y-135758414D01*
X121844951Y-135947820D01*
X121969890Y-136119786D01*
X122120213Y-136270109D01*
X122292182Y-136395050D01*
X122300946Y-136399516D01*
X122351742Y-136447491D01*
X122368536Y-136515312D01*
X122345998Y-136581447D01*
X122300946Y-136620484D01*
X122292182Y-136624949D01*
X122120213Y-136749890D01*
X121969890Y-136900213D01*
X121844951Y-137072179D01*
X121748444Y-137261585D01*
X121682753Y-137463760D01*
X121649500Y-137673713D01*
X121649500Y-137886286D01*
X121682753Y-138096239D01*
X121748444Y-138298414D01*
X121844951Y-138487820D01*
X121969890Y-138659786D01*
X122120213Y-138810109D01*
X122292182Y-138935050D01*
X122300946Y-138939516D01*
X122351742Y-138987491D01*
X122368536Y-139055312D01*
X122345998Y-139121447D01*
X122300946Y-139160484D01*
X122292182Y-139164949D01*
X122120213Y-139289890D01*
X121969890Y-139440213D01*
X121844951Y-139612179D01*
X121748444Y-139801585D01*
X121682753Y-140003760D01*
X121649500Y-140213713D01*
X121649500Y-140426286D01*
X121665519Y-140527430D01*
X121682754Y-140636243D01*
X121696484Y-140678500D01*
X121748444Y-140838414D01*
X121844951Y-141027820D01*
X121969890Y-141199786D01*
X122120213Y-141350109D01*
X122292182Y-141475050D01*
X122300946Y-141479516D01*
X122351742Y-141527491D01*
X122368536Y-141595312D01*
X122345998Y-141661447D01*
X122300946Y-141700484D01*
X122292182Y-141704949D01*
X122120213Y-141829890D01*
X121969890Y-141980213D01*
X121844951Y-142152179D01*
X121748444Y-142341585D01*
X121682753Y-142543760D01*
X121649500Y-142753713D01*
X121649500Y-142966286D01*
X121682753Y-143176239D01*
X121748444Y-143378414D01*
X121844951Y-143567820D01*
X121969890Y-143739786D01*
X122120213Y-143890109D01*
X122292182Y-144015050D01*
X122300946Y-144019516D01*
X122351742Y-144067491D01*
X122368536Y-144135312D01*
X122345998Y-144201447D01*
X122300946Y-144240484D01*
X122292182Y-144244949D01*
X122120213Y-144369890D01*
X121969890Y-144520213D01*
X121844951Y-144692179D01*
X121748444Y-144881585D01*
X121682753Y-145083760D01*
X121649500Y-145293713D01*
X121649500Y-145506286D01*
X121681233Y-145706645D01*
X121682754Y-145716243D01*
X121745029Y-145907906D01*
X121748444Y-145918414D01*
X121844951Y-146107820D01*
X121969890Y-146279786D01*
X122120213Y-146430109D01*
X122292182Y-146555050D01*
X122300946Y-146559516D01*
X122351742Y-146607491D01*
X122368536Y-146675312D01*
X122345998Y-146741447D01*
X122300946Y-146780484D01*
X122292182Y-146784949D01*
X122120213Y-146909890D01*
X121969890Y-147060213D01*
X121844951Y-147232179D01*
X121748444Y-147421585D01*
X121682753Y-147623760D01*
X121649500Y-147833713D01*
X121649500Y-148046286D01*
X121674984Y-148207190D01*
X121682754Y-148256243D01*
X121713217Y-148349999D01*
X121748444Y-148458414D01*
X121844951Y-148647820D01*
X121969890Y-148819786D01*
X122120213Y-148970109D01*
X122292182Y-149095050D01*
X122300946Y-149099516D01*
X122351742Y-149147491D01*
X122368536Y-149215312D01*
X122345998Y-149281447D01*
X122300946Y-149320484D01*
X122292182Y-149324949D01*
X122120213Y-149449890D01*
X121969890Y-149600213D01*
X121844951Y-149772179D01*
X121748444Y-149961585D01*
X121682753Y-150163760D01*
X121649500Y-150373713D01*
X121649500Y-150586287D01*
X121682754Y-150796243D01*
X121708253Y-150874722D01*
X121748444Y-150998414D01*
X121844951Y-151187820D01*
X121969890Y-151359786D01*
X122120213Y-151510109D01*
X122292182Y-151635050D01*
X122300946Y-151639516D01*
X122351742Y-151687491D01*
X122368536Y-151755312D01*
X122345998Y-151821447D01*
X122300946Y-151860484D01*
X122292182Y-151864949D01*
X122120213Y-151989890D01*
X121969890Y-152140213D01*
X121844951Y-152312179D01*
X121748444Y-152501585D01*
X121682753Y-152703760D01*
X121649500Y-152913713D01*
X121649500Y-153126286D01*
X121682753Y-153336239D01*
X121748444Y-153538414D01*
X121844951Y-153727820D01*
X121969890Y-153899786D01*
X122120213Y-154050109D01*
X122292182Y-154175050D01*
X122300946Y-154179516D01*
X122351742Y-154227491D01*
X122368536Y-154295312D01*
X122345998Y-154361447D01*
X122300946Y-154400484D01*
X122292182Y-154404949D01*
X122120213Y-154529890D01*
X121969890Y-154680213D01*
X121844951Y-154852179D01*
X121748444Y-155041585D01*
X121682753Y-155243760D01*
X121649500Y-155453713D01*
X121649500Y-155666286D01*
X121682753Y-155876239D01*
X121748444Y-156078414D01*
X121844951Y-156267820D01*
X121969890Y-156439786D01*
X122120213Y-156590109D01*
X122292179Y-156715048D01*
X122292181Y-156715049D01*
X122292184Y-156715051D01*
X122481588Y-156811557D01*
X122683757Y-156877246D01*
X122893713Y-156910500D01*
X122893714Y-156910500D01*
X123106286Y-156910500D01*
X123106287Y-156910500D01*
X123316243Y-156877246D01*
X123518412Y-156811557D01*
X123707816Y-156715051D01*
X123729789Y-156699086D01*
X123879786Y-156590109D01*
X123879788Y-156590106D01*
X123879792Y-156590104D01*
X124030104Y-156439792D01*
X124030106Y-156439788D01*
X124030109Y-156439786D01*
X124155048Y-156267820D01*
X124155047Y-156267820D01*
X124155051Y-156267816D01*
X124251557Y-156078412D01*
X124317246Y-155876243D01*
X124350500Y-155666287D01*
X124350500Y-155453713D01*
X124317246Y-155243757D01*
X124251557Y-155041588D01*
X124155051Y-154852184D01*
X124155049Y-154852181D01*
X124155048Y-154852179D01*
X124030109Y-154680213D01*
X123879786Y-154529890D01*
X123707820Y-154404951D01*
X123707115Y-154404591D01*
X123699054Y-154400485D01*
X123648259Y-154352512D01*
X123631463Y-154284692D01*
X123653999Y-154218556D01*
X123699054Y-154179515D01*
X123707816Y-154175051D01*
X123803222Y-154105735D01*
X123879786Y-154050109D01*
X123879788Y-154050106D01*
X123879792Y-154050104D01*
X124030104Y-153899792D01*
X124030106Y-153899788D01*
X124030109Y-153899786D01*
X124155048Y-153727820D01*
X124155047Y-153727820D01*
X124155051Y-153727816D01*
X124251557Y-153538412D01*
X124317246Y-153336243D01*
X124350500Y-153126287D01*
X124350500Y-152913713D01*
X124317246Y-152703757D01*
X124251557Y-152501588D01*
X124155051Y-152312184D01*
X124155049Y-152312181D01*
X124155048Y-152312179D01*
X124030109Y-152140213D01*
X123879786Y-151989890D01*
X123707820Y-151864951D01*
X123699600Y-151860763D01*
X123699054Y-151860485D01*
X123648259Y-151812512D01*
X123631463Y-151744692D01*
X123653999Y-151678556D01*
X123699054Y-151639515D01*
X123707816Y-151635051D01*
X123729789Y-151619086D01*
X123879786Y-151510109D01*
X123879788Y-151510106D01*
X123879792Y-151510104D01*
X124030104Y-151359792D01*
X124030106Y-151359788D01*
X124030109Y-151359786D01*
X124155048Y-151187820D01*
X124155047Y-151187820D01*
X124155051Y-151187816D01*
X124251557Y-150998412D01*
X124317246Y-150796243D01*
X124350500Y-150586287D01*
X124350500Y-150373713D01*
X124317246Y-150163757D01*
X124251557Y-149961588D01*
X124155051Y-149772184D01*
X124155049Y-149772181D01*
X124155048Y-149772179D01*
X124030109Y-149600213D01*
X123879786Y-149449890D01*
X123707820Y-149324951D01*
X123707115Y-149324591D01*
X123699054Y-149320485D01*
X123648259Y-149272512D01*
X123631463Y-149204692D01*
X123653999Y-149138556D01*
X123699054Y-149099515D01*
X123707816Y-149095051D01*
X123729789Y-149079086D01*
X123879786Y-148970109D01*
X123879788Y-148970106D01*
X123879792Y-148970104D01*
X124030104Y-148819792D01*
X124030106Y-148819788D01*
X124030109Y-148819786D01*
X124155048Y-148647820D01*
X124155047Y-148647820D01*
X124155051Y-148647816D01*
X124251557Y-148458412D01*
X124317246Y-148256243D01*
X124350500Y-148046287D01*
X124350500Y-147833713D01*
X124317246Y-147623757D01*
X124251557Y-147421588D01*
X124155051Y-147232184D01*
X124155049Y-147232181D01*
X124155048Y-147232179D01*
X124030109Y-147060213D01*
X123879786Y-146909890D01*
X123707820Y-146784951D01*
X123707115Y-146784591D01*
X123699054Y-146780485D01*
X123648259Y-146732512D01*
X123631463Y-146664692D01*
X123653999Y-146598556D01*
X123699054Y-146559515D01*
X123707816Y-146555051D01*
X123783588Y-146500000D01*
X123879786Y-146430109D01*
X123879788Y-146430106D01*
X123879792Y-146430104D01*
X124030104Y-146279792D01*
X124030106Y-146279788D01*
X124030109Y-146279786D01*
X124155048Y-146107820D01*
X124155047Y-146107820D01*
X124155051Y-146107816D01*
X124251557Y-145918412D01*
X124317246Y-145716243D01*
X124350500Y-145506287D01*
X124350500Y-145293713D01*
X124317246Y-145083757D01*
X124251557Y-144881588D01*
X124155051Y-144692184D01*
X124155049Y-144692181D01*
X124155048Y-144692179D01*
X124030109Y-144520213D01*
X123879786Y-144369890D01*
X123707820Y-144244951D01*
X123707115Y-144244591D01*
X123699054Y-144240485D01*
X123648259Y-144192512D01*
X123631463Y-144124692D01*
X123653999Y-144058556D01*
X123699054Y-144019515D01*
X123707816Y-144015051D01*
X123729789Y-143999086D01*
X123879786Y-143890109D01*
X123879788Y-143890106D01*
X123879792Y-143890104D01*
X124030104Y-143739792D01*
X124030106Y-143739788D01*
X124030109Y-143739786D01*
X124155048Y-143567820D01*
X124155047Y-143567820D01*
X124155051Y-143567816D01*
X124251557Y-143378412D01*
X124317246Y-143176243D01*
X124350500Y-142966287D01*
X124350500Y-142753713D01*
X124317246Y-142543757D01*
X124251557Y-142341588D01*
X124155051Y-142152184D01*
X124155049Y-142152181D01*
X124155048Y-142152179D01*
X124030109Y-141980213D01*
X123879786Y-141829890D01*
X123707820Y-141704951D01*
X123707115Y-141704591D01*
X123699054Y-141700485D01*
X123648259Y-141652512D01*
X123631463Y-141584692D01*
X123653999Y-141518556D01*
X123699054Y-141479515D01*
X123707816Y-141475051D01*
X123729789Y-141459086D01*
X123879786Y-141350109D01*
X123879788Y-141350106D01*
X123879792Y-141350104D01*
X124030104Y-141199792D01*
X124030106Y-141199788D01*
X124030109Y-141199786D01*
X124088661Y-141119193D01*
X124155051Y-141027816D01*
X124155349Y-141027230D01*
X124175235Y-140988205D01*
X124223209Y-140937409D01*
X124285719Y-140920500D01*
X126093331Y-140920500D01*
X126093347Y-140920501D01*
X126100943Y-140920501D01*
X126259054Y-140920501D01*
X126259057Y-140920501D01*
X126411785Y-140879577D01*
X126461904Y-140850639D01*
X126548716Y-140800520D01*
X126660520Y-140688716D01*
X126660521Y-140688713D01*
X126788321Y-140560912D01*
X126849642Y-140527430D01*
X126919334Y-140532414D01*
X126975267Y-140574286D01*
X126999684Y-140639750D01*
X127000000Y-140648596D01*
X127000000Y-150876000D01*
X126980315Y-150943039D01*
X126927511Y-150988794D01*
X126876000Y-151000000D01*
X125000000Y-151000000D01*
X125000000Y-157376000D01*
X124980315Y-157443039D01*
X124927511Y-157488794D01*
X124876000Y-157500000D01*
X55124000Y-157500000D01*
X55056961Y-157480315D01*
X55011206Y-157427511D01*
X55000000Y-157376000D01*
X55000000Y-151000000D01*
X47125285Y-151000000D01*
X47058246Y-150980315D01*
X47012491Y-150927511D01*
X47001292Y-150874722D01*
X47039203Y-147197360D01*
X47050494Y-146102155D01*
X47650000Y-146102155D01*
X47650000Y-146750000D01*
X48566988Y-146750000D01*
X48534075Y-146807007D01*
X48500000Y-146934174D01*
X48500000Y-147065826D01*
X48534075Y-147192993D01*
X48566988Y-147250000D01*
X47650000Y-147250000D01*
X47650000Y-147897844D01*
X47656401Y-147957372D01*
X47656403Y-147957379D01*
X47706645Y-148092086D01*
X47706649Y-148092093D01*
X47792809Y-148207187D01*
X47792812Y-148207190D01*
X47907906Y-148293350D01*
X47907913Y-148293354D01*
X48042620Y-148343596D01*
X48042627Y-148343598D01*
X48102155Y-148349999D01*
X48102172Y-148350000D01*
X48750000Y-148350000D01*
X48750000Y-147433012D01*
X48807007Y-147465925D01*
X48934174Y-147500000D01*
X49065826Y-147500000D01*
X49192993Y-147465925D01*
X49250000Y-147433012D01*
X49250000Y-148350000D01*
X49897828Y-148350000D01*
X49897844Y-148349999D01*
X49957372Y-148343598D01*
X49957379Y-148343596D01*
X50092086Y-148293354D01*
X50092093Y-148293350D01*
X50207187Y-148207190D01*
X50207190Y-148207187D01*
X50293350Y-148092093D01*
X50293354Y-148092086D01*
X50343596Y-147957379D01*
X50343598Y-147957372D01*
X50349999Y-147897844D01*
X50350000Y-147897827D01*
X50350000Y-147250000D01*
X49433012Y-147250000D01*
X49465925Y-147192993D01*
X49500000Y-147065826D01*
X49500000Y-146934174D01*
X49465925Y-146807007D01*
X49433012Y-146750000D01*
X50350000Y-146750000D01*
X50350000Y-146102172D01*
X50349999Y-146102155D01*
X87650000Y-146102155D01*
X87650000Y-146750000D01*
X88566988Y-146750000D01*
X88534075Y-146807007D01*
X88500000Y-146934174D01*
X88500000Y-147065826D01*
X88534075Y-147192993D01*
X88566988Y-147250000D01*
X87650000Y-147250000D01*
X87650000Y-147897844D01*
X87656401Y-147957372D01*
X87656403Y-147957379D01*
X87706645Y-148092086D01*
X87706649Y-148092093D01*
X87792809Y-148207187D01*
X87792812Y-148207190D01*
X87907906Y-148293350D01*
X87907913Y-148293354D01*
X88042620Y-148343596D01*
X88042627Y-148343598D01*
X88102155Y-148349999D01*
X88102172Y-148350000D01*
X88750000Y-148350000D01*
X88750000Y-147433012D01*
X88807007Y-147465925D01*
X88934174Y-147500000D01*
X89065826Y-147500000D01*
X89192993Y-147465925D01*
X89250000Y-147433012D01*
X89250000Y-148350000D01*
X89897828Y-148350000D01*
X89897844Y-148349999D01*
X89957372Y-148343598D01*
X89957379Y-148343596D01*
X90092086Y-148293354D01*
X90092093Y-148293350D01*
X90207187Y-148207190D01*
X90207190Y-148207187D01*
X90293350Y-148092093D01*
X90293354Y-148092086D01*
X90343596Y-147957379D01*
X90343598Y-147957372D01*
X90349999Y-147897844D01*
X90350000Y-147897827D01*
X90350000Y-147250000D01*
X89433012Y-147250000D01*
X89465925Y-147192993D01*
X89500000Y-147065826D01*
X89500000Y-146934174D01*
X89465925Y-146807007D01*
X89433012Y-146750000D01*
X90350000Y-146750000D01*
X90350000Y-146102172D01*
X90349999Y-146102155D01*
X90343598Y-146042627D01*
X90343596Y-146042620D01*
X90293354Y-145907913D01*
X90293350Y-145907906D01*
X90207190Y-145792812D01*
X90207187Y-145792809D01*
X90092093Y-145706649D01*
X90092086Y-145706645D01*
X89957379Y-145656403D01*
X89957372Y-145656401D01*
X89897844Y-145650000D01*
X89250000Y-145650000D01*
X89250000Y-146566988D01*
X89192993Y-146534075D01*
X89065826Y-146500000D01*
X88934174Y-146500000D01*
X88807007Y-146534075D01*
X88750000Y-146566988D01*
X88750000Y-145650000D01*
X88102155Y-145650000D01*
X88042627Y-145656401D01*
X88042620Y-145656403D01*
X87907913Y-145706645D01*
X87907906Y-145706649D01*
X87792812Y-145792809D01*
X87792809Y-145792812D01*
X87706649Y-145907906D01*
X87706645Y-145907913D01*
X87656403Y-146042620D01*
X87656401Y-146042627D01*
X87650000Y-146102155D01*
X50349999Y-146102155D01*
X50343598Y-146042627D01*
X50343596Y-146042620D01*
X50293354Y-145907913D01*
X50293350Y-145907906D01*
X50207190Y-145792812D01*
X50207187Y-145792809D01*
X50092093Y-145706649D01*
X50092086Y-145706645D01*
X49957379Y-145656403D01*
X49957372Y-145656401D01*
X49897844Y-145650000D01*
X49250000Y-145650000D01*
X49250000Y-146566988D01*
X49192993Y-146534075D01*
X49065826Y-146500000D01*
X48934174Y-146500000D01*
X48807007Y-146534075D01*
X48750000Y-146566988D01*
X48750000Y-145650000D01*
X48102155Y-145650000D01*
X48042627Y-145656401D01*
X48042620Y-145656403D01*
X47907913Y-145706645D01*
X47907906Y-145706649D01*
X47792812Y-145792809D01*
X47792809Y-145792812D01*
X47706649Y-145907906D01*
X47706645Y-145907913D01*
X47656403Y-146042620D01*
X47656401Y-146042627D01*
X47650000Y-146102155D01*
X47050494Y-146102155D01*
X47050541Y-146097573D01*
X47230907Y-128602135D01*
X47649500Y-128602135D01*
X47649500Y-130397870D01*
X47649501Y-130397876D01*
X47655908Y-130457483D01*
X47706202Y-130592328D01*
X47706206Y-130592335D01*
X47792452Y-130707544D01*
X47792455Y-130707547D01*
X47907664Y-130793793D01*
X47907671Y-130793797D01*
X48042517Y-130844091D01*
X48042516Y-130844091D01*
X48049444Y-130844835D01*
X48102127Y-130850500D01*
X49897872Y-130850499D01*
X49957483Y-130844091D01*
X50092331Y-130793796D01*
X50117128Y-130775233D01*
X50182592Y-130750816D01*
X50191439Y-130750500D01*
X50598422Y-130750500D01*
X50792826Y-130719709D01*
X50793238Y-130719575D01*
X50980026Y-130658884D01*
X51155405Y-130569524D01*
X51314646Y-130453828D01*
X53166339Y-128602135D01*
X87649500Y-128602135D01*
X87649500Y-130397870D01*
X87649501Y-130397876D01*
X87655908Y-130457483D01*
X87706202Y-130592328D01*
X87706206Y-130592335D01*
X87792452Y-130707544D01*
X87792455Y-130707547D01*
X87907664Y-130793793D01*
X87907671Y-130793797D01*
X88042517Y-130844091D01*
X88042516Y-130844091D01*
X88049444Y-130844835D01*
X88102127Y-130850500D01*
X89897872Y-130850499D01*
X89957483Y-130844091D01*
X90092331Y-130793796D01*
X90207546Y-130707546D01*
X90293796Y-130592331D01*
X90344091Y-130457483D01*
X90350500Y-130397873D01*
X90350499Y-128602128D01*
X90344091Y-128542517D01*
X90328153Y-128499786D01*
X90293797Y-128407671D01*
X90293793Y-128407664D01*
X90207547Y-128292455D01*
X90207544Y-128292452D01*
X90092335Y-128206206D01*
X90092328Y-128206202D01*
X89957482Y-128155908D01*
X89957483Y-128155908D01*
X89897883Y-128149501D01*
X89897881Y-128149500D01*
X89897873Y-128149500D01*
X89897864Y-128149500D01*
X88102129Y-128149500D01*
X88102123Y-128149501D01*
X88042516Y-128155908D01*
X87907671Y-128206202D01*
X87907664Y-128206206D01*
X87792455Y-128292452D01*
X87792452Y-128292455D01*
X87706206Y-128407664D01*
X87706202Y-128407671D01*
X87655908Y-128542517D01*
X87649994Y-128597528D01*
X87649501Y-128602123D01*
X87649500Y-128602135D01*
X53166339Y-128602135D01*
X55953828Y-125814646D01*
X56069524Y-125655405D01*
X56158884Y-125480026D01*
X56219709Y-125292826D01*
X56236583Y-125186287D01*
X56250500Y-125098422D01*
X56250500Y-96577135D01*
X80649500Y-96577135D01*
X80649500Y-98372870D01*
X80649501Y-98372876D01*
X80655908Y-98432483D01*
X80706202Y-98567328D01*
X80706206Y-98567335D01*
X80792452Y-98682544D01*
X80792455Y-98682547D01*
X80907664Y-98768793D01*
X80907671Y-98768797D01*
X81039082Y-98817810D01*
X81095016Y-98859681D01*
X81119433Y-98925145D01*
X81104582Y-98993418D01*
X81083431Y-99021673D01*
X80969889Y-99135215D01*
X80844951Y-99307179D01*
X80748444Y-99496585D01*
X80748443Y-99496587D01*
X80748443Y-99496588D01*
X80741005Y-99519479D01*
X80682753Y-99698760D01*
X80666123Y-99803760D01*
X80649500Y-99908713D01*
X80649500Y-100121287D01*
X80659534Y-100184644D01*
X80676567Y-100292184D01*
X80682754Y-100331243D01*
X80731604Y-100481588D01*
X80748444Y-100533414D01*
X80844951Y-100722820D01*
X80969890Y-100894786D01*
X81120213Y-101045109D01*
X81292179Y-101170048D01*
X81292181Y-101170049D01*
X81292184Y-101170051D01*
X81301493Y-101174794D01*
X81352290Y-101222766D01*
X81369087Y-101290587D01*
X81346552Y-101356722D01*
X81301505Y-101395760D01*
X81292446Y-101400376D01*
X81292440Y-101400380D01*
X81238282Y-101439727D01*
X81238282Y-101439728D01*
X81870591Y-102072037D01*
X81807007Y-102089075D01*
X81692993Y-102154901D01*
X81599901Y-102247993D01*
X81534075Y-102362007D01*
X81517037Y-102425591D01*
X80884728Y-101793282D01*
X80884727Y-101793282D01*
X80845380Y-101847439D01*
X80748904Y-102036782D01*
X80683242Y-102238869D01*
X80683242Y-102238872D01*
X80650000Y-102448753D01*
X80650000Y-102661246D01*
X80683242Y-102871127D01*
X80683242Y-102871130D01*
X80748904Y-103073217D01*
X80845375Y-103262550D01*
X80884728Y-103316716D01*
X81517037Y-102684408D01*
X81534075Y-102747993D01*
X81599901Y-102862007D01*
X81692993Y-102955099D01*
X81807007Y-103020925D01*
X81870590Y-103037962D01*
X81238282Y-103670269D01*
X81238282Y-103670270D01*
X81292449Y-103709624D01*
X81481782Y-103806095D01*
X81683870Y-103871757D01*
X81893754Y-103905000D01*
X82106246Y-103905000D01*
X82316127Y-103871757D01*
X82316130Y-103871757D01*
X82518217Y-103806095D01*
X82707554Y-103709622D01*
X82761716Y-103670270D01*
X82761717Y-103670270D01*
X82129408Y-103037962D01*
X82192993Y-103020925D01*
X82307007Y-102955099D01*
X82400099Y-102862007D01*
X82465925Y-102747993D01*
X82482962Y-102684408D01*
X83115270Y-103316717D01*
X83115270Y-103316716D01*
X83154622Y-103262554D01*
X83251095Y-103073217D01*
X83316757Y-102871130D01*
X83316757Y-102871127D01*
X83350000Y-102661246D01*
X83350000Y-102448753D01*
X83316757Y-102238872D01*
X83316757Y-102238869D01*
X83251095Y-102036782D01*
X83154624Y-101847449D01*
X83115270Y-101793282D01*
X83115269Y-101793282D01*
X82482962Y-102425590D01*
X82465925Y-102362007D01*
X82400099Y-102247993D01*
X82307007Y-102154901D01*
X82192993Y-102089075D01*
X82129409Y-102072037D01*
X82761716Y-101439728D01*
X82707547Y-101400373D01*
X82707547Y-101400372D01*
X82698500Y-101395763D01*
X82647706Y-101347788D01*
X82630912Y-101279966D01*
X82653451Y-101213832D01*
X82698508Y-101174793D01*
X82707816Y-101170051D01*
X82795582Y-101106286D01*
X82879786Y-101045109D01*
X82879788Y-101045106D01*
X82879792Y-101045104D01*
X83030104Y-100894792D01*
X83030106Y-100894788D01*
X83030109Y-100894786D01*
X83107543Y-100788205D01*
X83155051Y-100722816D01*
X83156231Y-100720500D01*
X83182878Y-100668205D01*
X83230852Y-100617409D01*
X83293362Y-100600500D01*
X89699903Y-100600500D01*
X89766942Y-100620185D01*
X89787584Y-100636819D01*
X91363181Y-102212416D01*
X91396666Y-102273739D01*
X91399500Y-102300097D01*
X91399500Y-115413330D01*
X91399499Y-115413348D01*
X91399499Y-115579054D01*
X91399498Y-115579054D01*
X91440423Y-115731787D01*
X91449679Y-115747817D01*
X91449678Y-115747817D01*
X91449680Y-115747819D01*
X91519475Y-115868709D01*
X91519481Y-115868717D01*
X91638349Y-115987585D01*
X91638354Y-115987589D01*
X92631284Y-116980520D01*
X92631286Y-116980521D01*
X92631290Y-116980524D01*
X92768209Y-117059573D01*
X92768216Y-117059577D01*
X92920943Y-117100501D01*
X92920945Y-117100501D01*
X93086654Y-117100501D01*
X93086670Y-117100500D01*
X94199903Y-117100500D01*
X94229343Y-117109144D01*
X94259330Y-117115668D01*
X94264345Y-117119422D01*
X94266942Y-117120185D01*
X94287584Y-117136819D01*
X94363181Y-117212416D01*
X94396666Y-117273739D01*
X94399500Y-117300097D01*
X94399500Y-121413330D01*
X94399499Y-121413348D01*
X94399499Y-121579054D01*
X94399498Y-121579054D01*
X94440423Y-121731785D01*
X94458365Y-121762861D01*
X94458364Y-121762861D01*
X94458365Y-121762862D01*
X94519475Y-121868709D01*
X94519481Y-121868717D01*
X94638349Y-121987585D01*
X94638355Y-121987590D01*
X95555139Y-122904374D01*
X95555149Y-122904385D01*
X95559479Y-122908715D01*
X95559480Y-122908716D01*
X95671284Y-123020520D01*
X95736917Y-123058412D01*
X95758095Y-123070639D01*
X95758097Y-123070641D01*
X95796151Y-123092611D01*
X95808215Y-123099577D01*
X95960943Y-123140500D01*
X96314281Y-123140500D01*
X96381320Y-123160185D01*
X96424765Y-123208205D01*
X96444947Y-123247814D01*
X96444948Y-123247815D01*
X96569890Y-123419786D01*
X96720213Y-123570109D01*
X96892182Y-123695050D01*
X96900946Y-123699516D01*
X96951742Y-123747491D01*
X96968536Y-123815312D01*
X96945998Y-123881447D01*
X96900946Y-123920484D01*
X96892182Y-123924949D01*
X96720213Y-124049890D01*
X96569890Y-124200213D01*
X96444951Y-124372179D01*
X96348445Y-124561582D01*
X96348443Y-124561587D01*
X96348443Y-124561588D01*
X96342429Y-124580094D01*
X96302992Y-124637768D01*
X96238633Y-124664965D01*
X96169787Y-124653050D01*
X96118312Y-124605805D01*
X96100500Y-124541773D01*
X96100500Y-124420945D01*
X96100500Y-124420943D01*
X96059577Y-124268216D01*
X96020313Y-124200208D01*
X95980524Y-124131290D01*
X95980518Y-124131282D01*
X95868717Y-124019481D01*
X95868709Y-124019475D01*
X95731790Y-123940426D01*
X95731786Y-123940424D01*
X95731784Y-123940423D01*
X95579057Y-123899500D01*
X95579056Y-123899500D01*
X91800098Y-123899500D01*
X91733059Y-123879815D01*
X91712417Y-123863181D01*
X91136819Y-123287583D01*
X91103334Y-123226260D01*
X91100500Y-123199902D01*
X91100500Y-115420945D01*
X91100500Y-115420943D01*
X91060534Y-115271785D01*
X91059577Y-115268215D01*
X91049790Y-115251264D01*
X91030639Y-115218094D01*
X91030637Y-115218092D01*
X90980520Y-115131284D01*
X90868716Y-115019480D01*
X90868715Y-115019479D01*
X90864385Y-115015149D01*
X90864374Y-115015139D01*
X90527590Y-114678355D01*
X90527588Y-114678352D01*
X90408717Y-114559481D01*
X90408716Y-114559480D01*
X90321904Y-114509360D01*
X90321904Y-114509359D01*
X90321900Y-114509358D01*
X90271785Y-114480423D01*
X90119057Y-114439499D01*
X89960943Y-114439499D01*
X89953347Y-114439499D01*
X89953331Y-114439500D01*
X83285719Y-114439500D01*
X83218680Y-114419815D01*
X83175235Y-114371795D01*
X83155052Y-114332185D01*
X83155051Y-114332184D01*
X83030109Y-114160213D01*
X82916569Y-114046673D01*
X82883084Y-113985350D01*
X82888068Y-113915658D01*
X82929940Y-113859725D01*
X82960915Y-113842810D01*
X83092331Y-113793796D01*
X83207546Y-113707546D01*
X83293796Y-113592331D01*
X83344091Y-113457483D01*
X83350500Y-113397873D01*
X83350499Y-111602128D01*
X83344091Y-111542517D01*
X83293796Y-111407669D01*
X83293795Y-111407668D01*
X83293793Y-111407664D01*
X83207547Y-111292455D01*
X83207544Y-111292452D01*
X83092335Y-111206206D01*
X83092328Y-111206202D01*
X82957482Y-111155908D01*
X82957483Y-111155908D01*
X82897883Y-111149501D01*
X82897881Y-111149500D01*
X82897873Y-111149500D01*
X82897864Y-111149500D01*
X81102129Y-111149500D01*
X81102123Y-111149501D01*
X81042516Y-111155908D01*
X80907671Y-111206202D01*
X80907664Y-111206206D01*
X80792455Y-111292452D01*
X80792452Y-111292455D01*
X80706206Y-111407664D01*
X80706202Y-111407671D01*
X80655908Y-111542517D01*
X80649501Y-111602116D01*
X80649501Y-111602123D01*
X80649500Y-111602135D01*
X80649500Y-113397870D01*
X80649501Y-113397876D01*
X80655908Y-113457483D01*
X80706202Y-113592328D01*
X80706206Y-113592335D01*
X80792452Y-113707544D01*
X80792455Y-113707547D01*
X80907664Y-113793793D01*
X80907671Y-113793797D01*
X81039082Y-113842810D01*
X81095016Y-113884681D01*
X81119433Y-113950145D01*
X81104582Y-114018418D01*
X81083431Y-114046673D01*
X80969889Y-114160215D01*
X80844951Y-114332179D01*
X80748444Y-114521585D01*
X80682753Y-114723760D01*
X80649500Y-114933713D01*
X80649500Y-115146286D01*
X80668811Y-115268215D01*
X80682754Y-115356243D01*
X80703776Y-115420943D01*
X80748444Y-115558414D01*
X80844951Y-115747820D01*
X80969890Y-115919786D01*
X81120213Y-116070109D01*
X81292179Y-116195048D01*
X81292181Y-116195049D01*
X81292184Y-116195051D01*
X81301493Y-116199794D01*
X81352290Y-116247766D01*
X81369087Y-116315587D01*
X81346552Y-116381722D01*
X81301505Y-116420760D01*
X81292446Y-116425376D01*
X81292440Y-116425380D01*
X81238282Y-116464727D01*
X81238282Y-116464728D01*
X81870591Y-117097037D01*
X81807007Y-117114075D01*
X81692993Y-117179901D01*
X81599901Y-117272993D01*
X81534075Y-117387007D01*
X81517037Y-117450591D01*
X80884728Y-116818282D01*
X80884727Y-116818282D01*
X80845380Y-116872439D01*
X80748904Y-117061782D01*
X80683242Y-117263869D01*
X80683242Y-117263872D01*
X80650000Y-117473753D01*
X80650000Y-117686246D01*
X80683242Y-117896127D01*
X80683242Y-117896130D01*
X80748904Y-118098217D01*
X80845375Y-118287550D01*
X80884728Y-118341716D01*
X81517037Y-117709408D01*
X81534075Y-117772993D01*
X81599901Y-117887007D01*
X81692993Y-117980099D01*
X81807007Y-118045925D01*
X81870590Y-118062962D01*
X81238282Y-118695269D01*
X81238282Y-118695270D01*
X81292449Y-118734624D01*
X81481782Y-118831095D01*
X81683870Y-118896757D01*
X81893754Y-118930000D01*
X82106246Y-118930000D01*
X82316127Y-118896757D01*
X82316130Y-118896757D01*
X82518217Y-118831095D01*
X82707554Y-118734622D01*
X82761716Y-118695270D01*
X82761717Y-118695270D01*
X82129408Y-118062962D01*
X82192993Y-118045925D01*
X82307007Y-117980099D01*
X82400099Y-117887007D01*
X82465925Y-117772993D01*
X82482962Y-117709408D01*
X83115270Y-118341717D01*
X83115270Y-118341716D01*
X83154622Y-118287554D01*
X83251095Y-118098217D01*
X83316757Y-117896130D01*
X83316757Y-117896127D01*
X83350000Y-117686246D01*
X83350000Y-117473753D01*
X83316757Y-117263872D01*
X83316757Y-117263869D01*
X83251095Y-117061782D01*
X83154624Y-116872449D01*
X83115270Y-116818282D01*
X83115269Y-116818282D01*
X82482962Y-117450590D01*
X82465925Y-117387007D01*
X82400099Y-117272993D01*
X82307007Y-117179901D01*
X82192993Y-117114075D01*
X82129409Y-117097037D01*
X82761716Y-116464728D01*
X82707547Y-116425373D01*
X82707547Y-116425372D01*
X82698500Y-116420763D01*
X82647706Y-116372788D01*
X82630912Y-116304966D01*
X82653451Y-116238832D01*
X82698508Y-116199793D01*
X82707816Y-116195051D01*
X82795584Y-116131284D01*
X82879786Y-116070109D01*
X82879788Y-116070106D01*
X82879792Y-116070104D01*
X83030104Y-115919792D01*
X83030106Y-115919788D01*
X83030109Y-115919786D01*
X83117067Y-115800097D01*
X83155051Y-115747816D01*
X83155349Y-115747230D01*
X83175235Y-115708205D01*
X83223209Y-115657409D01*
X83285719Y-115640500D01*
X89739903Y-115640500D01*
X89769343Y-115649144D01*
X89799330Y-115655668D01*
X89804345Y-115659422D01*
X89806942Y-115660185D01*
X89827584Y-115676819D01*
X89863181Y-115712416D01*
X89896666Y-115773739D01*
X89899500Y-115800097D01*
X89899500Y-123413330D01*
X89899499Y-123413348D01*
X89899499Y-123579054D01*
X89899498Y-123579054D01*
X89899499Y-123579057D01*
X89940423Y-123731785D01*
X89949491Y-123747491D01*
X89950651Y-123749500D01*
X90019477Y-123868712D01*
X90019481Y-123868717D01*
X90138349Y-123987585D01*
X90138354Y-123987589D01*
X91131284Y-124980520D01*
X91131286Y-124980521D01*
X91131290Y-124980524D01*
X91268209Y-125059573D01*
X91268216Y-125059577D01*
X91420943Y-125100501D01*
X91420945Y-125100501D01*
X91586654Y-125100501D01*
X91586670Y-125100500D01*
X94775500Y-125100500D01*
X94842539Y-125120185D01*
X94888294Y-125172989D01*
X94899500Y-125224500D01*
X94899500Y-129413330D01*
X94899499Y-129413348D01*
X94899499Y-129579054D01*
X94899498Y-129579054D01*
X94940423Y-129731785D01*
X94969358Y-129781900D01*
X94969359Y-129781904D01*
X94969360Y-129781904D01*
X95019479Y-129868714D01*
X95019481Y-129868717D01*
X95138349Y-129987585D01*
X95138355Y-129987590D01*
X95675139Y-130524374D01*
X95675149Y-130524385D01*
X95679479Y-130528715D01*
X95679480Y-130528716D01*
X95791284Y-130640520D01*
X95856917Y-130678412D01*
X95878095Y-130690639D01*
X95878097Y-130690641D01*
X95907379Y-130707547D01*
X95928215Y-130719577D01*
X96080943Y-130760501D01*
X96080946Y-130760501D01*
X96246653Y-130760501D01*
X96246669Y-130760500D01*
X96314281Y-130760500D01*
X96381320Y-130780185D01*
X96424765Y-130828205D01*
X96444947Y-130867814D01*
X96444948Y-130867815D01*
X96569890Y-131039786D01*
X96720213Y-131190109D01*
X96892182Y-131315050D01*
X96900946Y-131319516D01*
X96951742Y-131367491D01*
X96968536Y-131435312D01*
X96945998Y-131501447D01*
X96900946Y-131540484D01*
X96892182Y-131544949D01*
X96720213Y-131669890D01*
X96569890Y-131820213D01*
X96444951Y-131992179D01*
X96348444Y-132181585D01*
X96282753Y-132383760D01*
X96276864Y-132420943D01*
X96249500Y-132593713D01*
X96249500Y-132806287D01*
X96282754Y-133016243D01*
X96303094Y-133078844D01*
X96348444Y-133218414D01*
X96444951Y-133407820D01*
X96569890Y-133579786D01*
X96720213Y-133730109D01*
X96892182Y-133855050D01*
X96900946Y-133859516D01*
X96951742Y-133907491D01*
X96968536Y-133975312D01*
X96945998Y-134041447D01*
X96900946Y-134080484D01*
X96892182Y-134084949D01*
X96720213Y-134209890D01*
X96569890Y-134360213D01*
X96444951Y-134532179D01*
X96348444Y-134721585D01*
X96282753Y-134923760D01*
X96249500Y-135133713D01*
X96249500Y-135346286D01*
X96282753Y-135556239D01*
X96348444Y-135758414D01*
X96444951Y-135947820D01*
X96569890Y-136119786D01*
X96720213Y-136270109D01*
X96892182Y-136395050D01*
X96900946Y-136399516D01*
X96951742Y-136447491D01*
X96968536Y-136515312D01*
X96945998Y-136581447D01*
X96900946Y-136620484D01*
X96892182Y-136624949D01*
X96720213Y-136749890D01*
X96569890Y-136900213D01*
X96444951Y-137072179D01*
X96348444Y-137261585D01*
X96282753Y-137463760D01*
X96249500Y-137673713D01*
X96249500Y-137886286D01*
X96282753Y-138096239D01*
X96348444Y-138298414D01*
X96444951Y-138487820D01*
X96569890Y-138659786D01*
X96720213Y-138810109D01*
X96892182Y-138935050D01*
X96900946Y-138939516D01*
X96951742Y-138987491D01*
X96968536Y-139055312D01*
X96945998Y-139121447D01*
X96900946Y-139160484D01*
X96892182Y-139164949D01*
X96720213Y-139289890D01*
X96569890Y-139440213D01*
X96444951Y-139612179D01*
X96348444Y-139801585D01*
X96282753Y-140003760D01*
X96249500Y-140213713D01*
X96249500Y-140426286D01*
X96265519Y-140527430D01*
X96282754Y-140636243D01*
X96296484Y-140678500D01*
X96348444Y-140838414D01*
X96444951Y-141027820D01*
X96569890Y-141199786D01*
X96720213Y-141350109D01*
X96892182Y-141475050D01*
X96900946Y-141479516D01*
X96951742Y-141527491D01*
X96968536Y-141595312D01*
X96945998Y-141661447D01*
X96900946Y-141700484D01*
X96892182Y-141704949D01*
X96720213Y-141829890D01*
X96569890Y-141980213D01*
X96444951Y-142152179D01*
X96348444Y-142341585D01*
X96282753Y-142543760D01*
X96249500Y-142753713D01*
X96249500Y-142966286D01*
X96282753Y-143176239D01*
X96348444Y-143378414D01*
X96444951Y-143567820D01*
X96569890Y-143739786D01*
X96720213Y-143890109D01*
X96892182Y-144015050D01*
X96900946Y-144019516D01*
X96951742Y-144067491D01*
X96968536Y-144135312D01*
X96945998Y-144201447D01*
X96900946Y-144240484D01*
X96892182Y-144244949D01*
X96720213Y-144369890D01*
X96569890Y-144520213D01*
X96444951Y-144692179D01*
X96348444Y-144881585D01*
X96282753Y-145083760D01*
X96249500Y-145293713D01*
X96249500Y-145506286D01*
X96281233Y-145706645D01*
X96282754Y-145716243D01*
X96345029Y-145907906D01*
X96348444Y-145918414D01*
X96444951Y-146107820D01*
X96569890Y-146279786D01*
X96720213Y-146430109D01*
X96892182Y-146555050D01*
X96900946Y-146559516D01*
X96951742Y-146607491D01*
X96968536Y-146675312D01*
X96945998Y-146741447D01*
X96900946Y-146780484D01*
X96892182Y-146784949D01*
X96720213Y-146909890D01*
X96569890Y-147060213D01*
X96444951Y-147232179D01*
X96348444Y-147421585D01*
X96282753Y-147623760D01*
X96249500Y-147833713D01*
X96249500Y-148046286D01*
X96274984Y-148207190D01*
X96282754Y-148256243D01*
X96313217Y-148349999D01*
X96348444Y-148458414D01*
X96444951Y-148647820D01*
X96569890Y-148819786D01*
X96720213Y-148970109D01*
X96892182Y-149095050D01*
X96900946Y-149099516D01*
X96951742Y-149147491D01*
X96968536Y-149215312D01*
X96945998Y-149281447D01*
X96900946Y-149320484D01*
X96892182Y-149324949D01*
X96720213Y-149449890D01*
X96569890Y-149600213D01*
X96444951Y-149772179D01*
X96348444Y-149961585D01*
X96282753Y-150163760D01*
X96249500Y-150373713D01*
X96249500Y-150586287D01*
X96282754Y-150796243D01*
X96308253Y-150874722D01*
X96348444Y-150998414D01*
X96444951Y-151187820D01*
X96569890Y-151359786D01*
X96720213Y-151510109D01*
X96892179Y-151635048D01*
X96892181Y-151635049D01*
X96892184Y-151635051D01*
X96901493Y-151639794D01*
X96952290Y-151687766D01*
X96969087Y-151755587D01*
X96946552Y-151821722D01*
X96901505Y-151860760D01*
X96892446Y-151865376D01*
X96892440Y-151865380D01*
X96838282Y-151904727D01*
X96838282Y-151904728D01*
X97470591Y-152537037D01*
X97407007Y-152554075D01*
X97292993Y-152619901D01*
X97199901Y-152712993D01*
X97134075Y-152827007D01*
X97117037Y-152890591D01*
X96484728Y-152258282D01*
X96484727Y-152258282D01*
X96445380Y-152312439D01*
X96348904Y-152501782D01*
X96283242Y-152703869D01*
X96283242Y-152703872D01*
X96250000Y-152913753D01*
X96250000Y-153126246D01*
X96283242Y-153336127D01*
X96283242Y-153336130D01*
X96348904Y-153538217D01*
X96445375Y-153727550D01*
X96484728Y-153781716D01*
X97117037Y-153149408D01*
X97134075Y-153212993D01*
X97199901Y-153327007D01*
X97292993Y-153420099D01*
X97407007Y-153485925D01*
X97470590Y-153502962D01*
X96838282Y-154135269D01*
X96838282Y-154135270D01*
X96892452Y-154174626D01*
X96892451Y-154174626D01*
X96901495Y-154179234D01*
X96952292Y-154227208D01*
X96969087Y-154295029D01*
X96946550Y-154361164D01*
X96901499Y-154400202D01*
X96892182Y-154404949D01*
X96720213Y-154529890D01*
X96569890Y-154680213D01*
X96444951Y-154852179D01*
X96348444Y-155041585D01*
X96282753Y-155243760D01*
X96249500Y-155453713D01*
X96249500Y-155666286D01*
X96282753Y-155876239D01*
X96348444Y-156078414D01*
X96444951Y-156267820D01*
X96569890Y-156439786D01*
X96720213Y-156590109D01*
X96892179Y-156715048D01*
X96892181Y-156715049D01*
X96892184Y-156715051D01*
X97081588Y-156811557D01*
X97283757Y-156877246D01*
X97493713Y-156910500D01*
X97493714Y-156910500D01*
X97706286Y-156910500D01*
X97706287Y-156910500D01*
X97916243Y-156877246D01*
X98118412Y-156811557D01*
X98307816Y-156715051D01*
X98329789Y-156699086D01*
X98479786Y-156590109D01*
X98479788Y-156590106D01*
X98479792Y-156590104D01*
X98630104Y-156439792D01*
X98630106Y-156439788D01*
X98630109Y-156439786D01*
X98755048Y-156267820D01*
X98755047Y-156267820D01*
X98755051Y-156267816D01*
X98851557Y-156078412D01*
X98917246Y-155876243D01*
X98950500Y-155666287D01*
X98950500Y-155453713D01*
X98917246Y-155243757D01*
X98851557Y-155041588D01*
X98755051Y-154852184D01*
X98755049Y-154852181D01*
X98755048Y-154852179D01*
X98630109Y-154680213D01*
X98479786Y-154529890D01*
X98307817Y-154404949D01*
X98298504Y-154400204D01*
X98247707Y-154352230D01*
X98230912Y-154284409D01*
X98253449Y-154218274D01*
X98298507Y-154179232D01*
X98307555Y-154174622D01*
X98361716Y-154135270D01*
X98361717Y-154135270D01*
X97729408Y-153502962D01*
X97792993Y-153485925D01*
X97907007Y-153420099D01*
X98000099Y-153327007D01*
X98065925Y-153212993D01*
X98082962Y-153149409D01*
X98715270Y-153781717D01*
X98715270Y-153781716D01*
X98754622Y-153727554D01*
X98851095Y-153538217D01*
X98916757Y-153336130D01*
X98916757Y-153336127D01*
X98950000Y-153126246D01*
X98950000Y-152913753D01*
X98916757Y-152703872D01*
X98916757Y-152703869D01*
X98851095Y-152501782D01*
X98754624Y-152312449D01*
X98715270Y-152258282D01*
X98715269Y-152258282D01*
X98082962Y-152890590D01*
X98065925Y-152827007D01*
X98000099Y-152712993D01*
X97907007Y-152619901D01*
X97792993Y-152554075D01*
X97729409Y-152537037D01*
X98361716Y-151904728D01*
X98307547Y-151865373D01*
X98307547Y-151865372D01*
X98298500Y-151860763D01*
X98247706Y-151812788D01*
X98230912Y-151744966D01*
X98253451Y-151678832D01*
X98298508Y-151639793D01*
X98307816Y-151635051D01*
X98387007Y-151577515D01*
X98479786Y-151510109D01*
X98479788Y-151510106D01*
X98479792Y-151510104D01*
X98630104Y-151359792D01*
X98630106Y-151359788D01*
X98630109Y-151359786D01*
X98755048Y-151187820D01*
X98755047Y-151187820D01*
X98755051Y-151187816D01*
X98851557Y-150998412D01*
X98917246Y-150796243D01*
X98950500Y-150586287D01*
X98950500Y-150373713D01*
X98917246Y-150163757D01*
X98851557Y-149961588D01*
X98755051Y-149772184D01*
X98755049Y-149772181D01*
X98755048Y-149772179D01*
X98630109Y-149600213D01*
X98479786Y-149449890D01*
X98307820Y-149324951D01*
X98307115Y-149324591D01*
X98299054Y-149320485D01*
X98248259Y-149272512D01*
X98231463Y-149204692D01*
X98253999Y-149138556D01*
X98299054Y-149099515D01*
X98307816Y-149095051D01*
X98329789Y-149079086D01*
X98479786Y-148970109D01*
X98479788Y-148970106D01*
X98479792Y-148970104D01*
X98630104Y-148819792D01*
X98630106Y-148819788D01*
X98630109Y-148819786D01*
X98755048Y-148647820D01*
X98755047Y-148647820D01*
X98755051Y-148647816D01*
X98851557Y-148458412D01*
X98917246Y-148256243D01*
X98950500Y-148046287D01*
X98950500Y-147833713D01*
X98917246Y-147623757D01*
X98851557Y-147421588D01*
X98755051Y-147232184D01*
X98755049Y-147232181D01*
X98755048Y-147232179D01*
X98630109Y-147060213D01*
X98479786Y-146909890D01*
X98307820Y-146784951D01*
X98307115Y-146784591D01*
X98299054Y-146780485D01*
X98248259Y-146732512D01*
X98231463Y-146664692D01*
X98253999Y-146598556D01*
X98299054Y-146559515D01*
X98307816Y-146555051D01*
X98383588Y-146500000D01*
X98479786Y-146430109D01*
X98479788Y-146430106D01*
X98479792Y-146430104D01*
X98630104Y-146279792D01*
X98630106Y-146279788D01*
X98630109Y-146279786D01*
X98755048Y-146107820D01*
X98755047Y-146107820D01*
X98755051Y-146107816D01*
X98851557Y-145918412D01*
X98917246Y-145716243D01*
X98950500Y-145506287D01*
X98950500Y-145293713D01*
X98917246Y-145083757D01*
X98851557Y-144881588D01*
X98755051Y-144692184D01*
X98755049Y-144692181D01*
X98755048Y-144692179D01*
X98630109Y-144520213D01*
X98479786Y-144369890D01*
X98307820Y-144244951D01*
X98307115Y-144244591D01*
X98299054Y-144240485D01*
X98248259Y-144192512D01*
X98231463Y-144124692D01*
X98253999Y-144058556D01*
X98299054Y-144019515D01*
X98307816Y-144015051D01*
X98329789Y-143999086D01*
X98479786Y-143890109D01*
X98479788Y-143890106D01*
X98479792Y-143890104D01*
X98630104Y-143739792D01*
X98630106Y-143739788D01*
X98630109Y-143739786D01*
X98755048Y-143567820D01*
X98755047Y-143567820D01*
X98755051Y-143567816D01*
X98851557Y-143378412D01*
X98917246Y-143176243D01*
X98950500Y-142966287D01*
X98950500Y-142753713D01*
X98917246Y-142543757D01*
X98851557Y-142341588D01*
X98755051Y-142152184D01*
X98755049Y-142152181D01*
X98755048Y-142152179D01*
X98630109Y-141980213D01*
X98479786Y-141829890D01*
X98307820Y-141704951D01*
X98307115Y-141704591D01*
X98299054Y-141700485D01*
X98248259Y-141652512D01*
X98231463Y-141584692D01*
X98253999Y-141518556D01*
X98299054Y-141479515D01*
X98307816Y-141475051D01*
X98329789Y-141459086D01*
X98479786Y-141350109D01*
X98479788Y-141350106D01*
X98479792Y-141350104D01*
X98630104Y-141199792D01*
X98630106Y-141199788D01*
X98630109Y-141199786D01*
X98755048Y-141027820D01*
X98755047Y-141027820D01*
X98755051Y-141027816D01*
X98851557Y-140838412D01*
X98917246Y-140636243D01*
X98950500Y-140426287D01*
X98950500Y-140213713D01*
X98917246Y-140003757D01*
X98851557Y-139801588D01*
X98755051Y-139612184D01*
X98755049Y-139612181D01*
X98755048Y-139612179D01*
X98630109Y-139440213D01*
X98479786Y-139289890D01*
X98307820Y-139164951D01*
X98307115Y-139164591D01*
X98299054Y-139160485D01*
X98248259Y-139112512D01*
X98231463Y-139044692D01*
X98253999Y-138978556D01*
X98299054Y-138939515D01*
X98307816Y-138935051D01*
X98329789Y-138919086D01*
X98479786Y-138810109D01*
X98479788Y-138810106D01*
X98479792Y-138810104D01*
X98630104Y-138659792D01*
X98630106Y-138659788D01*
X98630109Y-138659786D01*
X98755048Y-138487820D01*
X98755047Y-138487820D01*
X98755051Y-138487816D01*
X98851557Y-138298412D01*
X98917246Y-138096243D01*
X98950500Y-137886287D01*
X98950500Y-137673713D01*
X98917246Y-137463757D01*
X98851557Y-137261588D01*
X98755051Y-137072184D01*
X98755049Y-137072181D01*
X98755048Y-137072179D01*
X98630109Y-136900213D01*
X98479786Y-136749890D01*
X98307820Y-136624951D01*
X98307115Y-136624591D01*
X98299054Y-136620485D01*
X98248259Y-136572512D01*
X98231463Y-136504692D01*
X98253999Y-136438556D01*
X98299054Y-136399515D01*
X98307816Y-136395051D01*
X98329789Y-136379086D01*
X98479786Y-136270109D01*
X98479788Y-136270106D01*
X98479792Y-136270104D01*
X98630104Y-136119792D01*
X98630106Y-136119788D01*
X98630109Y-136119786D01*
X98755048Y-135947820D01*
X98755047Y-135947820D01*
X98755051Y-135947816D01*
X98851557Y-135758412D01*
X98917246Y-135556243D01*
X98950500Y-135346287D01*
X98950500Y-135133713D01*
X98917246Y-134923757D01*
X98851557Y-134721588D01*
X98755051Y-134532184D01*
X98755049Y-134532181D01*
X98755048Y-134532179D01*
X98630109Y-134360213D01*
X98479786Y-134209890D01*
X98307820Y-134084951D01*
X98307115Y-134084591D01*
X98299054Y-134080485D01*
X98248259Y-134032512D01*
X98231463Y-133964692D01*
X98253999Y-133898556D01*
X98299054Y-133859515D01*
X98307816Y-133855051D01*
X98382901Y-133800499D01*
X98479786Y-133730109D01*
X98479788Y-133730106D01*
X98479792Y-133730104D01*
X98630104Y-133579792D01*
X98630106Y-133579788D01*
X98630109Y-133579786D01*
X98755048Y-133407820D01*
X98755047Y-133407820D01*
X98755051Y-133407816D01*
X98851557Y-133218412D01*
X98917246Y-133016243D01*
X98950500Y-132806287D01*
X98950500Y-132593713D01*
X98917246Y-132383757D01*
X98851557Y-132181588D01*
X98755051Y-131992184D01*
X98755049Y-131992181D01*
X98755048Y-131992179D01*
X98630109Y-131820213D01*
X98479786Y-131669890D01*
X98307820Y-131544951D01*
X98307115Y-131544591D01*
X98299054Y-131540485D01*
X98248259Y-131492512D01*
X98231463Y-131424692D01*
X98253999Y-131358556D01*
X98299054Y-131319515D01*
X98307816Y-131315051D01*
X98329789Y-131299086D01*
X98479786Y-131190109D01*
X98479788Y-131190106D01*
X98479792Y-131190104D01*
X98630104Y-131039792D01*
X98630106Y-131039788D01*
X98630109Y-131039786D01*
X98755048Y-130867820D01*
X98755047Y-130867820D01*
X98755051Y-130867816D01*
X98851557Y-130678412D01*
X98917246Y-130476243D01*
X98950500Y-130266287D01*
X98950500Y-130053713D01*
X98917246Y-129843757D01*
X98851557Y-129641588D01*
X98755051Y-129452184D01*
X98755049Y-129452181D01*
X98755048Y-129452179D01*
X98630109Y-129280213D01*
X98479786Y-129129890D01*
X98307820Y-129004951D01*
X98307115Y-129004591D01*
X98299054Y-129000485D01*
X98248259Y-128952512D01*
X98231463Y-128884692D01*
X98253999Y-128818556D01*
X98299054Y-128779515D01*
X98307816Y-128775051D01*
X98329789Y-128759086D01*
X98479786Y-128650109D01*
X98479788Y-128650106D01*
X98479792Y-128650104D01*
X98630104Y-128499792D01*
X98630106Y-128499788D01*
X98630109Y-128499786D01*
X98755048Y-128327820D01*
X98755047Y-128327820D01*
X98755051Y-128327816D01*
X98851557Y-128138412D01*
X98917246Y-127936243D01*
X98950500Y-127726287D01*
X98950500Y-127513713D01*
X98917246Y-127303757D01*
X98851557Y-127101588D01*
X98755051Y-126912184D01*
X98755049Y-126912181D01*
X98755048Y-126912179D01*
X98630109Y-126740213D01*
X98479786Y-126589890D01*
X98307820Y-126464951D01*
X98307115Y-126464591D01*
X98299054Y-126460485D01*
X98248259Y-126412512D01*
X98231463Y-126344692D01*
X98253999Y-126278556D01*
X98299054Y-126239515D01*
X98307816Y-126235051D01*
X98329789Y-126219086D01*
X98479786Y-126110109D01*
X98479788Y-126110106D01*
X98479792Y-126110104D01*
X98630104Y-125959792D01*
X98630106Y-125959788D01*
X98630109Y-125959786D01*
X98755048Y-125787820D01*
X98755047Y-125787820D01*
X98755051Y-125787816D01*
X98851557Y-125598412D01*
X98917246Y-125396243D01*
X98950500Y-125186287D01*
X98950500Y-124973713D01*
X98917246Y-124763757D01*
X98851557Y-124561588D01*
X98755051Y-124372184D01*
X98755049Y-124372181D01*
X98755048Y-124372179D01*
X98630109Y-124200213D01*
X98479786Y-124049890D01*
X98307820Y-123924951D01*
X98307115Y-123924591D01*
X98299054Y-123920485D01*
X98248259Y-123872512D01*
X98231463Y-123804692D01*
X98253999Y-123738556D01*
X98299054Y-123699515D01*
X98307816Y-123695051D01*
X98329789Y-123679086D01*
X98479786Y-123570109D01*
X98479788Y-123570106D01*
X98479792Y-123570104D01*
X98630104Y-123419792D01*
X98630106Y-123419788D01*
X98630109Y-123419786D01*
X98755048Y-123247820D01*
X98755047Y-123247820D01*
X98755051Y-123247816D01*
X98851557Y-123058412D01*
X98917246Y-122856243D01*
X98950500Y-122646287D01*
X98950500Y-122433713D01*
X98917246Y-122223757D01*
X98851557Y-122021588D01*
X98755051Y-121832184D01*
X98755049Y-121832181D01*
X98755048Y-121832179D01*
X98630109Y-121660213D01*
X98516569Y-121546673D01*
X98483084Y-121485350D01*
X98488068Y-121415658D01*
X98529940Y-121359725D01*
X98560915Y-121342810D01*
X98692331Y-121293796D01*
X98807546Y-121207546D01*
X98893796Y-121092331D01*
X98944091Y-120957483D01*
X98950500Y-120897873D01*
X98950499Y-119102128D01*
X98944091Y-119042517D01*
X98893796Y-118907669D01*
X98893795Y-118907668D01*
X98893793Y-118907664D01*
X98807547Y-118792455D01*
X98807544Y-118792452D01*
X98692335Y-118706206D01*
X98692328Y-118706202D01*
X98557482Y-118655908D01*
X98557483Y-118655908D01*
X98497883Y-118649501D01*
X98497881Y-118649500D01*
X98497873Y-118649500D01*
X98497864Y-118649500D01*
X96702129Y-118649500D01*
X96702123Y-118649501D01*
X96642516Y-118655908D01*
X96507671Y-118706202D01*
X96507664Y-118706206D01*
X96392455Y-118792452D01*
X96392452Y-118792455D01*
X96306206Y-118907664D01*
X96306202Y-118907671D01*
X96255908Y-119042517D01*
X96249501Y-119102116D01*
X96249501Y-119102123D01*
X96249500Y-119102135D01*
X96249500Y-120897870D01*
X96249501Y-120897876D01*
X96255908Y-120957483D01*
X96306202Y-121092328D01*
X96306206Y-121092335D01*
X96392452Y-121207544D01*
X96392455Y-121207547D01*
X96507664Y-121293793D01*
X96507671Y-121293797D01*
X96639082Y-121342810D01*
X96695016Y-121384681D01*
X96719433Y-121450145D01*
X96704582Y-121518418D01*
X96683431Y-121546673D01*
X96569889Y-121660215D01*
X96444949Y-121832182D01*
X96433479Y-121854694D01*
X96385505Y-121905489D01*
X96317684Y-121922284D01*
X96251549Y-121899746D01*
X96235314Y-121886079D01*
X95636819Y-121287584D01*
X95603334Y-121226261D01*
X95600500Y-121199903D01*
X95600500Y-117089060D01*
X95600501Y-117089047D01*
X95600501Y-116920944D01*
X95600501Y-116920943D01*
X95559577Y-116768216D01*
X95559573Y-116768209D01*
X95480524Y-116631290D01*
X95480518Y-116631282D01*
X94868717Y-116019481D01*
X94868716Y-116019480D01*
X94781904Y-115969360D01*
X94781904Y-115969359D01*
X94781900Y-115969358D01*
X94731785Y-115940423D01*
X94579057Y-115899499D01*
X94420943Y-115899499D01*
X94413347Y-115899499D01*
X94413331Y-115899500D01*
X93300098Y-115899500D01*
X93233059Y-115879815D01*
X93212417Y-115863181D01*
X92636819Y-115287583D01*
X92603334Y-115226260D01*
X92600500Y-115199902D01*
X92600500Y-101920945D01*
X92600500Y-101920943D01*
X92570177Y-101807776D01*
X92565224Y-101789290D01*
X92565223Y-101789289D01*
X92561968Y-101777139D01*
X92559577Y-101768215D01*
X92524705Y-101707816D01*
X92522853Y-101704609D01*
X92522847Y-101704596D01*
X92480524Y-101631290D01*
X92480521Y-101631286D01*
X92480520Y-101631284D01*
X92368716Y-101519480D01*
X92368715Y-101519479D01*
X92364385Y-101515149D01*
X92364374Y-101515139D01*
X91742948Y-100893713D01*
X93149500Y-100893713D01*
X93149500Y-101106286D01*
X93176936Y-101279514D01*
X93182754Y-101316243D01*
X93244069Y-101504951D01*
X93248444Y-101518414D01*
X93344951Y-101707820D01*
X93469890Y-101879786D01*
X93620213Y-102030109D01*
X93792182Y-102155050D01*
X93800946Y-102159516D01*
X93851742Y-102207491D01*
X93868536Y-102275312D01*
X93845998Y-102341447D01*
X93800946Y-102380484D01*
X93792182Y-102384949D01*
X93620213Y-102509890D01*
X93469890Y-102660213D01*
X93344951Y-102832179D01*
X93248444Y-103021585D01*
X93182753Y-103223760D01*
X93149500Y-103433713D01*
X93149500Y-103646287D01*
X93153299Y-103670270D01*
X93176980Y-103819792D01*
X93182754Y-103856243D01*
X93244206Y-104045373D01*
X93248444Y-104058414D01*
X93344951Y-104247820D01*
X93469890Y-104419786D01*
X93583430Y-104533326D01*
X93616915Y-104594649D01*
X93611931Y-104664341D01*
X93570059Y-104720274D01*
X93539083Y-104737189D01*
X93407669Y-104786203D01*
X93407664Y-104786206D01*
X93292455Y-104872452D01*
X93292452Y-104872455D01*
X93206206Y-104987664D01*
X93206202Y-104987671D01*
X93155908Y-105122517D01*
X93149501Y-105182116D01*
X93149501Y-105182123D01*
X93149500Y-105182135D01*
X93149500Y-106977870D01*
X93149501Y-106977876D01*
X93155908Y-107037483D01*
X93206202Y-107172328D01*
X93206206Y-107172335D01*
X93292452Y-107287544D01*
X93292455Y-107287547D01*
X93407664Y-107373793D01*
X93407671Y-107373797D01*
X93542517Y-107424091D01*
X93542516Y-107424091D01*
X93549444Y-107424835D01*
X93602127Y-107430500D01*
X95397872Y-107430499D01*
X95457483Y-107424091D01*
X95592331Y-107373796D01*
X95707546Y-107287546D01*
X95793796Y-107172331D01*
X95844091Y-107037483D01*
X95850500Y-106977873D01*
X95850499Y-105182128D01*
X95844091Y-105122517D01*
X95839759Y-105110903D01*
X95793797Y-104987671D01*
X95793793Y-104987664D01*
X95707547Y-104872455D01*
X95707544Y-104872452D01*
X95592335Y-104786206D01*
X95592328Y-104786202D01*
X95460917Y-104737189D01*
X95404983Y-104695318D01*
X95380566Y-104629853D01*
X95395418Y-104561580D01*
X95416563Y-104533332D01*
X95530104Y-104419792D01*
X95655051Y-104247816D01*
X95751557Y-104058412D01*
X95817246Y-103856243D01*
X95850500Y-103646287D01*
X95850500Y-103433713D01*
X95817246Y-103223757D01*
X95751557Y-103021588D01*
X95655051Y-102832184D01*
X95655049Y-102832181D01*
X95655048Y-102832179D01*
X95530109Y-102660213D01*
X95379786Y-102509890D01*
X95207820Y-102384951D01*
X95207115Y-102384591D01*
X95199054Y-102380485D01*
X95148259Y-102332512D01*
X95131463Y-102264692D01*
X95153999Y-102198556D01*
X95199054Y-102159515D01*
X95207816Y-102155051D01*
X95298625Y-102089075D01*
X95379786Y-102030109D01*
X95379788Y-102030106D01*
X95379792Y-102030104D01*
X95530104Y-101879792D01*
X95530106Y-101879788D01*
X95530109Y-101879786D01*
X95655048Y-101707820D01*
X95655047Y-101707820D01*
X95655051Y-101707816D01*
X95751557Y-101518412D01*
X95817246Y-101316243D01*
X95850500Y-101106287D01*
X95850500Y-100893713D01*
X95817246Y-100683757D01*
X95751557Y-100481588D01*
X95655051Y-100292184D01*
X95655049Y-100292181D01*
X95655048Y-100292179D01*
X95530109Y-100120213D01*
X95379786Y-99969890D01*
X95207817Y-99844949D01*
X95198504Y-99840204D01*
X95147707Y-99792230D01*
X95130912Y-99724409D01*
X95153449Y-99658274D01*
X95198507Y-99619232D01*
X95207555Y-99614622D01*
X95261716Y-99575270D01*
X95261717Y-99575270D01*
X94629408Y-98942962D01*
X94692993Y-98925925D01*
X94807007Y-98860099D01*
X94900099Y-98767007D01*
X94965925Y-98652993D01*
X94982962Y-98589408D01*
X95615270Y-99221717D01*
X95615270Y-99221716D01*
X95654622Y-99167554D01*
X95751095Y-98978217D01*
X95816757Y-98776130D01*
X95816757Y-98776127D01*
X95850000Y-98566246D01*
X95850000Y-98353753D01*
X95816757Y-98143872D01*
X95816757Y-98143869D01*
X95751095Y-97941782D01*
X95654624Y-97752449D01*
X95615270Y-97698282D01*
X95615269Y-97698282D01*
X94982962Y-98330590D01*
X94965925Y-98267007D01*
X94900099Y-98152993D01*
X94807007Y-98059901D01*
X94692993Y-97994075D01*
X94629409Y-97977037D01*
X95261716Y-97344728D01*
X95207550Y-97305375D01*
X95018217Y-97208904D01*
X94816129Y-97143242D01*
X94606246Y-97110000D01*
X94393754Y-97110000D01*
X94183872Y-97143242D01*
X94183869Y-97143242D01*
X93981782Y-97208904D01*
X93792439Y-97305380D01*
X93738282Y-97344727D01*
X93738282Y-97344728D01*
X94370591Y-97977037D01*
X94307007Y-97994075D01*
X94192993Y-98059901D01*
X94099901Y-98152993D01*
X94034075Y-98267007D01*
X94017037Y-98330591D01*
X93384728Y-97698282D01*
X93384727Y-97698282D01*
X93345380Y-97752439D01*
X93248904Y-97941782D01*
X93183242Y-98143869D01*
X93183242Y-98143872D01*
X93150000Y-98353753D01*
X93150000Y-98566246D01*
X93183242Y-98776127D01*
X93183242Y-98776130D01*
X93248904Y-98978217D01*
X93345375Y-99167550D01*
X93384728Y-99221716D01*
X94017037Y-98589408D01*
X94034075Y-98652993D01*
X94099901Y-98767007D01*
X94192993Y-98860099D01*
X94307007Y-98925925D01*
X94370590Y-98942962D01*
X93738282Y-99575269D01*
X93738282Y-99575270D01*
X93792452Y-99614626D01*
X93792451Y-99614626D01*
X93801495Y-99619234D01*
X93852292Y-99667208D01*
X93869087Y-99735029D01*
X93846550Y-99801164D01*
X93801499Y-99840202D01*
X93792182Y-99844949D01*
X93620213Y-99969890D01*
X93469890Y-100120213D01*
X93344951Y-100292179D01*
X93248444Y-100481585D01*
X93182753Y-100683760D01*
X93149500Y-100893713D01*
X91742948Y-100893713D01*
X90487590Y-99638355D01*
X90487588Y-99638352D01*
X90368717Y-99519481D01*
X90368716Y-99519480D01*
X90281904Y-99469360D01*
X90281904Y-99469359D01*
X90281900Y-99469358D01*
X90231785Y-99440423D01*
X90079057Y-99399499D01*
X89920943Y-99399499D01*
X89913347Y-99399499D01*
X89913331Y-99399500D01*
X83278075Y-99399500D01*
X83211036Y-99379815D01*
X83167590Y-99331794D01*
X83155051Y-99307184D01*
X83154308Y-99306161D01*
X83030109Y-99135213D01*
X82916569Y-99021673D01*
X82883084Y-98960350D01*
X82888068Y-98890658D01*
X82929940Y-98834725D01*
X82960915Y-98817810D01*
X83092331Y-98768796D01*
X83207546Y-98682546D01*
X83293796Y-98567331D01*
X83344091Y-98432483D01*
X83350500Y-98372873D01*
X83350499Y-96577128D01*
X83344091Y-96517517D01*
X83309565Y-96424949D01*
X83293797Y-96382671D01*
X83293793Y-96382664D01*
X83207547Y-96267455D01*
X83207544Y-96267452D01*
X83092335Y-96181206D01*
X83092328Y-96181202D01*
X82957482Y-96130908D01*
X82957483Y-96130908D01*
X82897883Y-96124501D01*
X82897881Y-96124500D01*
X82897873Y-96124500D01*
X82897864Y-96124500D01*
X81102129Y-96124500D01*
X81102123Y-96124501D01*
X81042516Y-96130908D01*
X80907671Y-96181202D01*
X80907664Y-96181206D01*
X80792455Y-96267452D01*
X80792452Y-96267455D01*
X80706206Y-96382664D01*
X80706202Y-96382671D01*
X80655908Y-96517517D01*
X80649501Y-96577116D01*
X80649501Y-96577123D01*
X80649500Y-96577135D01*
X56250500Y-96577135D01*
X56250500Y-87602155D01*
X89650000Y-87602155D01*
X89650000Y-88250000D01*
X90566988Y-88250000D01*
X90534075Y-88307007D01*
X90500000Y-88434174D01*
X90500000Y-88565826D01*
X90534075Y-88692993D01*
X90566988Y-88750000D01*
X89650000Y-88750000D01*
X89650000Y-89397844D01*
X89656401Y-89457372D01*
X89656403Y-89457379D01*
X89706645Y-89592086D01*
X89706649Y-89592093D01*
X89792809Y-89707187D01*
X89792812Y-89707190D01*
X89907906Y-89793350D01*
X89907913Y-89793354D01*
X90042620Y-89843596D01*
X90042627Y-89843598D01*
X90102155Y-89849999D01*
X90102172Y-89850000D01*
X90750000Y-89850000D01*
X90750000Y-88933012D01*
X90807007Y-88965925D01*
X90934174Y-89000000D01*
X91065826Y-89000000D01*
X91192993Y-88965925D01*
X91250000Y-88933012D01*
X91250000Y-89850000D01*
X91897828Y-89850000D01*
X91897844Y-89849999D01*
X91957372Y-89843598D01*
X91957379Y-89843596D01*
X92092086Y-89793354D01*
X92092093Y-89793350D01*
X92207187Y-89707190D01*
X92207190Y-89707187D01*
X92293350Y-89592093D01*
X92293354Y-89592086D01*
X92343596Y-89457379D01*
X92343598Y-89457372D01*
X92349999Y-89397844D01*
X92350000Y-89397827D01*
X92350000Y-88750000D01*
X91433012Y-88750000D01*
X91465925Y-88692993D01*
X91500000Y-88565826D01*
X91500000Y-88434174D01*
X91465925Y-88307007D01*
X91433012Y-88250000D01*
X92350000Y-88250000D01*
X92350000Y-87602172D01*
X92349999Y-87602155D01*
X92343598Y-87542627D01*
X92343596Y-87542620D01*
X92293354Y-87407913D01*
X92293350Y-87407906D01*
X92207190Y-87292812D01*
X92207187Y-87292809D01*
X92092093Y-87206649D01*
X92092086Y-87206645D01*
X91957379Y-87156403D01*
X91957372Y-87156401D01*
X91897844Y-87150000D01*
X91250000Y-87150000D01*
X91250000Y-88066988D01*
X91192993Y-88034075D01*
X91065826Y-88000000D01*
X90934174Y-88000000D01*
X90807007Y-88034075D01*
X90750000Y-88066988D01*
X90750000Y-87150000D01*
X90102155Y-87150000D01*
X90042627Y-87156401D01*
X90042620Y-87156403D01*
X89907913Y-87206645D01*
X89907906Y-87206649D01*
X89792812Y-87292809D01*
X89792809Y-87292812D01*
X89706649Y-87407906D01*
X89706645Y-87407913D01*
X89656403Y-87542620D01*
X89656401Y-87542627D01*
X89650000Y-87602155D01*
X56250500Y-87602155D01*
X56250500Y-76602135D01*
X97649500Y-76602135D01*
X97649500Y-78397870D01*
X97649501Y-78397876D01*
X97655908Y-78457483D01*
X97706202Y-78592328D01*
X97706206Y-78592335D01*
X97792452Y-78707544D01*
X97792455Y-78707547D01*
X97907664Y-78793793D01*
X97907671Y-78793797D01*
X97952618Y-78810561D01*
X98042517Y-78844091D01*
X98102127Y-78850500D01*
X98112685Y-78850499D01*
X98179723Y-78870179D01*
X98200372Y-78886818D01*
X98870591Y-79557037D01*
X98807007Y-79574075D01*
X98692993Y-79639901D01*
X98599901Y-79732993D01*
X98534075Y-79847007D01*
X98517037Y-79910591D01*
X97884728Y-79278282D01*
X97884727Y-79278282D01*
X97845380Y-79332439D01*
X97748904Y-79521782D01*
X97683242Y-79723869D01*
X97683242Y-79723872D01*
X97650000Y-79933753D01*
X97650000Y-80146246D01*
X97683242Y-80356127D01*
X97683242Y-80356130D01*
X97748904Y-80558217D01*
X97845375Y-80747550D01*
X97884728Y-80801716D01*
X98517037Y-80169408D01*
X98534075Y-80232993D01*
X98599901Y-80347007D01*
X98692993Y-80440099D01*
X98807007Y-80505925D01*
X98870590Y-80522962D01*
X98238282Y-81155269D01*
X98238282Y-81155270D01*
X98292449Y-81194624D01*
X98481782Y-81291095D01*
X98683870Y-81356757D01*
X98893754Y-81390000D01*
X99106246Y-81390000D01*
X99316127Y-81356757D01*
X99316130Y-81356757D01*
X99518217Y-81291095D01*
X99707554Y-81194622D01*
X99761716Y-81155270D01*
X99761717Y-81155270D01*
X99129408Y-80522962D01*
X99192993Y-80505925D01*
X99307007Y-80440099D01*
X99400099Y-80347007D01*
X99465925Y-80232993D01*
X99482962Y-80169409D01*
X100115270Y-80801717D01*
X100115270Y-80801716D01*
X100154622Y-80747554D01*
X100251095Y-80558217D01*
X100316757Y-80356130D01*
X100316757Y-80356127D01*
X100350000Y-80146246D01*
X100350000Y-79933753D01*
X100316757Y-79723872D01*
X100316757Y-79723869D01*
X100251095Y-79521782D01*
X100154624Y-79332449D01*
X100115270Y-79278282D01*
X100115269Y-79278282D01*
X99482962Y-79910590D01*
X99465925Y-79847007D01*
X99400099Y-79732993D01*
X99307007Y-79639901D01*
X99192993Y-79574075D01*
X99129409Y-79557037D01*
X99799627Y-78886818D01*
X99860950Y-78853333D01*
X99887307Y-78850499D01*
X99897872Y-78850499D01*
X99957483Y-78844091D01*
X100092331Y-78793796D01*
X100207546Y-78707546D01*
X100293796Y-78592331D01*
X100344091Y-78457483D01*
X100350500Y-78397873D01*
X100350499Y-76602128D01*
X100344091Y-76542517D01*
X100293796Y-76407669D01*
X100293795Y-76407668D01*
X100293793Y-76407664D01*
X100207547Y-76292455D01*
X100207544Y-76292452D01*
X100092335Y-76206206D01*
X100092328Y-76206202D01*
X99957482Y-76155908D01*
X99957483Y-76155908D01*
X99897883Y-76149501D01*
X99897881Y-76149500D01*
X99897873Y-76149500D01*
X99897864Y-76149500D01*
X98102129Y-76149500D01*
X98102123Y-76149501D01*
X98042516Y-76155908D01*
X97907671Y-76206202D01*
X97907664Y-76206206D01*
X97792455Y-76292452D01*
X97792452Y-76292455D01*
X97706206Y-76407664D01*
X97706202Y-76407671D01*
X97655908Y-76542517D01*
X97649501Y-76602116D01*
X97649501Y-76602123D01*
X97649500Y-76602135D01*
X56250500Y-76602135D01*
X56250500Y-71874500D01*
X56270185Y-71807461D01*
X56322989Y-71761706D01*
X56374500Y-71750500D01*
X72598422Y-71750500D01*
X72792826Y-71719709D01*
X72980026Y-71658884D01*
X73155405Y-71569524D01*
X73314646Y-71453828D01*
X74666339Y-70102135D01*
X89649500Y-70102135D01*
X89649500Y-71897870D01*
X89649501Y-71897876D01*
X89655908Y-71957483D01*
X89706202Y-72092328D01*
X89706206Y-72092335D01*
X89792452Y-72207544D01*
X89792455Y-72207547D01*
X89907664Y-72293793D01*
X89907671Y-72293797D01*
X90042517Y-72344091D01*
X90042516Y-72344091D01*
X90049444Y-72344835D01*
X90102127Y-72350500D01*
X91897872Y-72350499D01*
X91957483Y-72344091D01*
X92092331Y-72293796D01*
X92207546Y-72207546D01*
X92293796Y-72092331D01*
X92344091Y-71957483D01*
X92350500Y-71897873D01*
X92350500Y-71397648D01*
X113039500Y-71397648D01*
X113039500Y-71602351D01*
X113071522Y-71804534D01*
X113134781Y-71999223D01*
X113182221Y-72092328D01*
X113227585Y-72181359D01*
X113227715Y-72181613D01*
X113348028Y-72347213D01*
X113492786Y-72491971D01*
X113613226Y-72579474D01*
X113658390Y-72612287D01*
X113774607Y-72671503D01*
X113840776Y-72705218D01*
X113840778Y-72705218D01*
X113840781Y-72705220D01*
X113945137Y-72739127D01*
X114035465Y-72768477D01*
X114136557Y-72784488D01*
X114237648Y-72800500D01*
X114237649Y-72800500D01*
X114442351Y-72800500D01*
X114442352Y-72800500D01*
X114644534Y-72768477D01*
X114839219Y-72705220D01*
X115021610Y-72612287D01*
X115114590Y-72544732D01*
X115187213Y-72491971D01*
X115187215Y-72491968D01*
X115187219Y-72491966D01*
X115331966Y-72347219D01*
X115331968Y-72347215D01*
X115331971Y-72347213D01*
X115384732Y-72274590D01*
X115452287Y-72181610D01*
X115545220Y-71999219D01*
X115608477Y-71804534D01*
X115640500Y-71602352D01*
X115640500Y-71397682D01*
X123200000Y-71397682D01*
X123200000Y-71602317D01*
X123232009Y-71804417D01*
X123295244Y-71999031D01*
X123388141Y-72181350D01*
X123388147Y-72181359D01*
X123420523Y-72225921D01*
X123420524Y-72225922D01*
X124100000Y-71546446D01*
X124100000Y-71552661D01*
X124127259Y-71654394D01*
X124179920Y-71745606D01*
X124254394Y-71820080D01*
X124345606Y-71872741D01*
X124447339Y-71900000D01*
X124453553Y-71900000D01*
X123774076Y-72579474D01*
X123818650Y-72611859D01*
X124000968Y-72704755D01*
X124195582Y-72767990D01*
X124397683Y-72800000D01*
X124602317Y-72800000D01*
X124804417Y-72767990D01*
X124999031Y-72704755D01*
X125181349Y-72611859D01*
X125225921Y-72579474D01*
X124546447Y-71900000D01*
X124552661Y-71900000D01*
X124654394Y-71872741D01*
X124745606Y-71820080D01*
X124820080Y-71745606D01*
X124872741Y-71654394D01*
X124900000Y-71552661D01*
X124900000Y-71546448D01*
X125579474Y-72225922D01*
X125579474Y-72225921D01*
X125611859Y-72181349D01*
X125704755Y-71999031D01*
X125767990Y-71804417D01*
X125800000Y-71602317D01*
X125800000Y-71397682D01*
X125767990Y-71195582D01*
X125704755Y-71000968D01*
X125611859Y-70818650D01*
X125579474Y-70774077D01*
X125579474Y-70774076D01*
X124900000Y-71453551D01*
X124900000Y-71447339D01*
X124872741Y-71345606D01*
X124820080Y-71254394D01*
X124745606Y-71179920D01*
X124654394Y-71127259D01*
X124552661Y-71100000D01*
X124546446Y-71100000D01*
X125225922Y-70420524D01*
X125225921Y-70420523D01*
X125181359Y-70388147D01*
X125181350Y-70388141D01*
X124999031Y-70295244D01*
X124804417Y-70232009D01*
X124602317Y-70200000D01*
X124397683Y-70200000D01*
X124195582Y-70232009D01*
X124000968Y-70295244D01*
X123818644Y-70388143D01*
X123774077Y-70420523D01*
X123774077Y-70420524D01*
X124453554Y-71100000D01*
X124447339Y-71100000D01*
X124345606Y-71127259D01*
X124254394Y-71179920D01*
X124179920Y-71254394D01*
X124127259Y-71345606D01*
X124100000Y-71447339D01*
X124100000Y-71453553D01*
X123420524Y-70774077D01*
X123420523Y-70774077D01*
X123388143Y-70818644D01*
X123295244Y-71000968D01*
X123232009Y-71195582D01*
X123200000Y-71397682D01*
X115640500Y-71397682D01*
X115640500Y-71397648D01*
X115632257Y-71345606D01*
X115608477Y-71195465D01*
X115577458Y-71100000D01*
X115545220Y-71000781D01*
X115545218Y-71000778D01*
X115545218Y-71000776D01*
X115452419Y-70818650D01*
X115452287Y-70818390D01*
X115420092Y-70774077D01*
X115331971Y-70652786D01*
X115187213Y-70508028D01*
X115021613Y-70387715D01*
X115021612Y-70387714D01*
X115021610Y-70387713D01*
X114964653Y-70358691D01*
X114839223Y-70294781D01*
X114644534Y-70231522D01*
X114469995Y-70203878D01*
X114442352Y-70199500D01*
X114237648Y-70199500D01*
X114213329Y-70203351D01*
X114035465Y-70231522D01*
X113840776Y-70294781D01*
X113658386Y-70387715D01*
X113492786Y-70508028D01*
X113348028Y-70652786D01*
X113227715Y-70818386D01*
X113134781Y-71000776D01*
X113071522Y-71195465D01*
X113039500Y-71397648D01*
X92350500Y-71397648D01*
X92350499Y-70818650D01*
X92350499Y-70102129D01*
X92350498Y-70102123D01*
X92350497Y-70102116D01*
X92344091Y-70042517D01*
X92293796Y-69907669D01*
X92293795Y-69907668D01*
X92293793Y-69907664D01*
X92207547Y-69792455D01*
X92207544Y-69792452D01*
X92092335Y-69706206D01*
X92092328Y-69706202D01*
X91957482Y-69655908D01*
X91957483Y-69655908D01*
X91897883Y-69649501D01*
X91897881Y-69649500D01*
X91897873Y-69649500D01*
X91897864Y-69649500D01*
X90102129Y-69649500D01*
X90102123Y-69649501D01*
X90042516Y-69655908D01*
X89907671Y-69706202D01*
X89907664Y-69706206D01*
X89792455Y-69792452D01*
X89792452Y-69792455D01*
X89706206Y-69907664D01*
X89706202Y-69907671D01*
X89655908Y-70042517D01*
X89649501Y-70102116D01*
X89649501Y-70102123D01*
X89649500Y-70102135D01*
X74666339Y-70102135D01*
X77370826Y-67397648D01*
X112959500Y-67397648D01*
X112959500Y-67602351D01*
X112991522Y-67804534D01*
X113054781Y-67999223D01*
X113147715Y-68181613D01*
X113268028Y-68347213D01*
X113412786Y-68491971D01*
X113567749Y-68604556D01*
X113578390Y-68612287D01*
X113694607Y-68671503D01*
X113760776Y-68705218D01*
X113760778Y-68705218D01*
X113760781Y-68705220D01*
X113865137Y-68739127D01*
X113955465Y-68768477D01*
X114056557Y-68784488D01*
X114157648Y-68800500D01*
X114157649Y-68800500D01*
X114362351Y-68800500D01*
X114362352Y-68800500D01*
X114564534Y-68768477D01*
X114759219Y-68705220D01*
X114941610Y-68612287D01*
X115034590Y-68544732D01*
X115107213Y-68491971D01*
X115107215Y-68491968D01*
X115107219Y-68491966D01*
X115251966Y-68347219D01*
X115251968Y-68347215D01*
X115251971Y-68347213D01*
X115304732Y-68274590D01*
X115372287Y-68181610D01*
X115465220Y-67999219D01*
X115528477Y-67804534D01*
X115560500Y-67602352D01*
X115560500Y-67397648D01*
X123119500Y-67397648D01*
X123119500Y-67602351D01*
X123151522Y-67804534D01*
X123214781Y-67999223D01*
X123307715Y-68181613D01*
X123428028Y-68347213D01*
X123572786Y-68491971D01*
X123727749Y-68604556D01*
X123738390Y-68612287D01*
X123854607Y-68671503D01*
X123920776Y-68705218D01*
X123920778Y-68705218D01*
X123920781Y-68705220D01*
X124025137Y-68739127D01*
X124115465Y-68768477D01*
X124216557Y-68784488D01*
X124317648Y-68800500D01*
X124317649Y-68800500D01*
X124522351Y-68800500D01*
X124522352Y-68800500D01*
X124724534Y-68768477D01*
X124919219Y-68705220D01*
X125101610Y-68612287D01*
X125194590Y-68544732D01*
X125267213Y-68491971D01*
X125267215Y-68491968D01*
X125267219Y-68491966D01*
X125411966Y-68347219D01*
X125411968Y-68347215D01*
X125411971Y-68347213D01*
X125464732Y-68274590D01*
X125532287Y-68181610D01*
X125625220Y-67999219D01*
X125688477Y-67804534D01*
X125720500Y-67602352D01*
X125720500Y-67397648D01*
X125688477Y-67195466D01*
X125625220Y-67000781D01*
X125625218Y-67000778D01*
X125625218Y-67000776D01*
X125591503Y-66934607D01*
X125532287Y-66818390D01*
X125524556Y-66807749D01*
X125411971Y-66652786D01*
X125267213Y-66508028D01*
X125101613Y-66387715D01*
X125101612Y-66387714D01*
X125101610Y-66387713D01*
X125044653Y-66358691D01*
X124919223Y-66294781D01*
X124724534Y-66231522D01*
X124549995Y-66203878D01*
X124522352Y-66199500D01*
X124317648Y-66199500D01*
X124293329Y-66203351D01*
X124115465Y-66231522D01*
X123920776Y-66294781D01*
X123738386Y-66387715D01*
X123572786Y-66508028D01*
X123428028Y-66652786D01*
X123307715Y-66818386D01*
X123214781Y-67000776D01*
X123151522Y-67195465D01*
X123119500Y-67397648D01*
X115560500Y-67397648D01*
X115528477Y-67195466D01*
X115465220Y-67000781D01*
X115465218Y-67000778D01*
X115465218Y-67000776D01*
X115431503Y-66934607D01*
X115372287Y-66818390D01*
X115364556Y-66807749D01*
X115251971Y-66652786D01*
X115107213Y-66508028D01*
X114941613Y-66387715D01*
X114941612Y-66387714D01*
X114941610Y-66387713D01*
X114884653Y-66358691D01*
X114759223Y-66294781D01*
X114564534Y-66231522D01*
X114389995Y-66203878D01*
X114362352Y-66199500D01*
X114157648Y-66199500D01*
X114133329Y-66203351D01*
X113955465Y-66231522D01*
X113760776Y-66294781D01*
X113578386Y-66387715D01*
X113412786Y-66508028D01*
X113268028Y-66652786D01*
X113147715Y-66818386D01*
X113054781Y-67000776D01*
X112991522Y-67195465D01*
X112959500Y-67397648D01*
X77370826Y-67397648D01*
X81870826Y-62897648D01*
X111849500Y-62897648D01*
X111849500Y-63102351D01*
X111881522Y-63304534D01*
X111944781Y-63499223D01*
X112037715Y-63681613D01*
X112158028Y-63847213D01*
X112302786Y-63991971D01*
X112457749Y-64104556D01*
X112468390Y-64112287D01*
X112584607Y-64171503D01*
X112650776Y-64205218D01*
X112650778Y-64205218D01*
X112650781Y-64205220D01*
X112755137Y-64239127D01*
X112845465Y-64268477D01*
X112946557Y-64284488D01*
X113047648Y-64300500D01*
X113047649Y-64300500D01*
X113252351Y-64300500D01*
X113252352Y-64300500D01*
X113454534Y-64268477D01*
X113649219Y-64205220D01*
X113831610Y-64112287D01*
X113924590Y-64044732D01*
X113997213Y-63991971D01*
X113997215Y-63991968D01*
X113997219Y-63991966D01*
X114141966Y-63847219D01*
X114141968Y-63847215D01*
X114141971Y-63847213D01*
X114194732Y-63774590D01*
X114262287Y-63681610D01*
X114355220Y-63499219D01*
X114418477Y-63304534D01*
X114450500Y-63102352D01*
X114450500Y-62897648D01*
X114418477Y-62695466D01*
X114394167Y-62620649D01*
X114355218Y-62500776D01*
X114308954Y-62409979D01*
X114262287Y-62318390D01*
X114254556Y-62307749D01*
X114141971Y-62152786D01*
X113997213Y-62008028D01*
X113831613Y-61887715D01*
X113831612Y-61887714D01*
X113831610Y-61887713D01*
X113774653Y-61858691D01*
X113649223Y-61794781D01*
X113454534Y-61731522D01*
X113279995Y-61703878D01*
X113252352Y-61699500D01*
X113047648Y-61699500D01*
X113023329Y-61703351D01*
X112845465Y-61731522D01*
X112650776Y-61794781D01*
X112468386Y-61887715D01*
X112302786Y-62008028D01*
X112158028Y-62152786D01*
X112037715Y-62318386D01*
X111944781Y-62500776D01*
X111881522Y-62695465D01*
X111849500Y-62897648D01*
X81870826Y-62897648D01*
X85912319Y-58856155D01*
X85973642Y-58822670D01*
X86043334Y-58827654D01*
X86087681Y-58856155D01*
X86546171Y-59314645D01*
X86546172Y-59314646D01*
X86685354Y-59453828D01*
X86844595Y-59569524D01*
X87019971Y-59658882D01*
X87019979Y-59658886D01*
X87104223Y-59686258D01*
X87146346Y-59699944D01*
X87146347Y-59699945D01*
X87146348Y-59699945D01*
X87207173Y-59719709D01*
X87280076Y-59731255D01*
X87401578Y-59750500D01*
X87401583Y-59750500D01*
X93098422Y-59750500D01*
X93292826Y-59719709D01*
X93353656Y-59699944D01*
X93480026Y-59658884D01*
X93655405Y-59569524D01*
X93814646Y-59453828D01*
X94333828Y-58934646D01*
X94449524Y-58775405D01*
X94538884Y-58600026D01*
X94585145Y-58457648D01*
X113119500Y-58457648D01*
X113119500Y-58662351D01*
X113151522Y-58864534D01*
X113214781Y-59059223D01*
X113307715Y-59241613D01*
X113428028Y-59407213D01*
X113572786Y-59551971D01*
X113719939Y-59658882D01*
X113738390Y-59672287D01*
X113831461Y-59719709D01*
X113920776Y-59765218D01*
X113920778Y-59765218D01*
X113920781Y-59765220D01*
X114025137Y-59799127D01*
X114115465Y-59828477D01*
X114216557Y-59844488D01*
X114317648Y-59860500D01*
X114317649Y-59860500D01*
X114522351Y-59860500D01*
X114522352Y-59860500D01*
X114724534Y-59828477D01*
X114919219Y-59765220D01*
X115101610Y-59672287D01*
X115204257Y-59597710D01*
X115267213Y-59551971D01*
X115267215Y-59551968D01*
X115267219Y-59551966D01*
X115411966Y-59407219D01*
X115411968Y-59407215D01*
X115411971Y-59407213D01*
X115464732Y-59334590D01*
X115532287Y-59241610D01*
X115625220Y-59059219D01*
X115688477Y-58864534D01*
X115720500Y-58662352D01*
X115720500Y-58457648D01*
X123279500Y-58457648D01*
X123279500Y-58662351D01*
X123311522Y-58864534D01*
X123374781Y-59059223D01*
X123467715Y-59241613D01*
X123588028Y-59407213D01*
X123732786Y-59551971D01*
X123879939Y-59658882D01*
X123898390Y-59672287D01*
X123991461Y-59719709D01*
X124080776Y-59765218D01*
X124080778Y-59765218D01*
X124080781Y-59765220D01*
X124185137Y-59799127D01*
X124275465Y-59828477D01*
X124376557Y-59844488D01*
X124477648Y-59860500D01*
X124477649Y-59860500D01*
X124682351Y-59860500D01*
X124682352Y-59860500D01*
X124884534Y-59828477D01*
X125079219Y-59765220D01*
X125261610Y-59672287D01*
X125364257Y-59597710D01*
X125427213Y-59551971D01*
X125427215Y-59551968D01*
X125427219Y-59551966D01*
X125571966Y-59407219D01*
X125571968Y-59407215D01*
X125571971Y-59407213D01*
X125624732Y-59334590D01*
X125692287Y-59241610D01*
X125785220Y-59059219D01*
X125848477Y-58864534D01*
X125880500Y-58662352D01*
X125880500Y-58457648D01*
X125855610Y-58300499D01*
X125848477Y-58255465D01*
X125803759Y-58117839D01*
X125785220Y-58060781D01*
X125785218Y-58060778D01*
X125785218Y-58060776D01*
X125750834Y-57993295D01*
X125692287Y-57878390D01*
X125671893Y-57850320D01*
X125571971Y-57712786D01*
X125427213Y-57568028D01*
X125261613Y-57447715D01*
X125261612Y-57447714D01*
X125261610Y-57447713D01*
X125167986Y-57400009D01*
X125079223Y-57354781D01*
X124884534Y-57291522D01*
X124709995Y-57263878D01*
X124682352Y-57259500D01*
X124477648Y-57259500D01*
X124453329Y-57263351D01*
X124275465Y-57291522D01*
X124080776Y-57354781D01*
X123898386Y-57447715D01*
X123732786Y-57568028D01*
X123588028Y-57712786D01*
X123467715Y-57878386D01*
X123374781Y-58060776D01*
X123311522Y-58255465D01*
X123279500Y-58457648D01*
X115720500Y-58457648D01*
X115695610Y-58300499D01*
X115688477Y-58255465D01*
X115643759Y-58117839D01*
X115625220Y-58060781D01*
X115625218Y-58060778D01*
X115625218Y-58060776D01*
X115590834Y-57993295D01*
X115532287Y-57878390D01*
X115511893Y-57850320D01*
X115411971Y-57712786D01*
X115267213Y-57568028D01*
X115101613Y-57447715D01*
X115101612Y-57447714D01*
X115101610Y-57447713D01*
X115007986Y-57400009D01*
X114919223Y-57354781D01*
X114724534Y-57291522D01*
X114549995Y-57263878D01*
X114522352Y-57259500D01*
X114317648Y-57259500D01*
X114293329Y-57263351D01*
X114115465Y-57291522D01*
X113920776Y-57354781D01*
X113738386Y-57447715D01*
X113572786Y-57568028D01*
X113428028Y-57712786D01*
X113307715Y-57878386D01*
X113214781Y-58060776D01*
X113151522Y-58255465D01*
X113119500Y-58457648D01*
X94585145Y-58457648D01*
X94599709Y-58412826D01*
X94630500Y-58218417D01*
X94630500Y-58213851D01*
X94632027Y-58204505D01*
X94644999Y-58177482D01*
X94655669Y-58149485D01*
X94659957Y-58146321D01*
X94662264Y-58141517D01*
X94687779Y-58125800D01*
X94711898Y-58108012D01*
X94718577Y-58106831D01*
X94721754Y-58104875D01*
X94728875Y-58105011D01*
X94754405Y-58100499D01*
X94780002Y-58100499D01*
X94780008Y-58100499D01*
X94882797Y-58089999D01*
X95049334Y-58034814D01*
X95198656Y-57942712D01*
X95322712Y-57818656D01*
X95414814Y-57669334D01*
X95469999Y-57502797D01*
X95480500Y-57400009D01*
X95480499Y-54599992D01*
X95469999Y-54497203D01*
X95414814Y-54330666D01*
X95322712Y-54181344D01*
X95198656Y-54057288D01*
X95073413Y-53980038D01*
X95026690Y-53928091D01*
X95015467Y-53859129D01*
X95043311Y-53795046D01*
X95101379Y-53756190D01*
X95138511Y-53750500D01*
X107957665Y-53750500D01*
X108024704Y-53770185D01*
X108070459Y-53822989D01*
X108080403Y-53892147D01*
X108051378Y-53955703D01*
X107992600Y-53993477D01*
X107989758Y-53994275D01*
X107943369Y-54006704D01*
X107688982Y-54112075D01*
X107688971Y-54112080D01*
X107450516Y-54249754D01*
X107232073Y-54417370D01*
X107232066Y-54417376D01*
X107037376Y-54612066D01*
X107037370Y-54612073D01*
X106869754Y-54830516D01*
X106732080Y-55068971D01*
X106732075Y-55068982D01*
X106626704Y-55323369D01*
X106555441Y-55589331D01*
X106555438Y-55589344D01*
X106519501Y-55862315D01*
X106519500Y-55862332D01*
X106519500Y-56137667D01*
X106519501Y-56137684D01*
X106555438Y-56410655D01*
X106555439Y-56410660D01*
X106555440Y-56410666D01*
X106570796Y-56467974D01*
X106626704Y-56676630D01*
X106732075Y-56931017D01*
X106732080Y-56931028D01*
X106799443Y-57047702D01*
X106869751Y-57169479D01*
X106869753Y-57169482D01*
X106869754Y-57169483D01*
X107037370Y-57387926D01*
X107037376Y-57387933D01*
X107232066Y-57582623D01*
X107232073Y-57582629D01*
X107254735Y-57600018D01*
X107450521Y-57750249D01*
X107569007Y-57818657D01*
X107688971Y-57887919D01*
X107688976Y-57887921D01*
X107688979Y-57887923D01*
X107943368Y-57993295D01*
X108209334Y-58064560D01*
X108482326Y-58100500D01*
X108482333Y-58100500D01*
X108757667Y-58100500D01*
X108757674Y-58100500D01*
X109030666Y-58064560D01*
X109296632Y-57993295D01*
X109551021Y-57887923D01*
X109789479Y-57750249D01*
X110007928Y-57582628D01*
X110202628Y-57387928D01*
X110370249Y-57169479D01*
X110507923Y-56931021D01*
X110613295Y-56676632D01*
X110684560Y-56410666D01*
X110720500Y-56137674D01*
X110720500Y-55862326D01*
X110684560Y-55589334D01*
X110613295Y-55323368D01*
X110507923Y-55068979D01*
X110507921Y-55068976D01*
X110507919Y-55068971D01*
X110449610Y-54967978D01*
X110370249Y-54830521D01*
X110202628Y-54612072D01*
X110202623Y-54612066D01*
X110007933Y-54417376D01*
X110007926Y-54417370D01*
X109789483Y-54249754D01*
X109789482Y-54249753D01*
X109789479Y-54249751D01*
X109670995Y-54181344D01*
X109551028Y-54112080D01*
X109551017Y-54112075D01*
X109296630Y-54006704D01*
X109250242Y-53994275D01*
X109190581Y-53957910D01*
X109160052Y-53895063D01*
X109168347Y-53825687D01*
X109212832Y-53771810D01*
X109279384Y-53750535D01*
X109282335Y-53750500D01*
X111840664Y-53750500D01*
X111907703Y-53770185D01*
X111928345Y-53786819D01*
X113267413Y-55125887D01*
X113290216Y-55157272D01*
X113307713Y-55191611D01*
X113428028Y-55357213D01*
X113572786Y-55501971D01*
X113693047Y-55589344D01*
X113738390Y-55622287D01*
X113854607Y-55681503D01*
X113920776Y-55715218D01*
X113920778Y-55715218D01*
X113920781Y-55715220D01*
X114025137Y-55749127D01*
X114115465Y-55778477D01*
X114216557Y-55794488D01*
X114317648Y-55810500D01*
X114317649Y-55810500D01*
X114522351Y-55810500D01*
X114522352Y-55810500D01*
X114724534Y-55778477D01*
X114919219Y-55715220D01*
X115101610Y-55622287D01*
X115194590Y-55554732D01*
X115267213Y-55501971D01*
X115267215Y-55501968D01*
X115267219Y-55501966D01*
X115411966Y-55357219D01*
X115411968Y-55357215D01*
X115411971Y-55357213D01*
X115464732Y-55284590D01*
X115532287Y-55191610D01*
X115625220Y-55009219D01*
X115688477Y-54814534D01*
X115720500Y-54612352D01*
X115720500Y-54407648D01*
X123279500Y-54407648D01*
X123279500Y-54612351D01*
X123311522Y-54814534D01*
X123374781Y-55009223D01*
X123467715Y-55191613D01*
X123588028Y-55357213D01*
X123732786Y-55501971D01*
X123853047Y-55589344D01*
X123898390Y-55622287D01*
X124014607Y-55681503D01*
X124080776Y-55715218D01*
X124080778Y-55715218D01*
X124080781Y-55715220D01*
X124185137Y-55749127D01*
X124275465Y-55778477D01*
X124376557Y-55794488D01*
X124477648Y-55810500D01*
X124477649Y-55810500D01*
X124682351Y-55810500D01*
X124682352Y-55810500D01*
X124884534Y-55778477D01*
X125079219Y-55715220D01*
X125261610Y-55622287D01*
X125354590Y-55554732D01*
X125427213Y-55501971D01*
X125427215Y-55501968D01*
X125427219Y-55501966D01*
X125571966Y-55357219D01*
X125571968Y-55357215D01*
X125571971Y-55357213D01*
X125624732Y-55284590D01*
X125692287Y-55191610D01*
X125785220Y-55009219D01*
X125848477Y-54814534D01*
X125880500Y-54612352D01*
X125880500Y-54407648D01*
X125848477Y-54205466D01*
X125840639Y-54181344D01*
X125785218Y-54010776D01*
X125728519Y-53899500D01*
X125692287Y-53828390D01*
X125684556Y-53817749D01*
X125571971Y-53662786D01*
X125427213Y-53518028D01*
X125261613Y-53397715D01*
X125261612Y-53397714D01*
X125261610Y-53397713D01*
X125182517Y-53357413D01*
X125079223Y-53304781D01*
X124884534Y-53241522D01*
X124709995Y-53213878D01*
X124682352Y-53209500D01*
X124477648Y-53209500D01*
X124453329Y-53213351D01*
X124275465Y-53241522D01*
X124080776Y-53304781D01*
X123898386Y-53397715D01*
X123732786Y-53518028D01*
X123588028Y-53662786D01*
X123467715Y-53828386D01*
X123374781Y-54010776D01*
X123311522Y-54205465D01*
X123279500Y-54407648D01*
X115720500Y-54407648D01*
X115688477Y-54205466D01*
X115680639Y-54181344D01*
X115625218Y-54010776D01*
X115568519Y-53899500D01*
X115532287Y-53828390D01*
X115524556Y-53817749D01*
X115411971Y-53662786D01*
X115267213Y-53518028D01*
X115101611Y-53397713D01*
X115067272Y-53380216D01*
X115035887Y-53357413D01*
X113224648Y-51546174D01*
X113224646Y-51546172D01*
X113065405Y-51430476D01*
X112890030Y-51341117D01*
X112702826Y-51280290D01*
X112508422Y-51249500D01*
X112508417Y-51249500D01*
X77098416Y-51249500D01*
X76901583Y-51249500D01*
X76901578Y-51249500D01*
X76707172Y-51280291D01*
X76646348Y-51300053D01*
X76646348Y-51300054D01*
X76603103Y-51314105D01*
X76519970Y-51341117D01*
X76344594Y-51430476D01*
X76253741Y-51496485D01*
X76185354Y-51546172D01*
X76185352Y-51546174D01*
X76185351Y-51546174D01*
X73068343Y-54663181D01*
X73007020Y-54696666D01*
X72980662Y-54699500D01*
X71899998Y-54699500D01*
X71899981Y-54699501D01*
X71797203Y-54710000D01*
X71797200Y-54710001D01*
X71630668Y-54765185D01*
X71630663Y-54765187D01*
X71481342Y-54857289D01*
X71357289Y-54981342D01*
X71265187Y-55130663D01*
X71265185Y-55130668D01*
X71244991Y-55191610D01*
X71210001Y-55297203D01*
X71210001Y-55297204D01*
X71210000Y-55297204D01*
X71199500Y-55399983D01*
X71199500Y-57600001D01*
X71199501Y-57600018D01*
X71210000Y-57702796D01*
X71210001Y-57702799D01*
X71225725Y-57750249D01*
X71265186Y-57869334D01*
X71357288Y-58018656D01*
X71481344Y-58142712D01*
X71630666Y-58234814D01*
X71797203Y-58289999D01*
X71899991Y-58300500D01*
X74100008Y-58300499D01*
X74202797Y-58289999D01*
X74369334Y-58234814D01*
X74518656Y-58142712D01*
X74642712Y-58018656D01*
X74734814Y-57869334D01*
X74789999Y-57702797D01*
X74800500Y-57600009D01*
X74800499Y-56519334D01*
X74809143Y-56489894D01*
X74815667Y-56459908D01*
X74819421Y-56454892D01*
X74820184Y-56452296D01*
X74836813Y-56431659D01*
X74886458Y-56382014D01*
X79120000Y-56382014D01*
X79120000Y-56617985D01*
X79150799Y-56851914D01*
X79211870Y-57079837D01*
X79302160Y-57297819D01*
X79302165Y-57297828D01*
X79420144Y-57502171D01*
X79420145Y-57502172D01*
X79482721Y-57583723D01*
X80318958Y-56747487D01*
X80343978Y-56807890D01*
X80415112Y-56914351D01*
X80505649Y-57004888D01*
X80612110Y-57076022D01*
X80672511Y-57101041D01*
X79836275Y-57937277D01*
X79917827Y-57999854D01*
X79917828Y-57999855D01*
X80122171Y-58117834D01*
X80122180Y-58117839D01*
X80340163Y-58208129D01*
X80340161Y-58208129D01*
X80568085Y-58269200D01*
X80802014Y-58299999D01*
X80802029Y-58300000D01*
X81037971Y-58300000D01*
X81037985Y-58299999D01*
X81271914Y-58269200D01*
X81499837Y-58208129D01*
X81717819Y-58117839D01*
X81717828Y-58117834D01*
X81922181Y-57999850D01*
X82003723Y-57937279D01*
X82003723Y-57937276D01*
X81167487Y-57101041D01*
X81227890Y-57076022D01*
X81334351Y-57004888D01*
X81424888Y-56914351D01*
X81496022Y-56807890D01*
X81521041Y-56747488D01*
X82357276Y-57583723D01*
X82357279Y-57583723D01*
X82419850Y-57502181D01*
X82537834Y-57297828D01*
X82537839Y-57297819D01*
X82628129Y-57079837D01*
X82689200Y-56851914D01*
X82719999Y-56617985D01*
X82720000Y-56617971D01*
X82720000Y-56382028D01*
X82719999Y-56382014D01*
X82689200Y-56148085D01*
X82628129Y-55920162D01*
X82537839Y-55702180D01*
X82537834Y-55702171D01*
X82419855Y-55497828D01*
X82419854Y-55497827D01*
X82357277Y-55416275D01*
X81521041Y-56252511D01*
X81496022Y-56192110D01*
X81424888Y-56085649D01*
X81334351Y-55995112D01*
X81227890Y-55923978D01*
X81167488Y-55898958D01*
X82003723Y-55062721D01*
X81922172Y-55000145D01*
X81922171Y-55000144D01*
X81717828Y-54882165D01*
X81717819Y-54882160D01*
X81499836Y-54791870D01*
X81499838Y-54791870D01*
X81271914Y-54730799D01*
X81037985Y-54700000D01*
X80802014Y-54700000D01*
X80568085Y-54730799D01*
X80340162Y-54791870D01*
X80122180Y-54882160D01*
X80122171Y-54882165D01*
X79917828Y-55000144D01*
X79917818Y-55000150D01*
X79836275Y-55062720D01*
X79836275Y-55062721D01*
X80672512Y-55898958D01*
X80612110Y-55923978D01*
X80505649Y-55995112D01*
X80415112Y-56085649D01*
X80343978Y-56192110D01*
X80318958Y-56252512D01*
X79482721Y-55416275D01*
X79482720Y-55416275D01*
X79420150Y-55497818D01*
X79420144Y-55497828D01*
X79302165Y-55702171D01*
X79302160Y-55702180D01*
X79211870Y-55920162D01*
X79150799Y-56148085D01*
X79120000Y-56382014D01*
X74886458Y-56382014D01*
X77481655Y-53786819D01*
X77542978Y-53753334D01*
X77569336Y-53750500D01*
X91621489Y-53750500D01*
X91688528Y-53770185D01*
X91734283Y-53822989D01*
X91744227Y-53892147D01*
X91715202Y-53955703D01*
X91686587Y-53980037D01*
X91605745Y-54029901D01*
X91561342Y-54057289D01*
X91437289Y-54181342D01*
X91345187Y-54330663D01*
X91345186Y-54330666D01*
X91290001Y-54497203D01*
X91290001Y-54497204D01*
X91290000Y-54497204D01*
X91279500Y-54599983D01*
X91279500Y-54599991D01*
X91279500Y-55923978D01*
X91279501Y-57125500D01*
X91259816Y-57192539D01*
X91207013Y-57238294D01*
X91155501Y-57249500D01*
X88069336Y-57249500D01*
X88039895Y-57240855D01*
X88009909Y-57234332D01*
X88004893Y-57230577D01*
X88002297Y-57229815D01*
X87981655Y-57213181D01*
X87836818Y-57068344D01*
X87803333Y-57007021D01*
X87800499Y-56980663D01*
X87800499Y-55399998D01*
X87800498Y-55399981D01*
X87789999Y-55297203D01*
X87789998Y-55297200D01*
X87734814Y-55130666D01*
X87642712Y-54981344D01*
X87518656Y-54857288D01*
X87369334Y-54765186D01*
X87202797Y-54710001D01*
X87202795Y-54710000D01*
X87100010Y-54699500D01*
X84899998Y-54699500D01*
X84899981Y-54699501D01*
X84797203Y-54710000D01*
X84797200Y-54710001D01*
X84630668Y-54765185D01*
X84630663Y-54765187D01*
X84481342Y-54857289D01*
X84357289Y-54981342D01*
X84265187Y-55130663D01*
X84265185Y-55130668D01*
X84244991Y-55191610D01*
X84210001Y-55297203D01*
X84210001Y-55297204D01*
X84210000Y-55297204D01*
X84199500Y-55399983D01*
X84199500Y-56980663D01*
X84179815Y-57047702D01*
X84163181Y-57068344D01*
X72018345Y-69213181D01*
X71957022Y-69246666D01*
X71930664Y-69249500D01*
X50901578Y-69249500D01*
X50707173Y-69280290D01*
X50519970Y-69341117D01*
X50344594Y-69430476D01*
X50185354Y-69546172D01*
X50110533Y-69620991D01*
X50050036Y-69654023D01*
X50050061Y-69654127D01*
X50049682Y-69654216D01*
X50049209Y-69654475D01*
X50047224Y-69654797D01*
X50042513Y-69655910D01*
X49907671Y-69706202D01*
X49907664Y-69706206D01*
X49792455Y-69792452D01*
X49792452Y-69792455D01*
X49706206Y-69907664D01*
X49706202Y-69907671D01*
X49655908Y-70042517D01*
X49649501Y-70102116D01*
X49649501Y-70102123D01*
X49649500Y-70102135D01*
X49649500Y-71897870D01*
X49649501Y-71897876D01*
X49655908Y-71957483D01*
X49706202Y-72092328D01*
X49706206Y-72092335D01*
X49792452Y-72207544D01*
X49792455Y-72207547D01*
X49907664Y-72293793D01*
X49907671Y-72293797D01*
X50042517Y-72344091D01*
X50042516Y-72344091D01*
X50049444Y-72344835D01*
X50102127Y-72350500D01*
X51897872Y-72350499D01*
X51957483Y-72344091D01*
X52092331Y-72293796D01*
X52207546Y-72207546D01*
X52293796Y-72092331D01*
X52344091Y-71957483D01*
X52350500Y-71897873D01*
X52350500Y-71874500D01*
X52370185Y-71807461D01*
X52422989Y-71761706D01*
X52474500Y-71750500D01*
X53625500Y-71750500D01*
X53692539Y-71770185D01*
X53738294Y-71822989D01*
X53749500Y-71874500D01*
X53749500Y-124430663D01*
X53729815Y-124497702D01*
X53713181Y-124518344D01*
X50099873Y-128131651D01*
X50038550Y-128165136D01*
X49968859Y-128160152D01*
X49968858Y-128160151D01*
X49957486Y-128155909D01*
X49957483Y-128155908D01*
X49897883Y-128149501D01*
X49897881Y-128149500D01*
X49897873Y-128149500D01*
X49897864Y-128149500D01*
X48102129Y-128149500D01*
X48102123Y-128149501D01*
X48042516Y-128155908D01*
X47907671Y-128206202D01*
X47907664Y-128206206D01*
X47792455Y-128292452D01*
X47792452Y-128292455D01*
X47706206Y-128407664D01*
X47706202Y-128407671D01*
X47655908Y-128542517D01*
X47649994Y-128597528D01*
X47649501Y-128602123D01*
X47649500Y-128602135D01*
X47230907Y-128602135D01*
X47230954Y-128597528D01*
X47642296Y-88697360D01*
X47653587Y-87602155D01*
X49650000Y-87602155D01*
X49650000Y-88250000D01*
X50566988Y-88250000D01*
X50534075Y-88307007D01*
X50500000Y-88434174D01*
X50500000Y-88565826D01*
X50534075Y-88692993D01*
X50566988Y-88750000D01*
X49650000Y-88750000D01*
X49650000Y-89397844D01*
X49656401Y-89457372D01*
X49656403Y-89457379D01*
X49706645Y-89592086D01*
X49706649Y-89592093D01*
X49792809Y-89707187D01*
X49792812Y-89707190D01*
X49907906Y-89793350D01*
X49907913Y-89793354D01*
X50042620Y-89843596D01*
X50042627Y-89843598D01*
X50102155Y-89849999D01*
X50102172Y-89850000D01*
X50750000Y-89850000D01*
X50750000Y-88933012D01*
X50807007Y-88965925D01*
X50934174Y-89000000D01*
X51065826Y-89000000D01*
X51192993Y-88965925D01*
X51250000Y-88933012D01*
X51250000Y-89850000D01*
X51897828Y-89850000D01*
X51897844Y-89849999D01*
X51957372Y-89843598D01*
X51957379Y-89843596D01*
X52092086Y-89793354D01*
X52092093Y-89793350D01*
X52207187Y-89707190D01*
X52207190Y-89707187D01*
X52293350Y-89592093D01*
X52293354Y-89592086D01*
X52343596Y-89457379D01*
X52343598Y-89457372D01*
X52349999Y-89397844D01*
X52350000Y-89397827D01*
X52350000Y-88750000D01*
X51433012Y-88750000D01*
X51465925Y-88692993D01*
X51500000Y-88565826D01*
X51500000Y-88434174D01*
X51465925Y-88307007D01*
X51433012Y-88250000D01*
X52350000Y-88250000D01*
X52350000Y-87602172D01*
X52349999Y-87602155D01*
X52343598Y-87542627D01*
X52343596Y-87542620D01*
X52293354Y-87407913D01*
X52293350Y-87407906D01*
X52207190Y-87292812D01*
X52207187Y-87292809D01*
X52092093Y-87206649D01*
X52092086Y-87206645D01*
X51957379Y-87156403D01*
X51957372Y-87156401D01*
X51897844Y-87150000D01*
X51250000Y-87150000D01*
X51250000Y-88066988D01*
X51192993Y-88034075D01*
X51065826Y-88000000D01*
X50934174Y-88000000D01*
X50807007Y-88034075D01*
X50750000Y-88066988D01*
X50750000Y-87150000D01*
X50102155Y-87150000D01*
X50042627Y-87156401D01*
X50042620Y-87156403D01*
X49907913Y-87206645D01*
X49907906Y-87206649D01*
X49792812Y-87292809D01*
X49792809Y-87292812D01*
X49706649Y-87407906D01*
X49706645Y-87407913D01*
X49656403Y-87542620D01*
X49656401Y-87542627D01*
X49650000Y-87602155D01*
X47653587Y-87602155D01*
X47653634Y-87597573D01*
X47892546Y-64423047D01*
X47908072Y-62917014D01*
X53527500Y-62917014D01*
X53527500Y-63152985D01*
X53558299Y-63386914D01*
X53619370Y-63614837D01*
X53709660Y-63832819D01*
X53709665Y-63832828D01*
X53827644Y-64037171D01*
X53827645Y-64037172D01*
X53890221Y-64118723D01*
X54726458Y-63282487D01*
X54751478Y-63342890D01*
X54822612Y-63449351D01*
X54913149Y-63539888D01*
X55019610Y-63611022D01*
X55080011Y-63636041D01*
X54243775Y-64472277D01*
X54325327Y-64534854D01*
X54325328Y-64534855D01*
X54529671Y-64652834D01*
X54529680Y-64652839D01*
X54747663Y-64743129D01*
X54747661Y-64743129D01*
X54975585Y-64804200D01*
X55209514Y-64834999D01*
X55209529Y-64835000D01*
X55445471Y-64835000D01*
X55445485Y-64834999D01*
X55679414Y-64804200D01*
X55907337Y-64743129D01*
X56125319Y-64652839D01*
X56125328Y-64652834D01*
X56329681Y-64534850D01*
X56411223Y-64472279D01*
X56411223Y-64472276D01*
X55574987Y-63636041D01*
X55635390Y-63611022D01*
X55741851Y-63539888D01*
X55832388Y-63449351D01*
X55903522Y-63342890D01*
X55928541Y-63282488D01*
X56764776Y-64118723D01*
X56764779Y-64118723D01*
X56827350Y-64037181D01*
X56945334Y-63832828D01*
X56945339Y-63832819D01*
X57035629Y-63614837D01*
X57096700Y-63386914D01*
X57127499Y-63152985D01*
X57127500Y-63152971D01*
X57127500Y-62917028D01*
X57127499Y-62917014D01*
X57096700Y-62683085D01*
X57035629Y-62455162D01*
X56945339Y-62237180D01*
X56945334Y-62237171D01*
X56827355Y-62032828D01*
X56827354Y-62032827D01*
X56764777Y-61951275D01*
X55928541Y-62787511D01*
X55903522Y-62727110D01*
X55832388Y-62620649D01*
X55741851Y-62530112D01*
X55635390Y-62458978D01*
X55574988Y-62433958D01*
X56411223Y-61597721D01*
X56329672Y-61535145D01*
X56329671Y-61535144D01*
X56125328Y-61417165D01*
X56125319Y-61417160D01*
X55907336Y-61326870D01*
X55907338Y-61326870D01*
X55679414Y-61265799D01*
X55445485Y-61235000D01*
X55209514Y-61235000D01*
X54975585Y-61265799D01*
X54747662Y-61326870D01*
X54529680Y-61417160D01*
X54529671Y-61417165D01*
X54325328Y-61535144D01*
X54325318Y-61535150D01*
X54243775Y-61597720D01*
X54243775Y-61597721D01*
X55080012Y-62433958D01*
X55019610Y-62458978D01*
X54913149Y-62530112D01*
X54822612Y-62620649D01*
X54751478Y-62727110D01*
X54726458Y-62787512D01*
X53890221Y-61951275D01*
X53890220Y-61951275D01*
X53827650Y-62032818D01*
X53827644Y-62032828D01*
X53709665Y-62237171D01*
X53709660Y-62237180D01*
X53619370Y-62455162D01*
X53558299Y-62683085D01*
X53527500Y-62917014D01*
X47908072Y-62917014D01*
X47908127Y-62911685D01*
X47921192Y-61644396D01*
X47970567Y-56854983D01*
X53527000Y-56854983D01*
X53527000Y-59055001D01*
X53527001Y-59055018D01*
X53537500Y-59157796D01*
X53537501Y-59157799D01*
X53565274Y-59241610D01*
X53592686Y-59324334D01*
X53684788Y-59473656D01*
X53808844Y-59597712D01*
X53958166Y-59689814D01*
X54124703Y-59744999D01*
X54227491Y-59755500D01*
X56427508Y-59755499D01*
X56530297Y-59744999D01*
X56696834Y-59689814D01*
X56846156Y-59597712D01*
X56970212Y-59473656D01*
X57062314Y-59324334D01*
X57117499Y-59157797D01*
X57128000Y-59055009D01*
X57127999Y-56854992D01*
X57123187Y-56807890D01*
X57117499Y-56752203D01*
X57117498Y-56752200D01*
X57062314Y-56585666D01*
X57009474Y-56499999D01*
X56974355Y-56443061D01*
X56974354Y-56443060D01*
X56970212Y-56436344D01*
X56915882Y-56382014D01*
X66120000Y-56382014D01*
X66120000Y-56617985D01*
X66150799Y-56851914D01*
X66211870Y-57079837D01*
X66302160Y-57297819D01*
X66302165Y-57297828D01*
X66420144Y-57502171D01*
X66420145Y-57502172D01*
X66482721Y-57583723D01*
X67318958Y-56747487D01*
X67343978Y-56807890D01*
X67415112Y-56914351D01*
X67505649Y-57004888D01*
X67612110Y-57076022D01*
X67672511Y-57101041D01*
X66836275Y-57937277D01*
X66917827Y-57999854D01*
X66917828Y-57999855D01*
X67122171Y-58117834D01*
X67122180Y-58117839D01*
X67340163Y-58208129D01*
X67340161Y-58208129D01*
X67568085Y-58269200D01*
X67802014Y-58299999D01*
X67802029Y-58300000D01*
X68037971Y-58300000D01*
X68037985Y-58299999D01*
X68271914Y-58269200D01*
X68499837Y-58208129D01*
X68717819Y-58117839D01*
X68717828Y-58117834D01*
X68922181Y-57999850D01*
X69003723Y-57937279D01*
X69003723Y-57937276D01*
X68167487Y-57101041D01*
X68227890Y-57076022D01*
X68334351Y-57004888D01*
X68424888Y-56914351D01*
X68496022Y-56807890D01*
X68521041Y-56747487D01*
X69357276Y-57583723D01*
X69357279Y-57583723D01*
X69419850Y-57502181D01*
X69537834Y-57297828D01*
X69537839Y-57297819D01*
X69628129Y-57079837D01*
X69689200Y-56851914D01*
X69719999Y-56617985D01*
X69720000Y-56617971D01*
X69720000Y-56382028D01*
X69719999Y-56382014D01*
X69689200Y-56148085D01*
X69628129Y-55920162D01*
X69537839Y-55702180D01*
X69537834Y-55702171D01*
X69419855Y-55497828D01*
X69419854Y-55497827D01*
X69357277Y-55416275D01*
X68521041Y-56252511D01*
X68496022Y-56192110D01*
X68424888Y-56085649D01*
X68334351Y-55995112D01*
X68227890Y-55923978D01*
X68167488Y-55898958D01*
X69003723Y-55062721D01*
X68922172Y-55000145D01*
X68922171Y-55000144D01*
X68717828Y-54882165D01*
X68717819Y-54882160D01*
X68499836Y-54791870D01*
X68499838Y-54791870D01*
X68271914Y-54730799D01*
X68037985Y-54700000D01*
X67802014Y-54700000D01*
X67568085Y-54730799D01*
X67340162Y-54791870D01*
X67122180Y-54882160D01*
X67122171Y-54882165D01*
X66917828Y-55000144D01*
X66917818Y-55000150D01*
X66836275Y-55062720D01*
X66836275Y-55062721D01*
X67672512Y-55898958D01*
X67612110Y-55923978D01*
X67505649Y-55995112D01*
X67415112Y-56085649D01*
X67343978Y-56192110D01*
X67318958Y-56252511D01*
X66482721Y-55416275D01*
X66482720Y-55416275D01*
X66420150Y-55497818D01*
X66420144Y-55497828D01*
X66302165Y-55702171D01*
X66302160Y-55702180D01*
X66211870Y-55920162D01*
X66150799Y-56148085D01*
X66120000Y-56382014D01*
X56915882Y-56382014D01*
X56846156Y-56312288D01*
X56696834Y-56220186D01*
X56530297Y-56165001D01*
X56530295Y-56165000D01*
X56427510Y-56154500D01*
X54227498Y-56154500D01*
X54227481Y-56154501D01*
X54124703Y-56165000D01*
X54124700Y-56165001D01*
X53958168Y-56220185D01*
X53958163Y-56220187D01*
X53808842Y-56312289D01*
X53684789Y-56436342D01*
X53592687Y-56585663D01*
X53592685Y-56585668D01*
X53564849Y-56669670D01*
X53537501Y-56752203D01*
X53537501Y-56752204D01*
X53537500Y-56752204D01*
X53527000Y-56854983D01*
X47970567Y-56854983D01*
X47970613Y-56850556D01*
X47988563Y-55109396D01*
X47998735Y-54122722D01*
X48019109Y-54055889D01*
X48072382Y-54010681D01*
X48122728Y-54000000D01*
X64000000Y-54000000D01*
X64000000Y-50124000D01*
X64019685Y-50056961D01*
X64072489Y-50011206D01*
X64124000Y-50000000D01*
X123435439Y-50000000D01*
X123502478Y-50019685D01*
G37*
%TD.AperFunction*%
%TD*%
M02*
