M48
; DRILL file {KiCad 9.0.7} date 2026-03-25T15:08:49+0530
; FORMAT={-:-/ absolute / metric / decimal}
; #@! TF.CreationDate,2026-03-25T15:08:49+05:30
; #@! TF.GenerationSoftware,Kicad,Pcbnew,9.0.7
; #@! TF.FileFunction,Plated,1,2,PTH
FMAT,2
METRIC
; #@! TA.AperFunction,Plated,PTH,ViaDrill
T1C0.300
; #@! TA.AperFunction,Plated,PTH,ComponentDrill
T2C0.800
; #@! TA.AperFunction,Plated,PTH,ComponentDrill
T3C1.000
; #@! TA.AperFunction,Plated,PTH,ComponentDrill
T4C1.300
; #@! TA.AperFunction,Plated,PTH,ComponentDrill
T5C1.600
%
G90
G05
T1
X112.0Y-133.0
X115.0Y-120.0
X116.0Y-133.0
X118.5Y-120.0
T2
X113.15Y-63.0
X114.26Y-67.5
X114.34Y-71.5
X114.42Y-54.51
X114.42Y-58.56
X124.42Y-67.5
X124.5Y-71.5
X124.58Y-54.51
X124.58Y-58.56
X125.85Y-63.0
T3
X49.0Y-129.5
X49.0Y-147.0
X51.0Y-71.0
X51.0Y-88.5
X82.0Y-97.475
X82.0Y-100.015
X82.0Y-102.555
X82.0Y-112.5
X82.0Y-115.04
X82.0Y-117.58
X89.0Y-129.5
X89.0Y-147.0
X91.0Y-71.0
X91.0Y-88.5
X94.5Y-98.46
X94.5Y-101.0
X94.5Y-103.54
X94.5Y-106.08
X97.6Y-120.0
X97.6Y-122.54
X97.6Y-125.08
X97.6Y-127.62
X97.6Y-130.16
X97.6Y-132.7
X97.6Y-135.24
X97.6Y-137.78
X97.6Y-140.32
X97.6Y-142.86
X97.6Y-145.4
X97.6Y-147.94
X97.6Y-150.48
X97.6Y-153.02
X97.6Y-155.56
X99.0Y-77.5
X99.0Y-80.04
X111.0Y-92.5
X111.0Y-95.04
X111.0Y-97.58
X111.0Y-100.12
X111.0Y-102.66
X111.0Y-105.2
X111.0Y-107.74
X114.0Y-92.5
X114.0Y-95.04
X114.0Y-97.58
X114.0Y-100.12
X114.0Y-102.66
X114.0Y-105.2
X114.0Y-107.74
X120.5Y-77.5
X120.5Y-80.04
X123.0Y-120.0
X123.0Y-122.54
X123.0Y-125.08
X123.0Y-127.62
X123.0Y-130.16
X123.0Y-132.7
X123.0Y-135.24
X123.0Y-137.78
X123.0Y-140.32
X123.0Y-142.86
X123.0Y-145.4
X123.0Y-147.94
X123.0Y-150.48
X123.0Y-153.02
X123.0Y-155.56
T4
X55.328Y-57.955
X55.328Y-63.035
X67.92Y-56.5
X73.0Y-56.5
X80.92Y-56.5
X86.0Y-56.5
T5
X93.38Y-56.0
X108.62Y-56.0
M30
