%TF.GenerationSoftware,KiCad,Pcbnew,9.0.7*%
%TF.CreationDate,2026-03-25T15:08:41+05:30*%
%TF.ProjectId,GPB1,47504231-2e6b-4696-9361-645f70636258,rev?*%
%TF.SameCoordinates,Original*%
%TF.FileFunction,Legend,Top*%
%TF.FilePolarity,Positive*%
%FSLAX46Y46*%
G04 Gerber Fmt 4.6, Leading zero omitted, Abs format (unit mm)*
G04 Created by KiCad (PCBNEW 9.0.7) date 2026-03-25 15:08:41*
%MOMM*%
%LPD*%
G01*
G04 APERTURE LIST*
%ADD10C,0.100000*%
%ADD11C,0.150000*%
%ADD12C,0.120000*%
G04 APERTURE END LIST*
D10*
X66303884Y-64872419D02*
X66303884Y-63872419D01*
X67494359Y-63824800D02*
X66637217Y-65110514D01*
X67827693Y-64872419D02*
X67827693Y-63872419D01*
X67827693Y-63872419D02*
X68208645Y-63872419D01*
X68208645Y-63872419D02*
X68303883Y-63920038D01*
X68303883Y-63920038D02*
X68351502Y-63967657D01*
X68351502Y-63967657D02*
X68399121Y-64062895D01*
X68399121Y-64062895D02*
X68399121Y-64205752D01*
X68399121Y-64205752D02*
X68351502Y-64300990D01*
X68351502Y-64300990D02*
X68303883Y-64348609D01*
X68303883Y-64348609D02*
X68208645Y-64396228D01*
X68208645Y-64396228D02*
X67827693Y-64396228D01*
X68589598Y-64967657D02*
X69351502Y-64967657D01*
X69589598Y-64872419D02*
X69589598Y-63872419D01*
X69589598Y-63872419D02*
X69970550Y-63872419D01*
X69970550Y-63872419D02*
X70065788Y-63920038D01*
X70065788Y-63920038D02*
X70113407Y-63967657D01*
X70113407Y-63967657D02*
X70161026Y-64062895D01*
X70161026Y-64062895D02*
X70161026Y-64205752D01*
X70161026Y-64205752D02*
X70113407Y-64300990D01*
X70113407Y-64300990D02*
X70065788Y-64348609D01*
X70065788Y-64348609D02*
X69970550Y-64396228D01*
X69970550Y-64396228D02*
X69589598Y-64396228D01*
X70780074Y-63872419D02*
X70970550Y-63872419D01*
X70970550Y-63872419D02*
X71065788Y-63920038D01*
X71065788Y-63920038D02*
X71161026Y-64015276D01*
X71161026Y-64015276D02*
X71208645Y-64205752D01*
X71208645Y-64205752D02*
X71208645Y-64539085D01*
X71208645Y-64539085D02*
X71161026Y-64729561D01*
X71161026Y-64729561D02*
X71065788Y-64824800D01*
X71065788Y-64824800D02*
X70970550Y-64872419D01*
X70970550Y-64872419D02*
X70780074Y-64872419D01*
X70780074Y-64872419D02*
X70684836Y-64824800D01*
X70684836Y-64824800D02*
X70589598Y-64729561D01*
X70589598Y-64729561D02*
X70541979Y-64539085D01*
X70541979Y-64539085D02*
X70541979Y-64205752D01*
X70541979Y-64205752D02*
X70589598Y-64015276D01*
X70589598Y-64015276D02*
X70684836Y-63920038D01*
X70684836Y-63920038D02*
X70780074Y-63872419D01*
X71541979Y-63872419D02*
X71780074Y-64872419D01*
X71780074Y-64872419D02*
X71970550Y-64158133D01*
X71970550Y-64158133D02*
X72161026Y-64872419D01*
X72161026Y-64872419D02*
X72399122Y-63872419D01*
X72780074Y-64348609D02*
X73113407Y-64348609D01*
X73256264Y-64872419D02*
X72780074Y-64872419D01*
X72780074Y-64872419D02*
X72780074Y-63872419D01*
X72780074Y-63872419D02*
X73256264Y-63872419D01*
X74256264Y-64872419D02*
X73922931Y-64396228D01*
X73684836Y-64872419D02*
X73684836Y-63872419D01*
X73684836Y-63872419D02*
X74065788Y-63872419D01*
X74065788Y-63872419D02*
X74161026Y-63920038D01*
X74161026Y-63920038D02*
X74208645Y-63967657D01*
X74208645Y-63967657D02*
X74256264Y-64062895D01*
X74256264Y-64062895D02*
X74256264Y-64205752D01*
X74256264Y-64205752D02*
X74208645Y-64300990D01*
X74208645Y-64300990D02*
X74161026Y-64348609D01*
X74161026Y-64348609D02*
X74065788Y-64396228D01*
X74065788Y-64396228D02*
X73684836Y-64396228D01*
X102303884Y-79372419D02*
X102303884Y-78372419D01*
X103494359Y-78324800D02*
X102637217Y-79610514D01*
X103827693Y-79372419D02*
X103827693Y-78372419D01*
X103827693Y-78372419D02*
X104208645Y-78372419D01*
X104208645Y-78372419D02*
X104303883Y-78420038D01*
X104303883Y-78420038D02*
X104351502Y-78467657D01*
X104351502Y-78467657D02*
X104399121Y-78562895D01*
X104399121Y-78562895D02*
X104399121Y-78705752D01*
X104399121Y-78705752D02*
X104351502Y-78800990D01*
X104351502Y-78800990D02*
X104303883Y-78848609D01*
X104303883Y-78848609D02*
X104208645Y-78896228D01*
X104208645Y-78896228D02*
X103827693Y-78896228D01*
X104827693Y-78991466D02*
X105589598Y-78991466D01*
X105208645Y-79372419D02*
X105208645Y-78610514D01*
X97327693Y-97920038D02*
X97232455Y-97872419D01*
X97232455Y-97872419D02*
X97089598Y-97872419D01*
X97089598Y-97872419D02*
X96946741Y-97920038D01*
X96946741Y-97920038D02*
X96851503Y-98015276D01*
X96851503Y-98015276D02*
X96803884Y-98110514D01*
X96803884Y-98110514D02*
X96756265Y-98300990D01*
X96756265Y-98300990D02*
X96756265Y-98443847D01*
X96756265Y-98443847D02*
X96803884Y-98634323D01*
X96803884Y-98634323D02*
X96851503Y-98729561D01*
X96851503Y-98729561D02*
X96946741Y-98824800D01*
X96946741Y-98824800D02*
X97089598Y-98872419D01*
X97089598Y-98872419D02*
X97184836Y-98872419D01*
X97184836Y-98872419D02*
X97327693Y-98824800D01*
X97327693Y-98824800D02*
X97375312Y-98777180D01*
X97375312Y-98777180D02*
X97375312Y-98443847D01*
X97375312Y-98443847D02*
X97184836Y-98443847D01*
X97803884Y-98872419D02*
X97803884Y-97872419D01*
X97803884Y-97872419D02*
X98375312Y-98872419D01*
X98375312Y-98872419D02*
X98375312Y-97872419D01*
X98851503Y-98872419D02*
X98851503Y-97872419D01*
X98851503Y-97872419D02*
X99089598Y-97872419D01*
X99089598Y-97872419D02*
X99232455Y-97920038D01*
X99232455Y-97920038D02*
X99327693Y-98015276D01*
X99327693Y-98015276D02*
X99375312Y-98110514D01*
X99375312Y-98110514D02*
X99422931Y-98300990D01*
X99422931Y-98300990D02*
X99422931Y-98443847D01*
X99422931Y-98443847D02*
X99375312Y-98634323D01*
X99375312Y-98634323D02*
X99327693Y-98729561D01*
X99327693Y-98729561D02*
X99232455Y-98824800D01*
X99232455Y-98824800D02*
X99089598Y-98872419D01*
X99089598Y-98872419D02*
X98851503Y-98872419D01*
X51161027Y-53372419D02*
X51732455Y-53372419D01*
X51446741Y-54372419D02*
X51446741Y-53372419D01*
X52256265Y-53372419D02*
X52446741Y-53372419D01*
X52446741Y-53372419D02*
X52541979Y-53420038D01*
X52541979Y-53420038D02*
X52637217Y-53515276D01*
X52637217Y-53515276D02*
X52684836Y-53705752D01*
X52684836Y-53705752D02*
X52684836Y-54039085D01*
X52684836Y-54039085D02*
X52637217Y-54229561D01*
X52637217Y-54229561D02*
X52541979Y-54324800D01*
X52541979Y-54324800D02*
X52446741Y-54372419D01*
X52446741Y-54372419D02*
X52256265Y-54372419D01*
X52256265Y-54372419D02*
X52161027Y-54324800D01*
X52161027Y-54324800D02*
X52065789Y-54229561D01*
X52065789Y-54229561D02*
X52018170Y-54039085D01*
X52018170Y-54039085D02*
X52018170Y-53705752D01*
X52018170Y-53705752D02*
X52065789Y-53515276D01*
X52065789Y-53515276D02*
X52161027Y-53420038D01*
X52161027Y-53420038D02*
X52256265Y-53372419D01*
X54446741Y-54372419D02*
X54113408Y-53896228D01*
X53875313Y-54372419D02*
X53875313Y-53372419D01*
X53875313Y-53372419D02*
X54256265Y-53372419D01*
X54256265Y-53372419D02*
X54351503Y-53420038D01*
X54351503Y-53420038D02*
X54399122Y-53467657D01*
X54399122Y-53467657D02*
X54446741Y-53562895D01*
X54446741Y-53562895D02*
X54446741Y-53705752D01*
X54446741Y-53705752D02*
X54399122Y-53800990D01*
X54399122Y-53800990D02*
X54351503Y-53848609D01*
X54351503Y-53848609D02*
X54256265Y-53896228D01*
X54256265Y-53896228D02*
X53875313Y-53896228D01*
X54875313Y-53848609D02*
X55208646Y-53848609D01*
X55351503Y-54372419D02*
X54875313Y-54372419D01*
X54875313Y-54372419D02*
X54875313Y-53372419D01*
X54875313Y-53372419D02*
X55351503Y-53372419D01*
X56256265Y-54372419D02*
X55780075Y-54372419D01*
X55780075Y-54372419D02*
X55780075Y-53372419D01*
X56541980Y-54086704D02*
X57018170Y-54086704D01*
X56446742Y-54372419D02*
X56780075Y-53372419D01*
X56780075Y-53372419D02*
X57113408Y-54372419D01*
X57637218Y-53896228D02*
X57637218Y-54372419D01*
X57303885Y-53372419D02*
X57637218Y-53896228D01*
X57637218Y-53896228D02*
X57970551Y-53372419D01*
X59351504Y-54753371D02*
X59303885Y-54705752D01*
X59303885Y-54705752D02*
X59208647Y-54562895D01*
X59208647Y-54562895D02*
X59161028Y-54467657D01*
X59161028Y-54467657D02*
X59113409Y-54324800D01*
X59113409Y-54324800D02*
X59065790Y-54086704D01*
X59065790Y-54086704D02*
X59065790Y-53896228D01*
X59065790Y-53896228D02*
X59113409Y-53658133D01*
X59113409Y-53658133D02*
X59161028Y-53515276D01*
X59161028Y-53515276D02*
X59208647Y-53420038D01*
X59208647Y-53420038D02*
X59303885Y-53277180D01*
X59303885Y-53277180D02*
X59351504Y-53229561D01*
X60256266Y-54372419D02*
X59684838Y-54372419D01*
X59970552Y-54372419D02*
X59970552Y-53372419D01*
X59970552Y-53372419D02*
X59875314Y-53515276D01*
X59875314Y-53515276D02*
X59780076Y-53610514D01*
X59780076Y-53610514D02*
X59684838Y-53658133D01*
X60637219Y-53467657D02*
X60684838Y-53420038D01*
X60684838Y-53420038D02*
X60780076Y-53372419D01*
X60780076Y-53372419D02*
X61018171Y-53372419D01*
X61018171Y-53372419D02*
X61113409Y-53420038D01*
X61113409Y-53420038D02*
X61161028Y-53467657D01*
X61161028Y-53467657D02*
X61208647Y-53562895D01*
X61208647Y-53562895D02*
X61208647Y-53658133D01*
X61208647Y-53658133D02*
X61161028Y-53800990D01*
X61161028Y-53800990D02*
X60589600Y-54372419D01*
X60589600Y-54372419D02*
X61208647Y-54372419D01*
X61494362Y-53372419D02*
X61827695Y-54372419D01*
X61827695Y-54372419D02*
X62161028Y-53372419D01*
X62399124Y-54753371D02*
X62446743Y-54705752D01*
X62446743Y-54705752D02*
X62541981Y-54562895D01*
X62541981Y-54562895D02*
X62589600Y-54467657D01*
X62589600Y-54467657D02*
X62637219Y-54324800D01*
X62637219Y-54324800D02*
X62684838Y-54086704D01*
X62684838Y-54086704D02*
X62684838Y-53896228D01*
X62684838Y-53896228D02*
X62637219Y-53658133D01*
X62637219Y-53658133D02*
X62589600Y-53515276D01*
X62589600Y-53515276D02*
X62541981Y-53420038D01*
X62541981Y-53420038D02*
X62446743Y-53277180D01*
X62446743Y-53277180D02*
X62399124Y-53229561D01*
X101161027Y-148372419D02*
X101494360Y-149372419D01*
X101494360Y-149372419D02*
X101827693Y-148372419D01*
X102161027Y-149372419D02*
X102161027Y-148372419D01*
X102637217Y-149372419D02*
X102637217Y-148372419D01*
X102637217Y-148372419D02*
X103208645Y-149372419D01*
X103208645Y-149372419D02*
X103208645Y-148372419D01*
X61303884Y-57491466D02*
X62065789Y-57491466D01*
X61684836Y-57872419D02*
X61684836Y-57110514D01*
X96803884Y-101372419D02*
X96803884Y-100372419D01*
X97280074Y-101372419D02*
X97280074Y-100372419D01*
X97280074Y-100372419D02*
X97851502Y-101372419D01*
X97851502Y-101372419D02*
X97851502Y-100372419D01*
X98280074Y-100467657D02*
X98327693Y-100420038D01*
X98327693Y-100420038D02*
X98422931Y-100372419D01*
X98422931Y-100372419D02*
X98661026Y-100372419D01*
X98661026Y-100372419D02*
X98756264Y-100420038D01*
X98756264Y-100420038D02*
X98803883Y-100467657D01*
X98803883Y-100467657D02*
X98851502Y-100562895D01*
X98851502Y-100562895D02*
X98851502Y-100658133D01*
X98851502Y-100658133D02*
X98803883Y-100800990D01*
X98803883Y-100800990D02*
X98232455Y-101372419D01*
X98232455Y-101372419D02*
X98851502Y-101372419D01*
X77161027Y-111872419D02*
X77494360Y-112872419D01*
X77494360Y-112872419D02*
X77827693Y-111872419D01*
X78732455Y-112777180D02*
X78684836Y-112824800D01*
X78684836Y-112824800D02*
X78541979Y-112872419D01*
X78541979Y-112872419D02*
X78446741Y-112872419D01*
X78446741Y-112872419D02*
X78303884Y-112824800D01*
X78303884Y-112824800D02*
X78208646Y-112729561D01*
X78208646Y-112729561D02*
X78161027Y-112634323D01*
X78161027Y-112634323D02*
X78113408Y-112443847D01*
X78113408Y-112443847D02*
X78113408Y-112300990D01*
X78113408Y-112300990D02*
X78161027Y-112110514D01*
X78161027Y-112110514D02*
X78208646Y-112015276D01*
X78208646Y-112015276D02*
X78303884Y-111920038D01*
X78303884Y-111920038D02*
X78446741Y-111872419D01*
X78446741Y-111872419D02*
X78541979Y-111872419D01*
X78541979Y-111872419D02*
X78684836Y-111920038D01*
X78684836Y-111920038D02*
X78732455Y-111967657D01*
X79732455Y-112777180D02*
X79684836Y-112824800D01*
X79684836Y-112824800D02*
X79541979Y-112872419D01*
X79541979Y-112872419D02*
X79446741Y-112872419D01*
X79446741Y-112872419D02*
X79303884Y-112824800D01*
X79303884Y-112824800D02*
X79208646Y-112729561D01*
X79208646Y-112729561D02*
X79161027Y-112634323D01*
X79161027Y-112634323D02*
X79113408Y-112443847D01*
X79113408Y-112443847D02*
X79113408Y-112300990D01*
X79113408Y-112300990D02*
X79161027Y-112110514D01*
X79161027Y-112110514D02*
X79208646Y-112015276D01*
X79208646Y-112015276D02*
X79303884Y-111920038D01*
X79303884Y-111920038D02*
X79446741Y-111872419D01*
X79446741Y-111872419D02*
X79541979Y-111872419D01*
X79541979Y-111872419D02*
X79684836Y-111920038D01*
X79684836Y-111920038D02*
X79732455Y-111967657D01*
X122994360Y-80872419D02*
X123184836Y-80872419D01*
X123184836Y-80872419D02*
X123280074Y-80920038D01*
X123280074Y-80920038D02*
X123375312Y-81015276D01*
X123375312Y-81015276D02*
X123422931Y-81205752D01*
X123422931Y-81205752D02*
X123422931Y-81539085D01*
X123422931Y-81539085D02*
X123375312Y-81729561D01*
X123375312Y-81729561D02*
X123280074Y-81824800D01*
X123280074Y-81824800D02*
X123184836Y-81872419D01*
X123184836Y-81872419D02*
X122994360Y-81872419D01*
X122994360Y-81872419D02*
X122899122Y-81824800D01*
X122899122Y-81824800D02*
X122803884Y-81729561D01*
X122803884Y-81729561D02*
X122756265Y-81539085D01*
X122756265Y-81539085D02*
X122756265Y-81205752D01*
X122756265Y-81205752D02*
X122803884Y-81015276D01*
X122803884Y-81015276D02*
X122899122Y-80920038D01*
X122899122Y-80920038D02*
X122994360Y-80872419D01*
X124565788Y-80824800D02*
X123708646Y-82110514D01*
X124899122Y-81872419D02*
X124899122Y-80872419D01*
X124899122Y-80872419D02*
X125280074Y-80872419D01*
X125280074Y-80872419D02*
X125375312Y-80920038D01*
X125375312Y-80920038D02*
X125422931Y-80967657D01*
X125422931Y-80967657D02*
X125470550Y-81062895D01*
X125470550Y-81062895D02*
X125470550Y-81205752D01*
X125470550Y-81205752D02*
X125422931Y-81300990D01*
X125422931Y-81300990D02*
X125375312Y-81348609D01*
X125375312Y-81348609D02*
X125280074Y-81396228D01*
X125280074Y-81396228D02*
X124899122Y-81396228D01*
X125899122Y-81491466D02*
X126661027Y-81491466D01*
X64137217Y-138348609D02*
X64280074Y-138396228D01*
X64280074Y-138396228D02*
X64327693Y-138443847D01*
X64327693Y-138443847D02*
X64375312Y-138539085D01*
X64375312Y-138539085D02*
X64375312Y-138681942D01*
X64375312Y-138681942D02*
X64327693Y-138777180D01*
X64327693Y-138777180D02*
X64280074Y-138824800D01*
X64280074Y-138824800D02*
X64184836Y-138872419D01*
X64184836Y-138872419D02*
X63803884Y-138872419D01*
X63803884Y-138872419D02*
X63803884Y-137872419D01*
X63803884Y-137872419D02*
X64137217Y-137872419D01*
X64137217Y-137872419D02*
X64232455Y-137920038D01*
X64232455Y-137920038D02*
X64280074Y-137967657D01*
X64280074Y-137967657D02*
X64327693Y-138062895D01*
X64327693Y-138062895D02*
X64327693Y-138158133D01*
X64327693Y-138158133D02*
X64280074Y-138253371D01*
X64280074Y-138253371D02*
X64232455Y-138300990D01*
X64232455Y-138300990D02*
X64137217Y-138348609D01*
X64137217Y-138348609D02*
X63803884Y-138348609D01*
X64803884Y-137872419D02*
X64803884Y-138681942D01*
X64803884Y-138681942D02*
X64851503Y-138777180D01*
X64851503Y-138777180D02*
X64899122Y-138824800D01*
X64899122Y-138824800D02*
X64994360Y-138872419D01*
X64994360Y-138872419D02*
X65184836Y-138872419D01*
X65184836Y-138872419D02*
X65280074Y-138824800D01*
X65280074Y-138824800D02*
X65327693Y-138777180D01*
X65327693Y-138777180D02*
X65375312Y-138681942D01*
X65375312Y-138681942D02*
X65375312Y-137872419D01*
X66422931Y-138777180D02*
X66375312Y-138824800D01*
X66375312Y-138824800D02*
X66232455Y-138872419D01*
X66232455Y-138872419D02*
X66137217Y-138872419D01*
X66137217Y-138872419D02*
X65994360Y-138824800D01*
X65994360Y-138824800D02*
X65899122Y-138729561D01*
X65899122Y-138729561D02*
X65851503Y-138634323D01*
X65851503Y-138634323D02*
X65803884Y-138443847D01*
X65803884Y-138443847D02*
X65803884Y-138300990D01*
X65803884Y-138300990D02*
X65851503Y-138110514D01*
X65851503Y-138110514D02*
X65899122Y-138015276D01*
X65899122Y-138015276D02*
X65994360Y-137920038D01*
X65994360Y-137920038D02*
X66137217Y-137872419D01*
X66137217Y-137872419D02*
X66232455Y-137872419D01*
X66232455Y-137872419D02*
X66375312Y-137920038D01*
X66375312Y-137920038D02*
X66422931Y-137967657D01*
X66851503Y-138872419D02*
X66851503Y-137872419D01*
X67422931Y-138872419D02*
X66994360Y-138300990D01*
X67422931Y-137872419D02*
X66851503Y-138443847D01*
X67613408Y-138967657D02*
X68375312Y-138967657D01*
X69184836Y-138777180D02*
X69137217Y-138824800D01*
X69137217Y-138824800D02*
X68994360Y-138872419D01*
X68994360Y-138872419D02*
X68899122Y-138872419D01*
X68899122Y-138872419D02*
X68756265Y-138824800D01*
X68756265Y-138824800D02*
X68661027Y-138729561D01*
X68661027Y-138729561D02*
X68613408Y-138634323D01*
X68613408Y-138634323D02*
X68565789Y-138443847D01*
X68565789Y-138443847D02*
X68565789Y-138300990D01*
X68565789Y-138300990D02*
X68613408Y-138110514D01*
X68613408Y-138110514D02*
X68661027Y-138015276D01*
X68661027Y-138015276D02*
X68756265Y-137920038D01*
X68756265Y-137920038D02*
X68899122Y-137872419D01*
X68899122Y-137872419D02*
X68994360Y-137872419D01*
X68994360Y-137872419D02*
X69137217Y-137920038D01*
X69137217Y-137920038D02*
X69184836Y-137967657D01*
X69803884Y-137872419D02*
X69994360Y-137872419D01*
X69994360Y-137872419D02*
X70089598Y-137920038D01*
X70089598Y-137920038D02*
X70184836Y-138015276D01*
X70184836Y-138015276D02*
X70232455Y-138205752D01*
X70232455Y-138205752D02*
X70232455Y-138539085D01*
X70232455Y-138539085D02*
X70184836Y-138729561D01*
X70184836Y-138729561D02*
X70089598Y-138824800D01*
X70089598Y-138824800D02*
X69994360Y-138872419D01*
X69994360Y-138872419D02*
X69803884Y-138872419D01*
X69803884Y-138872419D02*
X69708646Y-138824800D01*
X69708646Y-138824800D02*
X69613408Y-138729561D01*
X69613408Y-138729561D02*
X69565789Y-138539085D01*
X69565789Y-138539085D02*
X69565789Y-138205752D01*
X69565789Y-138205752D02*
X69613408Y-138015276D01*
X69613408Y-138015276D02*
X69708646Y-137920038D01*
X69708646Y-137920038D02*
X69803884Y-137872419D01*
X70661027Y-138872419D02*
X70661027Y-137872419D01*
X70661027Y-137872419D02*
X71232455Y-138872419D01*
X71232455Y-138872419D02*
X71232455Y-137872419D01*
X71565789Y-137872419D02*
X71899122Y-138872419D01*
X71899122Y-138872419D02*
X72232455Y-137872419D01*
X72327694Y-138967657D02*
X73089598Y-138967657D01*
X73851503Y-138872419D02*
X73280075Y-138872419D01*
X73565789Y-138872419D02*
X73565789Y-137872419D01*
X73565789Y-137872419D02*
X73470551Y-138015276D01*
X73470551Y-138015276D02*
X73375313Y-138110514D01*
X73375313Y-138110514D02*
X73280075Y-138158133D01*
X75327694Y-139253371D02*
X75280075Y-139205752D01*
X75280075Y-139205752D02*
X75184837Y-139062895D01*
X75184837Y-139062895D02*
X75137218Y-138967657D01*
X75137218Y-138967657D02*
X75089599Y-138824800D01*
X75089599Y-138824800D02*
X75041980Y-138586704D01*
X75041980Y-138586704D02*
X75041980Y-138396228D01*
X75041980Y-138396228D02*
X75089599Y-138158133D01*
X75089599Y-138158133D02*
X75137218Y-138015276D01*
X75137218Y-138015276D02*
X75184837Y-137920038D01*
X75184837Y-137920038D02*
X75280075Y-137777180D01*
X75280075Y-137777180D02*
X75327694Y-137729561D01*
X76184837Y-137872419D02*
X75708647Y-137872419D01*
X75708647Y-137872419D02*
X75661028Y-138348609D01*
X75661028Y-138348609D02*
X75708647Y-138300990D01*
X75708647Y-138300990D02*
X75803885Y-138253371D01*
X75803885Y-138253371D02*
X76041980Y-138253371D01*
X76041980Y-138253371D02*
X76137218Y-138300990D01*
X76137218Y-138300990D02*
X76184837Y-138348609D01*
X76184837Y-138348609D02*
X76232456Y-138443847D01*
X76232456Y-138443847D02*
X76232456Y-138681942D01*
X76232456Y-138681942D02*
X76184837Y-138777180D01*
X76184837Y-138777180D02*
X76137218Y-138824800D01*
X76137218Y-138824800D02*
X76041980Y-138872419D01*
X76041980Y-138872419D02*
X75803885Y-138872419D01*
X75803885Y-138872419D02*
X75708647Y-138824800D01*
X75708647Y-138824800D02*
X75661028Y-138777180D01*
X76518171Y-137872419D02*
X76851504Y-138872419D01*
X76851504Y-138872419D02*
X77184837Y-137872419D01*
X77422933Y-139253371D02*
X77470552Y-139205752D01*
X77470552Y-139205752D02*
X77565790Y-139062895D01*
X77565790Y-139062895D02*
X77613409Y-138967657D01*
X77613409Y-138967657D02*
X77661028Y-138824800D01*
X77661028Y-138824800D02*
X77708647Y-138586704D01*
X77708647Y-138586704D02*
X77708647Y-138396228D01*
X77708647Y-138396228D02*
X77661028Y-138158133D01*
X77661028Y-138158133D02*
X77613409Y-138015276D01*
X77613409Y-138015276D02*
X77565790Y-137920038D01*
X77565790Y-137920038D02*
X77470552Y-137777180D01*
X77470552Y-137777180D02*
X77422933Y-137729561D01*
X122994360Y-78372419D02*
X123184836Y-78372419D01*
X123184836Y-78372419D02*
X123280074Y-78420038D01*
X123280074Y-78420038D02*
X123375312Y-78515276D01*
X123375312Y-78515276D02*
X123422931Y-78705752D01*
X123422931Y-78705752D02*
X123422931Y-79039085D01*
X123422931Y-79039085D02*
X123375312Y-79229561D01*
X123375312Y-79229561D02*
X123280074Y-79324800D01*
X123280074Y-79324800D02*
X123184836Y-79372419D01*
X123184836Y-79372419D02*
X122994360Y-79372419D01*
X122994360Y-79372419D02*
X122899122Y-79324800D01*
X122899122Y-79324800D02*
X122803884Y-79229561D01*
X122803884Y-79229561D02*
X122756265Y-79039085D01*
X122756265Y-79039085D02*
X122756265Y-78705752D01*
X122756265Y-78705752D02*
X122803884Y-78515276D01*
X122803884Y-78515276D02*
X122899122Y-78420038D01*
X122899122Y-78420038D02*
X122994360Y-78372419D01*
X124565788Y-78324800D02*
X123708646Y-79610514D01*
X124899122Y-79372419D02*
X124899122Y-78372419D01*
X124899122Y-78372419D02*
X125280074Y-78372419D01*
X125280074Y-78372419D02*
X125375312Y-78420038D01*
X125375312Y-78420038D02*
X125422931Y-78467657D01*
X125422931Y-78467657D02*
X125470550Y-78562895D01*
X125470550Y-78562895D02*
X125470550Y-78705752D01*
X125470550Y-78705752D02*
X125422931Y-78800990D01*
X125422931Y-78800990D02*
X125375312Y-78848609D01*
X125375312Y-78848609D02*
X125280074Y-78896228D01*
X125280074Y-78896228D02*
X124899122Y-78896228D01*
X125899122Y-78991466D02*
X126661027Y-78991466D01*
X126280074Y-79372419D02*
X126280074Y-78610514D01*
X80303884Y-62491466D02*
X81065789Y-62491466D01*
X96803884Y-104372419D02*
X96803884Y-103372419D01*
X97280074Y-104372419D02*
X97280074Y-103372419D01*
X97280074Y-103372419D02*
X97851502Y-104372419D01*
X97851502Y-104372419D02*
X97851502Y-103372419D01*
X98851502Y-104372419D02*
X98280074Y-104372419D01*
X98565788Y-104372419D02*
X98565788Y-103372419D01*
X98565788Y-103372419D02*
X98470550Y-103515276D01*
X98470550Y-103515276D02*
X98375312Y-103610514D01*
X98375312Y-103610514D02*
X98280074Y-103658133D01*
X105756265Y-81086704D02*
X106232455Y-81086704D01*
X105661027Y-81372419D02*
X105994360Y-80372419D01*
X105994360Y-80372419D02*
X106327693Y-81372419D01*
X106661027Y-81372419D02*
X106661027Y-80372419D01*
X106661027Y-80372419D02*
X106994360Y-81086704D01*
X106994360Y-81086704D02*
X107327693Y-80372419D01*
X107327693Y-80372419D02*
X107327693Y-81372419D01*
X107756265Y-81324800D02*
X107899122Y-81372419D01*
X107899122Y-81372419D02*
X108137217Y-81372419D01*
X108137217Y-81372419D02*
X108232455Y-81324800D01*
X108232455Y-81324800D02*
X108280074Y-81277180D01*
X108280074Y-81277180D02*
X108327693Y-81181942D01*
X108327693Y-81181942D02*
X108327693Y-81086704D01*
X108327693Y-81086704D02*
X108280074Y-80991466D01*
X108280074Y-80991466D02*
X108232455Y-80943847D01*
X108232455Y-80943847D02*
X108137217Y-80896228D01*
X108137217Y-80896228D02*
X107946741Y-80848609D01*
X107946741Y-80848609D02*
X107851503Y-80800990D01*
X107851503Y-80800990D02*
X107803884Y-80753371D01*
X107803884Y-80753371D02*
X107756265Y-80658133D01*
X107756265Y-80658133D02*
X107756265Y-80562895D01*
X107756265Y-80562895D02*
X107803884Y-80467657D01*
X107803884Y-80467657D02*
X107851503Y-80420038D01*
X107851503Y-80420038D02*
X107946741Y-80372419D01*
X107946741Y-80372419D02*
X108184836Y-80372419D01*
X108184836Y-80372419D02*
X108327693Y-80420038D01*
X109280074Y-81372419D02*
X108708646Y-81372419D01*
X108994360Y-81372419D02*
X108994360Y-80372419D01*
X108994360Y-80372419D02*
X108899122Y-80515276D01*
X108899122Y-80515276D02*
X108803884Y-80610514D01*
X108803884Y-80610514D02*
X108708646Y-80658133D01*
X110232455Y-81372419D02*
X109661027Y-81372419D01*
X109946741Y-81372419D02*
X109946741Y-80372419D01*
X109946741Y-80372419D02*
X109851503Y-80515276D01*
X109851503Y-80515276D02*
X109756265Y-80610514D01*
X109756265Y-80610514D02*
X109661027Y-80658133D01*
X111184836Y-81372419D02*
X110613408Y-81372419D01*
X110899122Y-81372419D02*
X110899122Y-80372419D01*
X110899122Y-80372419D02*
X110803884Y-80515276D01*
X110803884Y-80515276D02*
X110708646Y-80610514D01*
X110708646Y-80610514D02*
X110613408Y-80658133D01*
X111518170Y-80372419D02*
X112184836Y-80372419D01*
X112184836Y-80372419D02*
X111756265Y-81372419D01*
X113232456Y-80372419D02*
X113851503Y-80372419D01*
X113851503Y-80372419D02*
X113518170Y-80753371D01*
X113518170Y-80753371D02*
X113661027Y-80753371D01*
X113661027Y-80753371D02*
X113756265Y-80800990D01*
X113756265Y-80800990D02*
X113803884Y-80848609D01*
X113803884Y-80848609D02*
X113851503Y-80943847D01*
X113851503Y-80943847D02*
X113851503Y-81181942D01*
X113851503Y-81181942D02*
X113803884Y-81277180D01*
X113803884Y-81277180D02*
X113756265Y-81324800D01*
X113756265Y-81324800D02*
X113661027Y-81372419D01*
X113661027Y-81372419D02*
X113375313Y-81372419D01*
X113375313Y-81372419D02*
X113280075Y-81324800D01*
X113280075Y-81324800D02*
X113232456Y-81277180D01*
X114280075Y-81277180D02*
X114327694Y-81324800D01*
X114327694Y-81324800D02*
X114280075Y-81372419D01*
X114280075Y-81372419D02*
X114232456Y-81324800D01*
X114232456Y-81324800D02*
X114280075Y-81277180D01*
X114280075Y-81277180D02*
X114280075Y-81372419D01*
X114661027Y-80372419D02*
X115280074Y-80372419D01*
X115280074Y-80372419D02*
X114946741Y-80753371D01*
X114946741Y-80753371D02*
X115089598Y-80753371D01*
X115089598Y-80753371D02*
X115184836Y-80800990D01*
X115184836Y-80800990D02*
X115232455Y-80848609D01*
X115232455Y-80848609D02*
X115280074Y-80943847D01*
X115280074Y-80943847D02*
X115280074Y-81181942D01*
X115280074Y-81181942D02*
X115232455Y-81277180D01*
X115232455Y-81277180D02*
X115184836Y-81324800D01*
X115184836Y-81324800D02*
X115089598Y-81372419D01*
X115089598Y-81372419D02*
X114803884Y-81372419D01*
X114803884Y-81372419D02*
X114708646Y-81324800D01*
X114708646Y-81324800D02*
X114661027Y-81277180D01*
X115565789Y-80372419D02*
X115899122Y-81372419D01*
X115899122Y-81372419D02*
X116232455Y-80372419D01*
X72803884Y-62491466D02*
X73565789Y-62491466D01*
X73184836Y-62872419D02*
X73184836Y-62110514D01*
X67803884Y-62491466D02*
X68565789Y-62491466D01*
X66137217Y-81848609D02*
X66280074Y-81896228D01*
X66280074Y-81896228D02*
X66327693Y-81943847D01*
X66327693Y-81943847D02*
X66375312Y-82039085D01*
X66375312Y-82039085D02*
X66375312Y-82181942D01*
X66375312Y-82181942D02*
X66327693Y-82277180D01*
X66327693Y-82277180D02*
X66280074Y-82324800D01*
X66280074Y-82324800D02*
X66184836Y-82372419D01*
X66184836Y-82372419D02*
X65803884Y-82372419D01*
X65803884Y-82372419D02*
X65803884Y-81372419D01*
X65803884Y-81372419D02*
X66137217Y-81372419D01*
X66137217Y-81372419D02*
X66232455Y-81420038D01*
X66232455Y-81420038D02*
X66280074Y-81467657D01*
X66280074Y-81467657D02*
X66327693Y-81562895D01*
X66327693Y-81562895D02*
X66327693Y-81658133D01*
X66327693Y-81658133D02*
X66280074Y-81753371D01*
X66280074Y-81753371D02*
X66232455Y-81800990D01*
X66232455Y-81800990D02*
X66137217Y-81848609D01*
X66137217Y-81848609D02*
X65803884Y-81848609D01*
X66803884Y-81372419D02*
X66803884Y-82181942D01*
X66803884Y-82181942D02*
X66851503Y-82277180D01*
X66851503Y-82277180D02*
X66899122Y-82324800D01*
X66899122Y-82324800D02*
X66994360Y-82372419D01*
X66994360Y-82372419D02*
X67184836Y-82372419D01*
X67184836Y-82372419D02*
X67280074Y-82324800D01*
X67280074Y-82324800D02*
X67327693Y-82277180D01*
X67327693Y-82277180D02*
X67375312Y-82181942D01*
X67375312Y-82181942D02*
X67375312Y-81372419D01*
X68422931Y-82277180D02*
X68375312Y-82324800D01*
X68375312Y-82324800D02*
X68232455Y-82372419D01*
X68232455Y-82372419D02*
X68137217Y-82372419D01*
X68137217Y-82372419D02*
X67994360Y-82324800D01*
X67994360Y-82324800D02*
X67899122Y-82229561D01*
X67899122Y-82229561D02*
X67851503Y-82134323D01*
X67851503Y-82134323D02*
X67803884Y-81943847D01*
X67803884Y-81943847D02*
X67803884Y-81800990D01*
X67803884Y-81800990D02*
X67851503Y-81610514D01*
X67851503Y-81610514D02*
X67899122Y-81515276D01*
X67899122Y-81515276D02*
X67994360Y-81420038D01*
X67994360Y-81420038D02*
X68137217Y-81372419D01*
X68137217Y-81372419D02*
X68232455Y-81372419D01*
X68232455Y-81372419D02*
X68375312Y-81420038D01*
X68375312Y-81420038D02*
X68422931Y-81467657D01*
X68851503Y-82372419D02*
X68851503Y-81372419D01*
X69422931Y-82372419D02*
X68994360Y-81800990D01*
X69422931Y-81372419D02*
X68851503Y-81943847D01*
X69613408Y-82467657D02*
X70375312Y-82467657D01*
X71184836Y-82277180D02*
X71137217Y-82324800D01*
X71137217Y-82324800D02*
X70994360Y-82372419D01*
X70994360Y-82372419D02*
X70899122Y-82372419D01*
X70899122Y-82372419D02*
X70756265Y-82324800D01*
X70756265Y-82324800D02*
X70661027Y-82229561D01*
X70661027Y-82229561D02*
X70613408Y-82134323D01*
X70613408Y-82134323D02*
X70565789Y-81943847D01*
X70565789Y-81943847D02*
X70565789Y-81800990D01*
X70565789Y-81800990D02*
X70613408Y-81610514D01*
X70613408Y-81610514D02*
X70661027Y-81515276D01*
X70661027Y-81515276D02*
X70756265Y-81420038D01*
X70756265Y-81420038D02*
X70899122Y-81372419D01*
X70899122Y-81372419D02*
X70994360Y-81372419D01*
X70994360Y-81372419D02*
X71137217Y-81420038D01*
X71137217Y-81420038D02*
X71184836Y-81467657D01*
X71803884Y-81372419D02*
X71994360Y-81372419D01*
X71994360Y-81372419D02*
X72089598Y-81420038D01*
X72089598Y-81420038D02*
X72184836Y-81515276D01*
X72184836Y-81515276D02*
X72232455Y-81705752D01*
X72232455Y-81705752D02*
X72232455Y-82039085D01*
X72232455Y-82039085D02*
X72184836Y-82229561D01*
X72184836Y-82229561D02*
X72089598Y-82324800D01*
X72089598Y-82324800D02*
X71994360Y-82372419D01*
X71994360Y-82372419D02*
X71803884Y-82372419D01*
X71803884Y-82372419D02*
X71708646Y-82324800D01*
X71708646Y-82324800D02*
X71613408Y-82229561D01*
X71613408Y-82229561D02*
X71565789Y-82039085D01*
X71565789Y-82039085D02*
X71565789Y-81705752D01*
X71565789Y-81705752D02*
X71613408Y-81515276D01*
X71613408Y-81515276D02*
X71708646Y-81420038D01*
X71708646Y-81420038D02*
X71803884Y-81372419D01*
X72661027Y-82372419D02*
X72661027Y-81372419D01*
X72661027Y-81372419D02*
X73232455Y-82372419D01*
X73232455Y-82372419D02*
X73232455Y-81372419D01*
X73565789Y-81372419D02*
X73899122Y-82372419D01*
X73899122Y-82372419D02*
X74232455Y-81372419D01*
X74327694Y-82467657D02*
X75089598Y-82467657D01*
X75280075Y-81467657D02*
X75327694Y-81420038D01*
X75327694Y-81420038D02*
X75422932Y-81372419D01*
X75422932Y-81372419D02*
X75661027Y-81372419D01*
X75661027Y-81372419D02*
X75756265Y-81420038D01*
X75756265Y-81420038D02*
X75803884Y-81467657D01*
X75803884Y-81467657D02*
X75851503Y-81562895D01*
X75851503Y-81562895D02*
X75851503Y-81658133D01*
X75851503Y-81658133D02*
X75803884Y-81800990D01*
X75803884Y-81800990D02*
X75232456Y-82372419D01*
X75232456Y-82372419D02*
X75851503Y-82372419D01*
X77327694Y-82753371D02*
X77280075Y-82705752D01*
X77280075Y-82705752D02*
X77184837Y-82562895D01*
X77184837Y-82562895D02*
X77137218Y-82467657D01*
X77137218Y-82467657D02*
X77089599Y-82324800D01*
X77089599Y-82324800D02*
X77041980Y-82086704D01*
X77041980Y-82086704D02*
X77041980Y-81896228D01*
X77041980Y-81896228D02*
X77089599Y-81658133D01*
X77089599Y-81658133D02*
X77137218Y-81515276D01*
X77137218Y-81515276D02*
X77184837Y-81420038D01*
X77184837Y-81420038D02*
X77280075Y-81277180D01*
X77280075Y-81277180D02*
X77327694Y-81229561D01*
X78232456Y-82372419D02*
X77661028Y-82372419D01*
X77946742Y-82372419D02*
X77946742Y-81372419D01*
X77946742Y-81372419D02*
X77851504Y-81515276D01*
X77851504Y-81515276D02*
X77756266Y-81610514D01*
X77756266Y-81610514D02*
X77661028Y-81658133D01*
X78613409Y-81467657D02*
X78661028Y-81420038D01*
X78661028Y-81420038D02*
X78756266Y-81372419D01*
X78756266Y-81372419D02*
X78994361Y-81372419D01*
X78994361Y-81372419D02*
X79089599Y-81420038D01*
X79089599Y-81420038D02*
X79137218Y-81467657D01*
X79137218Y-81467657D02*
X79184837Y-81562895D01*
X79184837Y-81562895D02*
X79184837Y-81658133D01*
X79184837Y-81658133D02*
X79137218Y-81800990D01*
X79137218Y-81800990D02*
X78565790Y-82372419D01*
X78565790Y-82372419D02*
X79184837Y-82372419D01*
X79470552Y-81372419D02*
X79803885Y-82372419D01*
X79803885Y-82372419D02*
X80137218Y-81372419D01*
X80375314Y-82753371D02*
X80422933Y-82705752D01*
X80422933Y-82705752D02*
X80518171Y-82562895D01*
X80518171Y-82562895D02*
X80565790Y-82467657D01*
X80565790Y-82467657D02*
X80613409Y-82324800D01*
X80613409Y-82324800D02*
X80661028Y-82086704D01*
X80661028Y-82086704D02*
X80661028Y-81896228D01*
X80661028Y-81896228D02*
X80613409Y-81658133D01*
X80613409Y-81658133D02*
X80565790Y-81515276D01*
X80565790Y-81515276D02*
X80518171Y-81420038D01*
X80518171Y-81420038D02*
X80422933Y-81277180D01*
X80422933Y-81277180D02*
X80375314Y-81229561D01*
X77494360Y-99872419D02*
X77684836Y-99872419D01*
X77684836Y-99872419D02*
X77780074Y-99920038D01*
X77780074Y-99920038D02*
X77875312Y-100015276D01*
X77875312Y-100015276D02*
X77922931Y-100205752D01*
X77922931Y-100205752D02*
X77922931Y-100539085D01*
X77922931Y-100539085D02*
X77875312Y-100729561D01*
X77875312Y-100729561D02*
X77780074Y-100824800D01*
X77780074Y-100824800D02*
X77684836Y-100872419D01*
X77684836Y-100872419D02*
X77494360Y-100872419D01*
X77494360Y-100872419D02*
X77399122Y-100824800D01*
X77399122Y-100824800D02*
X77303884Y-100729561D01*
X77303884Y-100729561D02*
X77256265Y-100539085D01*
X77256265Y-100539085D02*
X77256265Y-100205752D01*
X77256265Y-100205752D02*
X77303884Y-100015276D01*
X77303884Y-100015276D02*
X77399122Y-99920038D01*
X77399122Y-99920038D02*
X77494360Y-99872419D01*
X78351503Y-99872419D02*
X78351503Y-100681942D01*
X78351503Y-100681942D02*
X78399122Y-100777180D01*
X78399122Y-100777180D02*
X78446741Y-100824800D01*
X78446741Y-100824800D02*
X78541979Y-100872419D01*
X78541979Y-100872419D02*
X78732455Y-100872419D01*
X78732455Y-100872419D02*
X78827693Y-100824800D01*
X78827693Y-100824800D02*
X78875312Y-100777180D01*
X78875312Y-100777180D02*
X78922931Y-100681942D01*
X78922931Y-100681942D02*
X78922931Y-99872419D01*
X79256265Y-99872419D02*
X79827693Y-99872419D01*
X79541979Y-100872419D02*
X79541979Y-99872419D01*
X102303884Y-82372419D02*
X102303884Y-81372419D01*
X103494359Y-81324800D02*
X102637217Y-82610514D01*
X103827693Y-82372419D02*
X103827693Y-81372419D01*
X103827693Y-81372419D02*
X104208645Y-81372419D01*
X104208645Y-81372419D02*
X104303883Y-81420038D01*
X104303883Y-81420038D02*
X104351502Y-81467657D01*
X104351502Y-81467657D02*
X104399121Y-81562895D01*
X104399121Y-81562895D02*
X104399121Y-81705752D01*
X104399121Y-81705752D02*
X104351502Y-81800990D01*
X104351502Y-81800990D02*
X104303883Y-81848609D01*
X104303883Y-81848609D02*
X104208645Y-81896228D01*
X104208645Y-81896228D02*
X103827693Y-81896228D01*
X104827693Y-81991466D02*
X105589598Y-81991466D01*
X77494360Y-114872419D02*
X77684836Y-114872419D01*
X77684836Y-114872419D02*
X77780074Y-114920038D01*
X77780074Y-114920038D02*
X77875312Y-115015276D01*
X77875312Y-115015276D02*
X77922931Y-115205752D01*
X77922931Y-115205752D02*
X77922931Y-115539085D01*
X77922931Y-115539085D02*
X77875312Y-115729561D01*
X77875312Y-115729561D02*
X77780074Y-115824800D01*
X77780074Y-115824800D02*
X77684836Y-115872419D01*
X77684836Y-115872419D02*
X77494360Y-115872419D01*
X77494360Y-115872419D02*
X77399122Y-115824800D01*
X77399122Y-115824800D02*
X77303884Y-115729561D01*
X77303884Y-115729561D02*
X77256265Y-115539085D01*
X77256265Y-115539085D02*
X77256265Y-115205752D01*
X77256265Y-115205752D02*
X77303884Y-115015276D01*
X77303884Y-115015276D02*
X77399122Y-114920038D01*
X77399122Y-114920038D02*
X77494360Y-114872419D01*
X78351503Y-114872419D02*
X78351503Y-115681942D01*
X78351503Y-115681942D02*
X78399122Y-115777180D01*
X78399122Y-115777180D02*
X78446741Y-115824800D01*
X78446741Y-115824800D02*
X78541979Y-115872419D01*
X78541979Y-115872419D02*
X78732455Y-115872419D01*
X78732455Y-115872419D02*
X78827693Y-115824800D01*
X78827693Y-115824800D02*
X78875312Y-115777180D01*
X78875312Y-115777180D02*
X78922931Y-115681942D01*
X78922931Y-115681942D02*
X78922931Y-114872419D01*
X79256265Y-114872419D02*
X79827693Y-114872419D01*
X79541979Y-115872419D02*
X79541979Y-114872419D01*
X86303884Y-62491466D02*
X87065789Y-62491466D01*
X86684836Y-62872419D02*
X86684836Y-62110514D01*
X77827693Y-117420038D02*
X77732455Y-117372419D01*
X77732455Y-117372419D02*
X77589598Y-117372419D01*
X77589598Y-117372419D02*
X77446741Y-117420038D01*
X77446741Y-117420038D02*
X77351503Y-117515276D01*
X77351503Y-117515276D02*
X77303884Y-117610514D01*
X77303884Y-117610514D02*
X77256265Y-117800990D01*
X77256265Y-117800990D02*
X77256265Y-117943847D01*
X77256265Y-117943847D02*
X77303884Y-118134323D01*
X77303884Y-118134323D02*
X77351503Y-118229561D01*
X77351503Y-118229561D02*
X77446741Y-118324800D01*
X77446741Y-118324800D02*
X77589598Y-118372419D01*
X77589598Y-118372419D02*
X77684836Y-118372419D01*
X77684836Y-118372419D02*
X77827693Y-118324800D01*
X77827693Y-118324800D02*
X77875312Y-118277180D01*
X77875312Y-118277180D02*
X77875312Y-117943847D01*
X77875312Y-117943847D02*
X77684836Y-117943847D01*
X78303884Y-118372419D02*
X78303884Y-117372419D01*
X78303884Y-117372419D02*
X78875312Y-118372419D01*
X78875312Y-118372419D02*
X78875312Y-117372419D01*
X79351503Y-118372419D02*
X79351503Y-117372419D01*
X79351503Y-117372419D02*
X79589598Y-117372419D01*
X79589598Y-117372419D02*
X79732455Y-117420038D01*
X79732455Y-117420038D02*
X79827693Y-117515276D01*
X79827693Y-117515276D02*
X79875312Y-117610514D01*
X79875312Y-117610514D02*
X79922931Y-117800990D01*
X79922931Y-117800990D02*
X79922931Y-117943847D01*
X79922931Y-117943847D02*
X79875312Y-118134323D01*
X79875312Y-118134323D02*
X79827693Y-118229561D01*
X79827693Y-118229561D02*
X79732455Y-118324800D01*
X79732455Y-118324800D02*
X79589598Y-118372419D01*
X79589598Y-118372419D02*
X79351503Y-118372419D01*
X78137217Y-64348609D02*
X78280074Y-64396228D01*
X78280074Y-64396228D02*
X78327693Y-64443847D01*
X78327693Y-64443847D02*
X78375312Y-64539085D01*
X78375312Y-64539085D02*
X78375312Y-64681942D01*
X78375312Y-64681942D02*
X78327693Y-64777180D01*
X78327693Y-64777180D02*
X78280074Y-64824800D01*
X78280074Y-64824800D02*
X78184836Y-64872419D01*
X78184836Y-64872419D02*
X77803884Y-64872419D01*
X77803884Y-64872419D02*
X77803884Y-63872419D01*
X77803884Y-63872419D02*
X78137217Y-63872419D01*
X78137217Y-63872419D02*
X78232455Y-63920038D01*
X78232455Y-63920038D02*
X78280074Y-63967657D01*
X78280074Y-63967657D02*
X78327693Y-64062895D01*
X78327693Y-64062895D02*
X78327693Y-64158133D01*
X78327693Y-64158133D02*
X78280074Y-64253371D01*
X78280074Y-64253371D02*
X78232455Y-64300990D01*
X78232455Y-64300990D02*
X78137217Y-64348609D01*
X78137217Y-64348609D02*
X77803884Y-64348609D01*
X78756265Y-64586704D02*
X79232455Y-64586704D01*
X78661027Y-64872419D02*
X78994360Y-63872419D01*
X78994360Y-63872419D02*
X79327693Y-64872419D01*
X79518170Y-63872419D02*
X80089598Y-63872419D01*
X79803884Y-64872419D02*
X79803884Y-63872419D01*
X80280075Y-63872419D02*
X80851503Y-63872419D01*
X80565789Y-64872419D02*
X80565789Y-63872419D01*
X81184837Y-64348609D02*
X81518170Y-64348609D01*
X81661027Y-64872419D02*
X81184837Y-64872419D01*
X81184837Y-64872419D02*
X81184837Y-63872419D01*
X81184837Y-63872419D02*
X81661027Y-63872419D01*
X82661027Y-64872419D02*
X82327694Y-64396228D01*
X82089599Y-64872419D02*
X82089599Y-63872419D01*
X82089599Y-63872419D02*
X82470551Y-63872419D01*
X82470551Y-63872419D02*
X82565789Y-63920038D01*
X82565789Y-63920038D02*
X82613408Y-63967657D01*
X82613408Y-63967657D02*
X82661027Y-64062895D01*
X82661027Y-64062895D02*
X82661027Y-64205752D01*
X82661027Y-64205752D02*
X82613408Y-64300990D01*
X82613408Y-64300990D02*
X82565789Y-64348609D01*
X82565789Y-64348609D02*
X82470551Y-64396228D01*
X82470551Y-64396228D02*
X82089599Y-64396228D01*
X83280075Y-64396228D02*
X83280075Y-64872419D01*
X82946742Y-63872419D02*
X83280075Y-64396228D01*
X83280075Y-64396228D02*
X83613408Y-63872419D01*
X84565790Y-63872419D02*
X85137218Y-63872419D01*
X84851504Y-64872419D02*
X84851504Y-63872419D01*
X85470552Y-64348609D02*
X85803885Y-64348609D01*
X85946742Y-64872419D02*
X85470552Y-64872419D01*
X85470552Y-64872419D02*
X85470552Y-63872419D01*
X85470552Y-63872419D02*
X85946742Y-63872419D01*
X86946742Y-64872419D02*
X86613409Y-64396228D01*
X86375314Y-64872419D02*
X86375314Y-63872419D01*
X86375314Y-63872419D02*
X86756266Y-63872419D01*
X86756266Y-63872419D02*
X86851504Y-63920038D01*
X86851504Y-63920038D02*
X86899123Y-63967657D01*
X86899123Y-63967657D02*
X86946742Y-64062895D01*
X86946742Y-64062895D02*
X86946742Y-64205752D01*
X86946742Y-64205752D02*
X86899123Y-64300990D01*
X86899123Y-64300990D02*
X86851504Y-64348609D01*
X86851504Y-64348609D02*
X86756266Y-64396228D01*
X86756266Y-64396228D02*
X86375314Y-64396228D01*
X87375314Y-64872419D02*
X87375314Y-63872419D01*
X87375314Y-63872419D02*
X87708647Y-64586704D01*
X87708647Y-64586704D02*
X88041980Y-63872419D01*
X88041980Y-63872419D02*
X88041980Y-64872419D01*
X88518171Y-64872419D02*
X88518171Y-63872419D01*
X88994361Y-64872419D02*
X88994361Y-63872419D01*
X88994361Y-63872419D02*
X89565789Y-64872419D01*
X89565789Y-64872419D02*
X89565789Y-63872419D01*
X89994361Y-64586704D02*
X90470551Y-64586704D01*
X89899123Y-64872419D02*
X90232456Y-63872419D01*
X90232456Y-63872419D02*
X90565789Y-64872419D01*
X91375313Y-64872419D02*
X90899123Y-64872419D01*
X90899123Y-64872419D02*
X90899123Y-63872419D01*
X96661027Y-105872419D02*
X96994360Y-106872419D01*
X96994360Y-106872419D02*
X97327693Y-105872419D01*
X98232455Y-106777180D02*
X98184836Y-106824800D01*
X98184836Y-106824800D02*
X98041979Y-106872419D01*
X98041979Y-106872419D02*
X97946741Y-106872419D01*
X97946741Y-106872419D02*
X97803884Y-106824800D01*
X97803884Y-106824800D02*
X97708646Y-106729561D01*
X97708646Y-106729561D02*
X97661027Y-106634323D01*
X97661027Y-106634323D02*
X97613408Y-106443847D01*
X97613408Y-106443847D02*
X97613408Y-106300990D01*
X97613408Y-106300990D02*
X97661027Y-106110514D01*
X97661027Y-106110514D02*
X97708646Y-106015276D01*
X97708646Y-106015276D02*
X97803884Y-105920038D01*
X97803884Y-105920038D02*
X97946741Y-105872419D01*
X97946741Y-105872419D02*
X98041979Y-105872419D01*
X98041979Y-105872419D02*
X98184836Y-105920038D01*
X98184836Y-105920038D02*
X98232455Y-105967657D01*
X99232455Y-106777180D02*
X99184836Y-106824800D01*
X99184836Y-106824800D02*
X99041979Y-106872419D01*
X99041979Y-106872419D02*
X98946741Y-106872419D01*
X98946741Y-106872419D02*
X98803884Y-106824800D01*
X98803884Y-106824800D02*
X98708646Y-106729561D01*
X98708646Y-106729561D02*
X98661027Y-106634323D01*
X98661027Y-106634323D02*
X98613408Y-106443847D01*
X98613408Y-106443847D02*
X98613408Y-106300990D01*
X98613408Y-106300990D02*
X98661027Y-106110514D01*
X98661027Y-106110514D02*
X98708646Y-106015276D01*
X98708646Y-106015276D02*
X98803884Y-105920038D01*
X98803884Y-105920038D02*
X98946741Y-105872419D01*
X98946741Y-105872419D02*
X99041979Y-105872419D01*
X99041979Y-105872419D02*
X99184836Y-105920038D01*
X99184836Y-105920038D02*
X99232455Y-105967657D01*
X110803884Y-132348609D02*
X111137217Y-132348609D01*
X111280074Y-132872419D02*
X110803884Y-132872419D01*
X110803884Y-132872419D02*
X110803884Y-131872419D01*
X110803884Y-131872419D02*
X111280074Y-131872419D01*
X111661027Y-132824800D02*
X111803884Y-132872419D01*
X111803884Y-132872419D02*
X112041979Y-132872419D01*
X112041979Y-132872419D02*
X112137217Y-132824800D01*
X112137217Y-132824800D02*
X112184836Y-132777180D01*
X112184836Y-132777180D02*
X112232455Y-132681942D01*
X112232455Y-132681942D02*
X112232455Y-132586704D01*
X112232455Y-132586704D02*
X112184836Y-132491466D01*
X112184836Y-132491466D02*
X112137217Y-132443847D01*
X112137217Y-132443847D02*
X112041979Y-132396228D01*
X112041979Y-132396228D02*
X111851503Y-132348609D01*
X111851503Y-132348609D02*
X111756265Y-132300990D01*
X111756265Y-132300990D02*
X111708646Y-132253371D01*
X111708646Y-132253371D02*
X111661027Y-132158133D01*
X111661027Y-132158133D02*
X111661027Y-132062895D01*
X111661027Y-132062895D02*
X111708646Y-131967657D01*
X111708646Y-131967657D02*
X111756265Y-131920038D01*
X111756265Y-131920038D02*
X111851503Y-131872419D01*
X111851503Y-131872419D02*
X112089598Y-131872419D01*
X112089598Y-131872419D02*
X112232455Y-131920038D01*
X112661027Y-132872419D02*
X112661027Y-131872419D01*
X112661027Y-131872419D02*
X113041979Y-131872419D01*
X113041979Y-131872419D02*
X113137217Y-131920038D01*
X113137217Y-131920038D02*
X113184836Y-131967657D01*
X113184836Y-131967657D02*
X113232455Y-132062895D01*
X113232455Y-132062895D02*
X113232455Y-132205752D01*
X113232455Y-132205752D02*
X113184836Y-132300990D01*
X113184836Y-132300990D02*
X113137217Y-132348609D01*
X113137217Y-132348609D02*
X113041979Y-132396228D01*
X113041979Y-132396228D02*
X112661027Y-132396228D01*
X113565789Y-131872419D02*
X114184836Y-131872419D01*
X114184836Y-131872419D02*
X113851503Y-132253371D01*
X113851503Y-132253371D02*
X113994360Y-132253371D01*
X113994360Y-132253371D02*
X114089598Y-132300990D01*
X114089598Y-132300990D02*
X114137217Y-132348609D01*
X114137217Y-132348609D02*
X114184836Y-132443847D01*
X114184836Y-132443847D02*
X114184836Y-132681942D01*
X114184836Y-132681942D02*
X114137217Y-132777180D01*
X114137217Y-132777180D02*
X114089598Y-132824800D01*
X114089598Y-132824800D02*
X113994360Y-132872419D01*
X113994360Y-132872419D02*
X113708646Y-132872419D01*
X113708646Y-132872419D02*
X113613408Y-132824800D01*
X113613408Y-132824800D02*
X113565789Y-132777180D01*
X114565789Y-131967657D02*
X114613408Y-131920038D01*
X114613408Y-131920038D02*
X114708646Y-131872419D01*
X114708646Y-131872419D02*
X114946741Y-131872419D01*
X114946741Y-131872419D02*
X115041979Y-131920038D01*
X115041979Y-131920038D02*
X115089598Y-131967657D01*
X115089598Y-131967657D02*
X115137217Y-132062895D01*
X115137217Y-132062895D02*
X115137217Y-132158133D01*
X115137217Y-132158133D02*
X115089598Y-132300990D01*
X115089598Y-132300990D02*
X114518170Y-132872419D01*
X114518170Y-132872419D02*
X115137217Y-132872419D01*
X77161027Y-97372419D02*
X77494360Y-98372419D01*
X77494360Y-98372419D02*
X77827693Y-97372419D01*
X78732455Y-98277180D02*
X78684836Y-98324800D01*
X78684836Y-98324800D02*
X78541979Y-98372419D01*
X78541979Y-98372419D02*
X78446741Y-98372419D01*
X78446741Y-98372419D02*
X78303884Y-98324800D01*
X78303884Y-98324800D02*
X78208646Y-98229561D01*
X78208646Y-98229561D02*
X78161027Y-98134323D01*
X78161027Y-98134323D02*
X78113408Y-97943847D01*
X78113408Y-97943847D02*
X78113408Y-97800990D01*
X78113408Y-97800990D02*
X78161027Y-97610514D01*
X78161027Y-97610514D02*
X78208646Y-97515276D01*
X78208646Y-97515276D02*
X78303884Y-97420038D01*
X78303884Y-97420038D02*
X78446741Y-97372419D01*
X78446741Y-97372419D02*
X78541979Y-97372419D01*
X78541979Y-97372419D02*
X78684836Y-97420038D01*
X78684836Y-97420038D02*
X78732455Y-97467657D01*
X79732455Y-98277180D02*
X79684836Y-98324800D01*
X79684836Y-98324800D02*
X79541979Y-98372419D01*
X79541979Y-98372419D02*
X79446741Y-98372419D01*
X79446741Y-98372419D02*
X79303884Y-98324800D01*
X79303884Y-98324800D02*
X79208646Y-98229561D01*
X79208646Y-98229561D02*
X79161027Y-98134323D01*
X79161027Y-98134323D02*
X79113408Y-97943847D01*
X79113408Y-97943847D02*
X79113408Y-97800990D01*
X79113408Y-97800990D02*
X79161027Y-97610514D01*
X79161027Y-97610514D02*
X79208646Y-97515276D01*
X79208646Y-97515276D02*
X79303884Y-97420038D01*
X79303884Y-97420038D02*
X79446741Y-97372419D01*
X79446741Y-97372419D02*
X79541979Y-97372419D01*
X79541979Y-97372419D02*
X79684836Y-97420038D01*
X79684836Y-97420038D02*
X79732455Y-97467657D01*
X61303884Y-62991466D02*
X62065789Y-62991466D01*
X118872419Y-107719925D02*
X118872419Y-108196115D01*
X118872419Y-108196115D02*
X117872419Y-108196115D01*
X118586704Y-107434210D02*
X118586704Y-106958020D01*
X118872419Y-107529448D02*
X117872419Y-107196115D01*
X117872419Y-107196115D02*
X118872419Y-106862782D01*
X118872419Y-106529448D02*
X117872419Y-106529448D01*
X117872419Y-106529448D02*
X118872419Y-105958020D01*
X118872419Y-105958020D02*
X117872419Y-105958020D01*
X118872419Y-104719924D02*
X117872419Y-104719924D01*
X117872419Y-104719924D02*
X118586704Y-104386591D01*
X118586704Y-104386591D02*
X117872419Y-104053258D01*
X117872419Y-104053258D02*
X118872419Y-104053258D01*
X117872419Y-103386591D02*
X117872419Y-103196115D01*
X117872419Y-103196115D02*
X117920038Y-103100877D01*
X117920038Y-103100877D02*
X118015276Y-103005639D01*
X118015276Y-103005639D02*
X118205752Y-102958020D01*
X118205752Y-102958020D02*
X118539085Y-102958020D01*
X118539085Y-102958020D02*
X118729561Y-103005639D01*
X118729561Y-103005639D02*
X118824800Y-103100877D01*
X118824800Y-103100877D02*
X118872419Y-103196115D01*
X118872419Y-103196115D02*
X118872419Y-103386591D01*
X118872419Y-103386591D02*
X118824800Y-103481829D01*
X118824800Y-103481829D02*
X118729561Y-103577067D01*
X118729561Y-103577067D02*
X118539085Y-103624686D01*
X118539085Y-103624686D02*
X118205752Y-103624686D01*
X118205752Y-103624686D02*
X118015276Y-103577067D01*
X118015276Y-103577067D02*
X117920038Y-103481829D01*
X117920038Y-103481829D02*
X117872419Y-103386591D01*
X118872419Y-102529448D02*
X117872419Y-102529448D01*
X117872419Y-102529448D02*
X117872419Y-102291353D01*
X117872419Y-102291353D02*
X117920038Y-102148496D01*
X117920038Y-102148496D02*
X118015276Y-102053258D01*
X118015276Y-102053258D02*
X118110514Y-102005639D01*
X118110514Y-102005639D02*
X118300990Y-101958020D01*
X118300990Y-101958020D02*
X118443847Y-101958020D01*
X118443847Y-101958020D02*
X118634323Y-102005639D01*
X118634323Y-102005639D02*
X118729561Y-102053258D01*
X118729561Y-102053258D02*
X118824800Y-102148496D01*
X118824800Y-102148496D02*
X118872419Y-102291353D01*
X118872419Y-102291353D02*
X118872419Y-102529448D01*
X117872419Y-101529448D02*
X118681942Y-101529448D01*
X118681942Y-101529448D02*
X118777180Y-101481829D01*
X118777180Y-101481829D02*
X118824800Y-101434210D01*
X118824800Y-101434210D02*
X118872419Y-101338972D01*
X118872419Y-101338972D02*
X118872419Y-101148496D01*
X118872419Y-101148496D02*
X118824800Y-101053258D01*
X118824800Y-101053258D02*
X118777180Y-101005639D01*
X118777180Y-101005639D02*
X118681942Y-100958020D01*
X118681942Y-100958020D02*
X117872419Y-100958020D01*
X118872419Y-100005639D02*
X118872419Y-100481829D01*
X118872419Y-100481829D02*
X117872419Y-100481829D01*
X118348609Y-99672305D02*
X118348609Y-99338972D01*
X118872419Y-99196115D02*
X118872419Y-99672305D01*
X118872419Y-99672305D02*
X117872419Y-99672305D01*
X117872419Y-99672305D02*
X117872419Y-99196115D01*
X118348609Y-97672305D02*
X118348609Y-98005638D01*
X118872419Y-98005638D02*
X117872419Y-98005638D01*
X117872419Y-98005638D02*
X117872419Y-97529448D01*
X118586704Y-97196114D02*
X118586704Y-96719924D01*
X118872419Y-97291352D02*
X117872419Y-96958019D01*
X117872419Y-96958019D02*
X118872419Y-96624686D01*
X118777180Y-95719924D02*
X118824800Y-95767543D01*
X118824800Y-95767543D02*
X118872419Y-95910400D01*
X118872419Y-95910400D02*
X118872419Y-96005638D01*
X118872419Y-96005638D02*
X118824800Y-96148495D01*
X118824800Y-96148495D02*
X118729561Y-96243733D01*
X118729561Y-96243733D02*
X118634323Y-96291352D01*
X118634323Y-96291352D02*
X118443847Y-96338971D01*
X118443847Y-96338971D02*
X118300990Y-96338971D01*
X118300990Y-96338971D02*
X118110514Y-96291352D01*
X118110514Y-96291352D02*
X118015276Y-96243733D01*
X118015276Y-96243733D02*
X117920038Y-96148495D01*
X117920038Y-96148495D02*
X117872419Y-96005638D01*
X117872419Y-96005638D02*
X117872419Y-95910400D01*
X117872419Y-95910400D02*
X117920038Y-95767543D01*
X117920038Y-95767543D02*
X117967657Y-95719924D01*
X118872419Y-95291352D02*
X117872419Y-95291352D01*
X118872419Y-94815162D02*
X117872419Y-94815162D01*
X117872419Y-94815162D02*
X118872419Y-94243734D01*
X118872419Y-94243734D02*
X117872419Y-94243734D01*
X117920038Y-93243734D02*
X117872419Y-93338972D01*
X117872419Y-93338972D02*
X117872419Y-93481829D01*
X117872419Y-93481829D02*
X117920038Y-93624686D01*
X117920038Y-93624686D02*
X118015276Y-93719924D01*
X118015276Y-93719924D02*
X118110514Y-93767543D01*
X118110514Y-93767543D02*
X118300990Y-93815162D01*
X118300990Y-93815162D02*
X118443847Y-93815162D01*
X118443847Y-93815162D02*
X118634323Y-93767543D01*
X118634323Y-93767543D02*
X118729561Y-93719924D01*
X118729561Y-93719924D02*
X118824800Y-93624686D01*
X118824800Y-93624686D02*
X118872419Y-93481829D01*
X118872419Y-93481829D02*
X118872419Y-93386591D01*
X118872419Y-93386591D02*
X118824800Y-93243734D01*
X118824800Y-93243734D02*
X118777180Y-93196115D01*
X118777180Y-93196115D02*
X118443847Y-93196115D01*
X118443847Y-93196115D02*
X118443847Y-93386591D01*
X118872419Y-92005638D02*
X117872419Y-92005638D01*
X117872419Y-92005638D02*
X117872419Y-91767543D01*
X117872419Y-91767543D02*
X117920038Y-91624686D01*
X117920038Y-91624686D02*
X118015276Y-91529448D01*
X118015276Y-91529448D02*
X118110514Y-91481829D01*
X118110514Y-91481829D02*
X118300990Y-91434210D01*
X118300990Y-91434210D02*
X118443847Y-91434210D01*
X118443847Y-91434210D02*
X118634323Y-91481829D01*
X118634323Y-91481829D02*
X118729561Y-91529448D01*
X118729561Y-91529448D02*
X118824800Y-91624686D01*
X118824800Y-91624686D02*
X118872419Y-91767543D01*
X118872419Y-91767543D02*
X118872419Y-92005638D01*
X117872419Y-90815162D02*
X117872419Y-90624686D01*
X117872419Y-90624686D02*
X117920038Y-90529448D01*
X117920038Y-90529448D02*
X118015276Y-90434210D01*
X118015276Y-90434210D02*
X118205752Y-90386591D01*
X118205752Y-90386591D02*
X118539085Y-90386591D01*
X118539085Y-90386591D02*
X118729561Y-90434210D01*
X118729561Y-90434210D02*
X118824800Y-90529448D01*
X118824800Y-90529448D02*
X118872419Y-90624686D01*
X118872419Y-90624686D02*
X118872419Y-90815162D01*
X118872419Y-90815162D02*
X118824800Y-90910400D01*
X118824800Y-90910400D02*
X118729561Y-91005638D01*
X118729561Y-91005638D02*
X118539085Y-91053257D01*
X118539085Y-91053257D02*
X118205752Y-91053257D01*
X118205752Y-91053257D02*
X118015276Y-91005638D01*
X118015276Y-91005638D02*
X117920038Y-90910400D01*
X117920038Y-90910400D02*
X117872419Y-90815162D01*
X117872419Y-90053257D02*
X118872419Y-89815162D01*
X118872419Y-89815162D02*
X118158133Y-89624686D01*
X118158133Y-89624686D02*
X118872419Y-89434210D01*
X118872419Y-89434210D02*
X117872419Y-89196115D01*
X118872419Y-88815162D02*
X117872419Y-88815162D01*
X117872419Y-88815162D02*
X118872419Y-88243734D01*
X118872419Y-88243734D02*
X117872419Y-88243734D01*
X77827693Y-102420038D02*
X77732455Y-102372419D01*
X77732455Y-102372419D02*
X77589598Y-102372419D01*
X77589598Y-102372419D02*
X77446741Y-102420038D01*
X77446741Y-102420038D02*
X77351503Y-102515276D01*
X77351503Y-102515276D02*
X77303884Y-102610514D01*
X77303884Y-102610514D02*
X77256265Y-102800990D01*
X77256265Y-102800990D02*
X77256265Y-102943847D01*
X77256265Y-102943847D02*
X77303884Y-103134323D01*
X77303884Y-103134323D02*
X77351503Y-103229561D01*
X77351503Y-103229561D02*
X77446741Y-103324800D01*
X77446741Y-103324800D02*
X77589598Y-103372419D01*
X77589598Y-103372419D02*
X77684836Y-103372419D01*
X77684836Y-103372419D02*
X77827693Y-103324800D01*
X77827693Y-103324800D02*
X77875312Y-103277180D01*
X77875312Y-103277180D02*
X77875312Y-102943847D01*
X77875312Y-102943847D02*
X77684836Y-102943847D01*
X78303884Y-103372419D02*
X78303884Y-102372419D01*
X78303884Y-102372419D02*
X78875312Y-103372419D01*
X78875312Y-103372419D02*
X78875312Y-102372419D01*
X79351503Y-103372419D02*
X79351503Y-102372419D01*
X79351503Y-102372419D02*
X79589598Y-102372419D01*
X79589598Y-102372419D02*
X79732455Y-102420038D01*
X79732455Y-102420038D02*
X79827693Y-102515276D01*
X79827693Y-102515276D02*
X79875312Y-102610514D01*
X79875312Y-102610514D02*
X79922931Y-102800990D01*
X79922931Y-102800990D02*
X79922931Y-102943847D01*
X79922931Y-102943847D02*
X79875312Y-103134323D01*
X79875312Y-103134323D02*
X79827693Y-103229561D01*
X79827693Y-103229561D02*
X79732455Y-103324800D01*
X79732455Y-103324800D02*
X79589598Y-103372419D01*
X79589598Y-103372419D02*
X79351503Y-103372419D01*
X71256265Y-100086704D02*
X71732455Y-100086704D01*
X71161027Y-100372419D02*
X71494360Y-99372419D01*
X71494360Y-99372419D02*
X71827693Y-100372419D01*
X72732455Y-100277180D02*
X72684836Y-100324800D01*
X72684836Y-100324800D02*
X72541979Y-100372419D01*
X72541979Y-100372419D02*
X72446741Y-100372419D01*
X72446741Y-100372419D02*
X72303884Y-100324800D01*
X72303884Y-100324800D02*
X72208646Y-100229561D01*
X72208646Y-100229561D02*
X72161027Y-100134323D01*
X72161027Y-100134323D02*
X72113408Y-99943847D01*
X72113408Y-99943847D02*
X72113408Y-99800990D01*
X72113408Y-99800990D02*
X72161027Y-99610514D01*
X72161027Y-99610514D02*
X72208646Y-99515276D01*
X72208646Y-99515276D02*
X72303884Y-99420038D01*
X72303884Y-99420038D02*
X72446741Y-99372419D01*
X72446741Y-99372419D02*
X72541979Y-99372419D01*
X72541979Y-99372419D02*
X72684836Y-99420038D01*
X72684836Y-99420038D02*
X72732455Y-99467657D01*
X73113408Y-100324800D02*
X73256265Y-100372419D01*
X73256265Y-100372419D02*
X73494360Y-100372419D01*
X73494360Y-100372419D02*
X73589598Y-100324800D01*
X73589598Y-100324800D02*
X73637217Y-100277180D01*
X73637217Y-100277180D02*
X73684836Y-100181942D01*
X73684836Y-100181942D02*
X73684836Y-100086704D01*
X73684836Y-100086704D02*
X73637217Y-99991466D01*
X73637217Y-99991466D02*
X73589598Y-99943847D01*
X73589598Y-99943847D02*
X73494360Y-99896228D01*
X73494360Y-99896228D02*
X73303884Y-99848609D01*
X73303884Y-99848609D02*
X73208646Y-99800990D01*
X73208646Y-99800990D02*
X73161027Y-99753371D01*
X73161027Y-99753371D02*
X73113408Y-99658133D01*
X73113408Y-99658133D02*
X73113408Y-99562895D01*
X73113408Y-99562895D02*
X73161027Y-99467657D01*
X73161027Y-99467657D02*
X73208646Y-99420038D01*
X73208646Y-99420038D02*
X73303884Y-99372419D01*
X73303884Y-99372419D02*
X73541979Y-99372419D01*
X73541979Y-99372419D02*
X73684836Y-99420038D01*
X74637217Y-100372419D02*
X74065789Y-100372419D01*
X74351503Y-100372419D02*
X74351503Y-99372419D01*
X74351503Y-99372419D02*
X74256265Y-99515276D01*
X74256265Y-99515276D02*
X74161027Y-99610514D01*
X74161027Y-99610514D02*
X74065789Y-99658133D01*
X71256265Y-115586704D02*
X71732455Y-115586704D01*
X71161027Y-115872419D02*
X71494360Y-114872419D01*
X71494360Y-114872419D02*
X71827693Y-115872419D01*
X72732455Y-115777180D02*
X72684836Y-115824800D01*
X72684836Y-115824800D02*
X72541979Y-115872419D01*
X72541979Y-115872419D02*
X72446741Y-115872419D01*
X72446741Y-115872419D02*
X72303884Y-115824800D01*
X72303884Y-115824800D02*
X72208646Y-115729561D01*
X72208646Y-115729561D02*
X72161027Y-115634323D01*
X72161027Y-115634323D02*
X72113408Y-115443847D01*
X72113408Y-115443847D02*
X72113408Y-115300990D01*
X72113408Y-115300990D02*
X72161027Y-115110514D01*
X72161027Y-115110514D02*
X72208646Y-115015276D01*
X72208646Y-115015276D02*
X72303884Y-114920038D01*
X72303884Y-114920038D02*
X72446741Y-114872419D01*
X72446741Y-114872419D02*
X72541979Y-114872419D01*
X72541979Y-114872419D02*
X72684836Y-114920038D01*
X72684836Y-114920038D02*
X72732455Y-114967657D01*
X73113408Y-115824800D02*
X73256265Y-115872419D01*
X73256265Y-115872419D02*
X73494360Y-115872419D01*
X73494360Y-115872419D02*
X73589598Y-115824800D01*
X73589598Y-115824800D02*
X73637217Y-115777180D01*
X73637217Y-115777180D02*
X73684836Y-115681942D01*
X73684836Y-115681942D02*
X73684836Y-115586704D01*
X73684836Y-115586704D02*
X73637217Y-115491466D01*
X73637217Y-115491466D02*
X73589598Y-115443847D01*
X73589598Y-115443847D02*
X73494360Y-115396228D01*
X73494360Y-115396228D02*
X73303884Y-115348609D01*
X73303884Y-115348609D02*
X73208646Y-115300990D01*
X73208646Y-115300990D02*
X73161027Y-115253371D01*
X73161027Y-115253371D02*
X73113408Y-115158133D01*
X73113408Y-115158133D02*
X73113408Y-115062895D01*
X73113408Y-115062895D02*
X73161027Y-114967657D01*
X73161027Y-114967657D02*
X73208646Y-114920038D01*
X73208646Y-114920038D02*
X73303884Y-114872419D01*
X73303884Y-114872419D02*
X73541979Y-114872419D01*
X73541979Y-114872419D02*
X73684836Y-114920038D01*
X74065789Y-114967657D02*
X74113408Y-114920038D01*
X74113408Y-114920038D02*
X74208646Y-114872419D01*
X74208646Y-114872419D02*
X74446741Y-114872419D01*
X74446741Y-114872419D02*
X74541979Y-114920038D01*
X74541979Y-114920038D02*
X74589598Y-114967657D01*
X74589598Y-114967657D02*
X74637217Y-115062895D01*
X74637217Y-115062895D02*
X74637217Y-115158133D01*
X74637217Y-115158133D02*
X74589598Y-115300990D01*
X74589598Y-115300990D02*
X74018170Y-115872419D01*
X74018170Y-115872419D02*
X74637217Y-115872419D01*
D11*
X110190476Y-89184819D02*
X110190476Y-89899104D01*
X110190476Y-89899104D02*
X110142857Y-90041961D01*
X110142857Y-90041961D02*
X110047619Y-90137200D01*
X110047619Y-90137200D02*
X109904762Y-90184819D01*
X109904762Y-90184819D02*
X109809524Y-90184819D01*
X111190476Y-90184819D02*
X110619048Y-90184819D01*
X110904762Y-90184819D02*
X110904762Y-89184819D01*
X110904762Y-89184819D02*
X110809524Y-89327676D01*
X110809524Y-89327676D02*
X110714286Y-89422914D01*
X110714286Y-89422914D02*
X110619048Y-89470533D01*
X111666667Y-90184819D02*
X111857143Y-90184819D01*
X111857143Y-90184819D02*
X111952381Y-90137200D01*
X111952381Y-90137200D02*
X112000000Y-90089580D01*
X112000000Y-90089580D02*
X112095238Y-89946723D01*
X112095238Y-89946723D02*
X112142857Y-89756247D01*
X112142857Y-89756247D02*
X112142857Y-89375295D01*
X112142857Y-89375295D02*
X112095238Y-89280057D01*
X112095238Y-89280057D02*
X112047619Y-89232438D01*
X112047619Y-89232438D02*
X111952381Y-89184819D01*
X111952381Y-89184819D02*
X111761905Y-89184819D01*
X111761905Y-89184819D02*
X111666667Y-89232438D01*
X111666667Y-89232438D02*
X111619048Y-89280057D01*
X111619048Y-89280057D02*
X111571429Y-89375295D01*
X111571429Y-89375295D02*
X111571429Y-89613390D01*
X111571429Y-89613390D02*
X111619048Y-89708628D01*
X111619048Y-89708628D02*
X111666667Y-89756247D01*
X111666667Y-89756247D02*
X111761905Y-89803866D01*
X111761905Y-89803866D02*
X111952381Y-89803866D01*
X111952381Y-89803866D02*
X112047619Y-89756247D01*
X112047619Y-89756247D02*
X112095238Y-89708628D01*
X112095238Y-89708628D02*
X112142857Y-89613390D01*
X113666666Y-89184819D02*
X113666666Y-89899104D01*
X113666666Y-89899104D02*
X113619047Y-90041961D01*
X113619047Y-90041961D02*
X113523809Y-90137200D01*
X113523809Y-90137200D02*
X113380952Y-90184819D01*
X113380952Y-90184819D02*
X113285714Y-90184819D01*
X114285714Y-89613390D02*
X114190476Y-89565771D01*
X114190476Y-89565771D02*
X114142857Y-89518152D01*
X114142857Y-89518152D02*
X114095238Y-89422914D01*
X114095238Y-89422914D02*
X114095238Y-89375295D01*
X114095238Y-89375295D02*
X114142857Y-89280057D01*
X114142857Y-89280057D02*
X114190476Y-89232438D01*
X114190476Y-89232438D02*
X114285714Y-89184819D01*
X114285714Y-89184819D02*
X114476190Y-89184819D01*
X114476190Y-89184819D02*
X114571428Y-89232438D01*
X114571428Y-89232438D02*
X114619047Y-89280057D01*
X114619047Y-89280057D02*
X114666666Y-89375295D01*
X114666666Y-89375295D02*
X114666666Y-89422914D01*
X114666666Y-89422914D02*
X114619047Y-89518152D01*
X114619047Y-89518152D02*
X114571428Y-89565771D01*
X114571428Y-89565771D02*
X114476190Y-89613390D01*
X114476190Y-89613390D02*
X114285714Y-89613390D01*
X114285714Y-89613390D02*
X114190476Y-89661009D01*
X114190476Y-89661009D02*
X114142857Y-89708628D01*
X114142857Y-89708628D02*
X114095238Y-89803866D01*
X114095238Y-89803866D02*
X114095238Y-89994342D01*
X114095238Y-89994342D02*
X114142857Y-90089580D01*
X114142857Y-90089580D02*
X114190476Y-90137200D01*
X114190476Y-90137200D02*
X114285714Y-90184819D01*
X114285714Y-90184819D02*
X114476190Y-90184819D01*
X114476190Y-90184819D02*
X114571428Y-90137200D01*
X114571428Y-90137200D02*
X114619047Y-90089580D01*
X114619047Y-90089580D02*
X114666666Y-89994342D01*
X114666666Y-89994342D02*
X114666666Y-89803866D01*
X114666666Y-89803866D02*
X114619047Y-89708628D01*
X114619047Y-89708628D02*
X114571428Y-89661009D01*
X114571428Y-89661009D02*
X114476190Y-89613390D01*
X94166666Y-107914819D02*
X94166666Y-108629104D01*
X94166666Y-108629104D02*
X94119047Y-108771961D01*
X94119047Y-108771961D02*
X94023809Y-108867200D01*
X94023809Y-108867200D02*
X93880952Y-108914819D01*
X93880952Y-108914819D02*
X93785714Y-108914819D01*
X94547619Y-107914819D02*
X95214285Y-107914819D01*
X95214285Y-107914819D02*
X94785714Y-108914819D01*
X50190476Y-67684819D02*
X50190476Y-68399104D01*
X50190476Y-68399104D02*
X50142857Y-68541961D01*
X50142857Y-68541961D02*
X50047619Y-68637200D01*
X50047619Y-68637200D02*
X49904762Y-68684819D01*
X49904762Y-68684819D02*
X49809524Y-68684819D01*
X51190476Y-68684819D02*
X50619048Y-68684819D01*
X50904762Y-68684819D02*
X50904762Y-67684819D01*
X50904762Y-67684819D02*
X50809524Y-67827676D01*
X50809524Y-67827676D02*
X50714286Y-67922914D01*
X50714286Y-67922914D02*
X50619048Y-67970533D01*
X51523810Y-67684819D02*
X52142857Y-67684819D01*
X52142857Y-67684819D02*
X51809524Y-68065771D01*
X51809524Y-68065771D02*
X51952381Y-68065771D01*
X51952381Y-68065771D02*
X52047619Y-68113390D01*
X52047619Y-68113390D02*
X52095238Y-68161009D01*
X52095238Y-68161009D02*
X52142857Y-68256247D01*
X52142857Y-68256247D02*
X52142857Y-68494342D01*
X52142857Y-68494342D02*
X52095238Y-68589580D01*
X52095238Y-68589580D02*
X52047619Y-68637200D01*
X52047619Y-68637200D02*
X51952381Y-68684819D01*
X51952381Y-68684819D02*
X51666667Y-68684819D01*
X51666667Y-68684819D02*
X51571429Y-68637200D01*
X51571429Y-68637200D02*
X51523810Y-68589580D01*
X122666666Y-116684819D02*
X122666666Y-117399104D01*
X122666666Y-117399104D02*
X122619047Y-117541961D01*
X122619047Y-117541961D02*
X122523809Y-117637200D01*
X122523809Y-117637200D02*
X122380952Y-117684819D01*
X122380952Y-117684819D02*
X122285714Y-117684819D01*
X123095238Y-116780057D02*
X123142857Y-116732438D01*
X123142857Y-116732438D02*
X123238095Y-116684819D01*
X123238095Y-116684819D02*
X123476190Y-116684819D01*
X123476190Y-116684819D02*
X123571428Y-116732438D01*
X123571428Y-116732438D02*
X123619047Y-116780057D01*
X123619047Y-116780057D02*
X123666666Y-116875295D01*
X123666666Y-116875295D02*
X123666666Y-116970533D01*
X123666666Y-116970533D02*
X123619047Y-117113390D01*
X123619047Y-117113390D02*
X123047619Y-117684819D01*
X123047619Y-117684819D02*
X123666666Y-117684819D01*
X49738095Y-151804819D02*
X49738095Y-150804819D01*
X49738095Y-151281009D02*
X50309523Y-151281009D01*
X50309523Y-151804819D02*
X50309523Y-150804819D01*
X51309523Y-151804819D02*
X50738095Y-151804819D01*
X51023809Y-151804819D02*
X51023809Y-150804819D01*
X51023809Y-150804819D02*
X50928571Y-150947676D01*
X50928571Y-150947676D02*
X50833333Y-151042914D01*
X50833333Y-151042914D02*
X50738095Y-151090533D01*
X119690476Y-74184819D02*
X119690476Y-74899104D01*
X119690476Y-74899104D02*
X119642857Y-75041961D01*
X119642857Y-75041961D02*
X119547619Y-75137200D01*
X119547619Y-75137200D02*
X119404762Y-75184819D01*
X119404762Y-75184819D02*
X119309524Y-75184819D01*
X120690476Y-75184819D02*
X120119048Y-75184819D01*
X120404762Y-75184819D02*
X120404762Y-74184819D01*
X120404762Y-74184819D02*
X120309524Y-74327676D01*
X120309524Y-74327676D02*
X120214286Y-74422914D01*
X120214286Y-74422914D02*
X120119048Y-74470533D01*
X121309524Y-74184819D02*
X121404762Y-74184819D01*
X121404762Y-74184819D02*
X121500000Y-74232438D01*
X121500000Y-74232438D02*
X121547619Y-74280057D01*
X121547619Y-74280057D02*
X121595238Y-74375295D01*
X121595238Y-74375295D02*
X121642857Y-74565771D01*
X121642857Y-74565771D02*
X121642857Y-74803866D01*
X121642857Y-74803866D02*
X121595238Y-74994342D01*
X121595238Y-74994342D02*
X121547619Y-75089580D01*
X121547619Y-75089580D02*
X121500000Y-75137200D01*
X121500000Y-75137200D02*
X121404762Y-75184819D01*
X121404762Y-75184819D02*
X121309524Y-75184819D01*
X121309524Y-75184819D02*
X121214286Y-75137200D01*
X121214286Y-75137200D02*
X121166667Y-75089580D01*
X121166667Y-75089580D02*
X121119048Y-74994342D01*
X121119048Y-74994342D02*
X121071429Y-74803866D01*
X121071429Y-74803866D02*
X121071429Y-74565771D01*
X121071429Y-74565771D02*
X121119048Y-74375295D01*
X121119048Y-74375295D02*
X121166667Y-74280057D01*
X121166667Y-74280057D02*
X121214286Y-74232438D01*
X121214286Y-74232438D02*
X121309524Y-74184819D01*
X82650476Y-62274819D02*
X82650476Y-62989104D01*
X82650476Y-62989104D02*
X82602857Y-63131961D01*
X82602857Y-63131961D02*
X82507619Y-63227200D01*
X82507619Y-63227200D02*
X82364762Y-63274819D01*
X82364762Y-63274819D02*
X82269524Y-63274819D01*
X83079048Y-62370057D02*
X83126667Y-62322438D01*
X83126667Y-62322438D02*
X83221905Y-62274819D01*
X83221905Y-62274819D02*
X83460000Y-62274819D01*
X83460000Y-62274819D02*
X83555238Y-62322438D01*
X83555238Y-62322438D02*
X83602857Y-62370057D01*
X83602857Y-62370057D02*
X83650476Y-62465295D01*
X83650476Y-62465295D02*
X83650476Y-62560533D01*
X83650476Y-62560533D02*
X83602857Y-62703390D01*
X83602857Y-62703390D02*
X83031429Y-63274819D01*
X83031429Y-63274819D02*
X83650476Y-63274819D01*
X84269524Y-62274819D02*
X84364762Y-62274819D01*
X84364762Y-62274819D02*
X84460000Y-62322438D01*
X84460000Y-62322438D02*
X84507619Y-62370057D01*
X84507619Y-62370057D02*
X84555238Y-62465295D01*
X84555238Y-62465295D02*
X84602857Y-62655771D01*
X84602857Y-62655771D02*
X84602857Y-62893866D01*
X84602857Y-62893866D02*
X84555238Y-63084342D01*
X84555238Y-63084342D02*
X84507619Y-63179580D01*
X84507619Y-63179580D02*
X84460000Y-63227200D01*
X84460000Y-63227200D02*
X84364762Y-63274819D01*
X84364762Y-63274819D02*
X84269524Y-63274819D01*
X84269524Y-63274819D02*
X84174286Y-63227200D01*
X84174286Y-63227200D02*
X84126667Y-63179580D01*
X84126667Y-63179580D02*
X84079048Y-63084342D01*
X84079048Y-63084342D02*
X84031429Y-62893866D01*
X84031429Y-62893866D02*
X84031429Y-62655771D01*
X84031429Y-62655771D02*
X84079048Y-62465295D01*
X84079048Y-62465295D02*
X84126667Y-62370057D01*
X84126667Y-62370057D02*
X84174286Y-62322438D01*
X84174286Y-62322438D02*
X84269524Y-62274819D01*
X48738095Y-46804819D02*
X48738095Y-45804819D01*
X48738095Y-46281009D02*
X49309523Y-46281009D01*
X49309523Y-46804819D02*
X49309523Y-45804819D01*
X49738095Y-45900057D02*
X49785714Y-45852438D01*
X49785714Y-45852438D02*
X49880952Y-45804819D01*
X49880952Y-45804819D02*
X50119047Y-45804819D01*
X50119047Y-45804819D02*
X50214285Y-45852438D01*
X50214285Y-45852438D02*
X50261904Y-45900057D01*
X50261904Y-45900057D02*
X50309523Y-45995295D01*
X50309523Y-45995295D02*
X50309523Y-46090533D01*
X50309523Y-46090533D02*
X50261904Y-46233390D01*
X50261904Y-46233390D02*
X49690476Y-46804819D01*
X49690476Y-46804819D02*
X50309523Y-46804819D01*
X70126666Y-62274819D02*
X70126666Y-62989104D01*
X70126666Y-62989104D02*
X70079047Y-63131961D01*
X70079047Y-63131961D02*
X69983809Y-63227200D01*
X69983809Y-63227200D02*
X69840952Y-63274819D01*
X69840952Y-63274819D02*
X69745714Y-63274819D01*
X70650476Y-63274819D02*
X70840952Y-63274819D01*
X70840952Y-63274819D02*
X70936190Y-63227200D01*
X70936190Y-63227200D02*
X70983809Y-63179580D01*
X70983809Y-63179580D02*
X71079047Y-63036723D01*
X71079047Y-63036723D02*
X71126666Y-62846247D01*
X71126666Y-62846247D02*
X71126666Y-62465295D01*
X71126666Y-62465295D02*
X71079047Y-62370057D01*
X71079047Y-62370057D02*
X71031428Y-62322438D01*
X71031428Y-62322438D02*
X70936190Y-62274819D01*
X70936190Y-62274819D02*
X70745714Y-62274819D01*
X70745714Y-62274819D02*
X70650476Y-62322438D01*
X70650476Y-62322438D02*
X70602857Y-62370057D01*
X70602857Y-62370057D02*
X70555238Y-62465295D01*
X70555238Y-62465295D02*
X70555238Y-62703390D01*
X70555238Y-62703390D02*
X70602857Y-62798628D01*
X70602857Y-62798628D02*
X70650476Y-62846247D01*
X70650476Y-62846247D02*
X70745714Y-62893866D01*
X70745714Y-62893866D02*
X70936190Y-62893866D01*
X70936190Y-62893866D02*
X71031428Y-62846247D01*
X71031428Y-62846247D02*
X71079047Y-62798628D01*
X71079047Y-62798628D02*
X71126666Y-62703390D01*
X110333333Y-62954819D02*
X110000000Y-62478628D01*
X109761905Y-62954819D02*
X109761905Y-61954819D01*
X109761905Y-61954819D02*
X110142857Y-61954819D01*
X110142857Y-61954819D02*
X110238095Y-62002438D01*
X110238095Y-62002438D02*
X110285714Y-62050057D01*
X110285714Y-62050057D02*
X110333333Y-62145295D01*
X110333333Y-62145295D02*
X110333333Y-62288152D01*
X110333333Y-62288152D02*
X110285714Y-62383390D01*
X110285714Y-62383390D02*
X110238095Y-62431009D01*
X110238095Y-62431009D02*
X110142857Y-62478628D01*
X110142857Y-62478628D02*
X109761905Y-62478628D01*
X110666667Y-61954819D02*
X111285714Y-61954819D01*
X111285714Y-61954819D02*
X110952381Y-62335771D01*
X110952381Y-62335771D02*
X111095238Y-62335771D01*
X111095238Y-62335771D02*
X111190476Y-62383390D01*
X111190476Y-62383390D02*
X111238095Y-62431009D01*
X111238095Y-62431009D02*
X111285714Y-62526247D01*
X111285714Y-62526247D02*
X111285714Y-62764342D01*
X111285714Y-62764342D02*
X111238095Y-62859580D01*
X111238095Y-62859580D02*
X111190476Y-62907200D01*
X111190476Y-62907200D02*
X111095238Y-62954819D01*
X111095238Y-62954819D02*
X110809524Y-62954819D01*
X110809524Y-62954819D02*
X110714286Y-62907200D01*
X110714286Y-62907200D02*
X110666667Y-62859580D01*
X48190476Y-143684819D02*
X48190476Y-144399104D01*
X48190476Y-144399104D02*
X48142857Y-144541961D01*
X48142857Y-144541961D02*
X48047619Y-144637200D01*
X48047619Y-144637200D02*
X47904762Y-144684819D01*
X47904762Y-144684819D02*
X47809524Y-144684819D01*
X49190476Y-144684819D02*
X48619048Y-144684819D01*
X48904762Y-144684819D02*
X48904762Y-143684819D01*
X48904762Y-143684819D02*
X48809524Y-143827676D01*
X48809524Y-143827676D02*
X48714286Y-143922914D01*
X48714286Y-143922914D02*
X48619048Y-143970533D01*
X49571429Y-143780057D02*
X49619048Y-143732438D01*
X49619048Y-143732438D02*
X49714286Y-143684819D01*
X49714286Y-143684819D02*
X49952381Y-143684819D01*
X49952381Y-143684819D02*
X50047619Y-143732438D01*
X50047619Y-143732438D02*
X50095238Y-143780057D01*
X50095238Y-143780057D02*
X50142857Y-143875295D01*
X50142857Y-143875295D02*
X50142857Y-143970533D01*
X50142857Y-143970533D02*
X50095238Y-144113390D01*
X50095238Y-144113390D02*
X49523810Y-144684819D01*
X49523810Y-144684819D02*
X50142857Y-144684819D01*
X100261905Y-52734819D02*
X100261905Y-51734819D01*
X100261905Y-51734819D02*
X100500000Y-51734819D01*
X100500000Y-51734819D02*
X100642857Y-51782438D01*
X100642857Y-51782438D02*
X100738095Y-51877676D01*
X100738095Y-51877676D02*
X100785714Y-51972914D01*
X100785714Y-51972914D02*
X100833333Y-52163390D01*
X100833333Y-52163390D02*
X100833333Y-52306247D01*
X100833333Y-52306247D02*
X100785714Y-52496723D01*
X100785714Y-52496723D02*
X100738095Y-52591961D01*
X100738095Y-52591961D02*
X100642857Y-52687200D01*
X100642857Y-52687200D02*
X100500000Y-52734819D01*
X100500000Y-52734819D02*
X100261905Y-52734819D01*
X101785714Y-52734819D02*
X101214286Y-52734819D01*
X101500000Y-52734819D02*
X101500000Y-51734819D01*
X101500000Y-51734819D02*
X101404762Y-51877676D01*
X101404762Y-51877676D02*
X101309524Y-51972914D01*
X101309524Y-51972914D02*
X101214286Y-52020533D01*
X93118095Y-53854819D02*
X93118095Y-52854819D01*
X93689523Y-53854819D02*
X93260952Y-53283390D01*
X93689523Y-52854819D02*
X93118095Y-53426247D01*
X88190476Y-126184819D02*
X88190476Y-126899104D01*
X88190476Y-126899104D02*
X88142857Y-127041961D01*
X88142857Y-127041961D02*
X88047619Y-127137200D01*
X88047619Y-127137200D02*
X87904762Y-127184819D01*
X87904762Y-127184819D02*
X87809524Y-127184819D01*
X89190476Y-127184819D02*
X88619048Y-127184819D01*
X88904762Y-127184819D02*
X88904762Y-126184819D01*
X88904762Y-126184819D02*
X88809524Y-126327676D01*
X88809524Y-126327676D02*
X88714286Y-126422914D01*
X88714286Y-126422914D02*
X88619048Y-126470533D01*
X90095238Y-126184819D02*
X89619048Y-126184819D01*
X89619048Y-126184819D02*
X89571429Y-126661009D01*
X89571429Y-126661009D02*
X89619048Y-126613390D01*
X89619048Y-126613390D02*
X89714286Y-126565771D01*
X89714286Y-126565771D02*
X89952381Y-126565771D01*
X89952381Y-126565771D02*
X90047619Y-126613390D01*
X90047619Y-126613390D02*
X90095238Y-126661009D01*
X90095238Y-126661009D02*
X90142857Y-126756247D01*
X90142857Y-126756247D02*
X90142857Y-126994342D01*
X90142857Y-126994342D02*
X90095238Y-127089580D01*
X90095238Y-127089580D02*
X90047619Y-127137200D01*
X90047619Y-127137200D02*
X89952381Y-127184819D01*
X89952381Y-127184819D02*
X89714286Y-127184819D01*
X89714286Y-127184819D02*
X89619048Y-127137200D01*
X89619048Y-127137200D02*
X89571429Y-127089580D01*
X90190476Y-85184819D02*
X90190476Y-85899104D01*
X90190476Y-85899104D02*
X90142857Y-86041961D01*
X90142857Y-86041961D02*
X90047619Y-86137200D01*
X90047619Y-86137200D02*
X89904762Y-86184819D01*
X89904762Y-86184819D02*
X89809524Y-86184819D01*
X91190476Y-86184819D02*
X90619048Y-86184819D01*
X90904762Y-86184819D02*
X90904762Y-85184819D01*
X90904762Y-85184819D02*
X90809524Y-85327676D01*
X90809524Y-85327676D02*
X90714286Y-85422914D01*
X90714286Y-85422914D02*
X90619048Y-85470533D01*
X91761905Y-85613390D02*
X91666667Y-85565771D01*
X91666667Y-85565771D02*
X91619048Y-85518152D01*
X91619048Y-85518152D02*
X91571429Y-85422914D01*
X91571429Y-85422914D02*
X91571429Y-85375295D01*
X91571429Y-85375295D02*
X91619048Y-85280057D01*
X91619048Y-85280057D02*
X91666667Y-85232438D01*
X91666667Y-85232438D02*
X91761905Y-85184819D01*
X91761905Y-85184819D02*
X91952381Y-85184819D01*
X91952381Y-85184819D02*
X92047619Y-85232438D01*
X92047619Y-85232438D02*
X92095238Y-85280057D01*
X92095238Y-85280057D02*
X92142857Y-85375295D01*
X92142857Y-85375295D02*
X92142857Y-85422914D01*
X92142857Y-85422914D02*
X92095238Y-85518152D01*
X92095238Y-85518152D02*
X92047619Y-85565771D01*
X92047619Y-85565771D02*
X91952381Y-85613390D01*
X91952381Y-85613390D02*
X91761905Y-85613390D01*
X91761905Y-85613390D02*
X91666667Y-85661009D01*
X91666667Y-85661009D02*
X91619048Y-85708628D01*
X91619048Y-85708628D02*
X91571429Y-85803866D01*
X91571429Y-85803866D02*
X91571429Y-85994342D01*
X91571429Y-85994342D02*
X91619048Y-86089580D01*
X91619048Y-86089580D02*
X91666667Y-86137200D01*
X91666667Y-86137200D02*
X91761905Y-86184819D01*
X91761905Y-86184819D02*
X91952381Y-86184819D01*
X91952381Y-86184819D02*
X92047619Y-86137200D01*
X92047619Y-86137200D02*
X92095238Y-86089580D01*
X92095238Y-86089580D02*
X92142857Y-85994342D01*
X92142857Y-85994342D02*
X92142857Y-85803866D01*
X92142857Y-85803866D02*
X92095238Y-85708628D01*
X92095238Y-85708628D02*
X92047619Y-85661009D01*
X92047619Y-85661009D02*
X91952381Y-85613390D01*
X111833333Y-58454819D02*
X111500000Y-57978628D01*
X111261905Y-58454819D02*
X111261905Y-57454819D01*
X111261905Y-57454819D02*
X111642857Y-57454819D01*
X111642857Y-57454819D02*
X111738095Y-57502438D01*
X111738095Y-57502438D02*
X111785714Y-57550057D01*
X111785714Y-57550057D02*
X111833333Y-57645295D01*
X111833333Y-57645295D02*
X111833333Y-57788152D01*
X111833333Y-57788152D02*
X111785714Y-57883390D01*
X111785714Y-57883390D02*
X111738095Y-57931009D01*
X111738095Y-57931009D02*
X111642857Y-57978628D01*
X111642857Y-57978628D02*
X111261905Y-57978628D01*
X112214286Y-57550057D02*
X112261905Y-57502438D01*
X112261905Y-57502438D02*
X112357143Y-57454819D01*
X112357143Y-57454819D02*
X112595238Y-57454819D01*
X112595238Y-57454819D02*
X112690476Y-57502438D01*
X112690476Y-57502438D02*
X112738095Y-57550057D01*
X112738095Y-57550057D02*
X112785714Y-57645295D01*
X112785714Y-57645295D02*
X112785714Y-57740533D01*
X112785714Y-57740533D02*
X112738095Y-57883390D01*
X112738095Y-57883390D02*
X112166667Y-58454819D01*
X112166667Y-58454819D02*
X112785714Y-58454819D01*
X61102319Y-61304523D02*
X61816604Y-61304523D01*
X61816604Y-61304523D02*
X61959461Y-61352142D01*
X61959461Y-61352142D02*
X62054700Y-61447380D01*
X62054700Y-61447380D02*
X62102319Y-61590237D01*
X62102319Y-61590237D02*
X62102319Y-61685475D01*
X62102319Y-60304523D02*
X62102319Y-60875951D01*
X62102319Y-60590237D02*
X61102319Y-60590237D01*
X61102319Y-60590237D02*
X61245176Y-60685475D01*
X61245176Y-60685475D02*
X61340414Y-60780713D01*
X61340414Y-60780713D02*
X61388033Y-60875951D01*
X62102319Y-59352142D02*
X62102319Y-59923570D01*
X62102319Y-59637856D02*
X61102319Y-59637856D01*
X61102319Y-59637856D02*
X61245176Y-59733094D01*
X61245176Y-59733094D02*
X61340414Y-59828332D01*
X61340414Y-59828332D02*
X61388033Y-59923570D01*
X90190476Y-67684819D02*
X90190476Y-68399104D01*
X90190476Y-68399104D02*
X90142857Y-68541961D01*
X90142857Y-68541961D02*
X90047619Y-68637200D01*
X90047619Y-68637200D02*
X89904762Y-68684819D01*
X89904762Y-68684819D02*
X89809524Y-68684819D01*
X91190476Y-68684819D02*
X90619048Y-68684819D01*
X90904762Y-68684819D02*
X90904762Y-67684819D01*
X90904762Y-67684819D02*
X90809524Y-67827676D01*
X90809524Y-67827676D02*
X90714286Y-67922914D01*
X90714286Y-67922914D02*
X90619048Y-67970533D01*
X91523810Y-67684819D02*
X92190476Y-67684819D01*
X92190476Y-67684819D02*
X91761905Y-68684819D01*
X81666666Y-94159819D02*
X81666666Y-94874104D01*
X81666666Y-94874104D02*
X81619047Y-95016961D01*
X81619047Y-95016961D02*
X81523809Y-95112200D01*
X81523809Y-95112200D02*
X81380952Y-95159819D01*
X81380952Y-95159819D02*
X81285714Y-95159819D01*
X82619047Y-94159819D02*
X82142857Y-94159819D01*
X82142857Y-94159819D02*
X82095238Y-94636009D01*
X82095238Y-94636009D02*
X82142857Y-94588390D01*
X82142857Y-94588390D02*
X82238095Y-94540771D01*
X82238095Y-94540771D02*
X82476190Y-94540771D01*
X82476190Y-94540771D02*
X82571428Y-94588390D01*
X82571428Y-94588390D02*
X82619047Y-94636009D01*
X82619047Y-94636009D02*
X82666666Y-94731247D01*
X82666666Y-94731247D02*
X82666666Y-94969342D01*
X82666666Y-94969342D02*
X82619047Y-95064580D01*
X82619047Y-95064580D02*
X82571428Y-95112200D01*
X82571428Y-95112200D02*
X82476190Y-95159819D01*
X82476190Y-95159819D02*
X82238095Y-95159819D01*
X82238095Y-95159819D02*
X82142857Y-95112200D01*
X82142857Y-95112200D02*
X82095238Y-95064580D01*
X48666666Y-126184819D02*
X48666666Y-126899104D01*
X48666666Y-126899104D02*
X48619047Y-127041961D01*
X48619047Y-127041961D02*
X48523809Y-127137200D01*
X48523809Y-127137200D02*
X48380952Y-127184819D01*
X48380952Y-127184819D02*
X48285714Y-127184819D01*
X49571428Y-126518152D02*
X49571428Y-127184819D01*
X49333333Y-126137200D02*
X49095238Y-126851485D01*
X49095238Y-126851485D02*
X49714285Y-126851485D01*
X111333333Y-71454819D02*
X111000000Y-70978628D01*
X110761905Y-71454819D02*
X110761905Y-70454819D01*
X110761905Y-70454819D02*
X111142857Y-70454819D01*
X111142857Y-70454819D02*
X111238095Y-70502438D01*
X111238095Y-70502438D02*
X111285714Y-70550057D01*
X111285714Y-70550057D02*
X111333333Y-70645295D01*
X111333333Y-70645295D02*
X111333333Y-70788152D01*
X111333333Y-70788152D02*
X111285714Y-70883390D01*
X111285714Y-70883390D02*
X111238095Y-70931009D01*
X111238095Y-70931009D02*
X111142857Y-70978628D01*
X111142857Y-70978628D02*
X110761905Y-70978628D01*
X112238095Y-70454819D02*
X111761905Y-70454819D01*
X111761905Y-70454819D02*
X111714286Y-70931009D01*
X111714286Y-70931009D02*
X111761905Y-70883390D01*
X111761905Y-70883390D02*
X111857143Y-70835771D01*
X111857143Y-70835771D02*
X112095238Y-70835771D01*
X112095238Y-70835771D02*
X112190476Y-70883390D01*
X112190476Y-70883390D02*
X112238095Y-70931009D01*
X112238095Y-70931009D02*
X112285714Y-71026247D01*
X112285714Y-71026247D02*
X112285714Y-71264342D01*
X112285714Y-71264342D02*
X112238095Y-71359580D01*
X112238095Y-71359580D02*
X112190476Y-71407200D01*
X112190476Y-71407200D02*
X112095238Y-71454819D01*
X112095238Y-71454819D02*
X111857143Y-71454819D01*
X111857143Y-71454819D02*
X111761905Y-71407200D01*
X111761905Y-71407200D02*
X111714286Y-71359580D01*
X119333333Y-52594819D02*
X119000000Y-52118628D01*
X118761905Y-52594819D02*
X118761905Y-51594819D01*
X118761905Y-51594819D02*
X119142857Y-51594819D01*
X119142857Y-51594819D02*
X119238095Y-51642438D01*
X119238095Y-51642438D02*
X119285714Y-51690057D01*
X119285714Y-51690057D02*
X119333333Y-51785295D01*
X119333333Y-51785295D02*
X119333333Y-51928152D01*
X119333333Y-51928152D02*
X119285714Y-52023390D01*
X119285714Y-52023390D02*
X119238095Y-52071009D01*
X119238095Y-52071009D02*
X119142857Y-52118628D01*
X119142857Y-52118628D02*
X118761905Y-52118628D01*
X120285714Y-52594819D02*
X119714286Y-52594819D01*
X120000000Y-52594819D02*
X120000000Y-51594819D01*
X120000000Y-51594819D02*
X119904762Y-51737676D01*
X119904762Y-51737676D02*
X119809524Y-51832914D01*
X119809524Y-51832914D02*
X119714286Y-51880533D01*
X97266666Y-116684819D02*
X97266666Y-117399104D01*
X97266666Y-117399104D02*
X97219047Y-117541961D01*
X97219047Y-117541961D02*
X97123809Y-117637200D01*
X97123809Y-117637200D02*
X96980952Y-117684819D01*
X96980952Y-117684819D02*
X96885714Y-117684819D01*
X98266666Y-117684819D02*
X97695238Y-117684819D01*
X97980952Y-117684819D02*
X97980952Y-116684819D01*
X97980952Y-116684819D02*
X97885714Y-116827676D01*
X97885714Y-116827676D02*
X97790476Y-116922914D01*
X97790476Y-116922914D02*
X97695238Y-116970533D01*
X127738095Y-151804819D02*
X127738095Y-150804819D01*
X127738095Y-151281009D02*
X128309523Y-151281009D01*
X128309523Y-151804819D02*
X128309523Y-150804819D01*
X128690476Y-150804819D02*
X129309523Y-150804819D01*
X129309523Y-150804819D02*
X128976190Y-151185771D01*
X128976190Y-151185771D02*
X129119047Y-151185771D01*
X129119047Y-151185771D02*
X129214285Y-151233390D01*
X129214285Y-151233390D02*
X129261904Y-151281009D01*
X129261904Y-151281009D02*
X129309523Y-151376247D01*
X129309523Y-151376247D02*
X129309523Y-151614342D01*
X129309523Y-151614342D02*
X129261904Y-151709580D01*
X129261904Y-151709580D02*
X129214285Y-151757200D01*
X129214285Y-151757200D02*
X129119047Y-151804819D01*
X129119047Y-151804819D02*
X128833333Y-151804819D01*
X128833333Y-151804819D02*
X128738095Y-151757200D01*
X128738095Y-151757200D02*
X128690476Y-151709580D01*
X127238095Y-46804819D02*
X127238095Y-45804819D01*
X127238095Y-46281009D02*
X127809523Y-46281009D01*
X127809523Y-46804819D02*
X127809523Y-45804819D01*
X128714285Y-46138152D02*
X128714285Y-46804819D01*
X128476190Y-45757200D02*
X128238095Y-46471485D01*
X128238095Y-46471485D02*
X128857142Y-46471485D01*
X111333333Y-67454819D02*
X111000000Y-66978628D01*
X110761905Y-67454819D02*
X110761905Y-66454819D01*
X110761905Y-66454819D02*
X111142857Y-66454819D01*
X111142857Y-66454819D02*
X111238095Y-66502438D01*
X111238095Y-66502438D02*
X111285714Y-66550057D01*
X111285714Y-66550057D02*
X111333333Y-66645295D01*
X111333333Y-66645295D02*
X111333333Y-66788152D01*
X111333333Y-66788152D02*
X111285714Y-66883390D01*
X111285714Y-66883390D02*
X111238095Y-66931009D01*
X111238095Y-66931009D02*
X111142857Y-66978628D01*
X111142857Y-66978628D02*
X110761905Y-66978628D01*
X112190476Y-66788152D02*
X112190476Y-67454819D01*
X111952381Y-66407200D02*
X111714286Y-67121485D01*
X111714286Y-67121485D02*
X112333333Y-67121485D01*
X98666666Y-74184819D02*
X98666666Y-74899104D01*
X98666666Y-74899104D02*
X98619047Y-75041961D01*
X98619047Y-75041961D02*
X98523809Y-75137200D01*
X98523809Y-75137200D02*
X98380952Y-75184819D01*
X98380952Y-75184819D02*
X98285714Y-75184819D01*
X99047619Y-74184819D02*
X99666666Y-74184819D01*
X99666666Y-74184819D02*
X99333333Y-74565771D01*
X99333333Y-74565771D02*
X99476190Y-74565771D01*
X99476190Y-74565771D02*
X99571428Y-74613390D01*
X99571428Y-74613390D02*
X99619047Y-74661009D01*
X99619047Y-74661009D02*
X99666666Y-74756247D01*
X99666666Y-74756247D02*
X99666666Y-74994342D01*
X99666666Y-74994342D02*
X99619047Y-75089580D01*
X99619047Y-75089580D02*
X99571428Y-75137200D01*
X99571428Y-75137200D02*
X99476190Y-75184819D01*
X99476190Y-75184819D02*
X99190476Y-75184819D01*
X99190476Y-75184819D02*
X99095238Y-75137200D01*
X99095238Y-75137200D02*
X99047619Y-75089580D01*
X88190476Y-143684819D02*
X88190476Y-144399104D01*
X88190476Y-144399104D02*
X88142857Y-144541961D01*
X88142857Y-144541961D02*
X88047619Y-144637200D01*
X88047619Y-144637200D02*
X87904762Y-144684819D01*
X87904762Y-144684819D02*
X87809524Y-144684819D01*
X89190476Y-144684819D02*
X88619048Y-144684819D01*
X88904762Y-144684819D02*
X88904762Y-143684819D01*
X88904762Y-143684819D02*
X88809524Y-143827676D01*
X88809524Y-143827676D02*
X88714286Y-143922914D01*
X88714286Y-143922914D02*
X88619048Y-143970533D01*
X90047619Y-143684819D02*
X89857143Y-143684819D01*
X89857143Y-143684819D02*
X89761905Y-143732438D01*
X89761905Y-143732438D02*
X89714286Y-143780057D01*
X89714286Y-143780057D02*
X89619048Y-143922914D01*
X89619048Y-143922914D02*
X89571429Y-144113390D01*
X89571429Y-144113390D02*
X89571429Y-144494342D01*
X89571429Y-144494342D02*
X89619048Y-144589580D01*
X89619048Y-144589580D02*
X89666667Y-144637200D01*
X89666667Y-144637200D02*
X89761905Y-144684819D01*
X89761905Y-144684819D02*
X89952381Y-144684819D01*
X89952381Y-144684819D02*
X90047619Y-144637200D01*
X90047619Y-144637200D02*
X90095238Y-144589580D01*
X90095238Y-144589580D02*
X90142857Y-144494342D01*
X90142857Y-144494342D02*
X90142857Y-144256247D01*
X90142857Y-144256247D02*
X90095238Y-144161009D01*
X90095238Y-144161009D02*
X90047619Y-144113390D01*
X90047619Y-144113390D02*
X89952381Y-144065771D01*
X89952381Y-144065771D02*
X89761905Y-144065771D01*
X89761905Y-144065771D02*
X89666667Y-144113390D01*
X89666667Y-144113390D02*
X89619048Y-144161009D01*
X89619048Y-144161009D02*
X89571429Y-144256247D01*
X81666666Y-109184819D02*
X81666666Y-109899104D01*
X81666666Y-109899104D02*
X81619047Y-110041961D01*
X81619047Y-110041961D02*
X81523809Y-110137200D01*
X81523809Y-110137200D02*
X81380952Y-110184819D01*
X81380952Y-110184819D02*
X81285714Y-110184819D01*
X82571428Y-109184819D02*
X82380952Y-109184819D01*
X82380952Y-109184819D02*
X82285714Y-109232438D01*
X82285714Y-109232438D02*
X82238095Y-109280057D01*
X82238095Y-109280057D02*
X82142857Y-109422914D01*
X82142857Y-109422914D02*
X82095238Y-109613390D01*
X82095238Y-109613390D02*
X82095238Y-109994342D01*
X82095238Y-109994342D02*
X82142857Y-110089580D01*
X82142857Y-110089580D02*
X82190476Y-110137200D01*
X82190476Y-110137200D02*
X82285714Y-110184819D01*
X82285714Y-110184819D02*
X82476190Y-110184819D01*
X82476190Y-110184819D02*
X82571428Y-110137200D01*
X82571428Y-110137200D02*
X82619047Y-110089580D01*
X82619047Y-110089580D02*
X82666666Y-109994342D01*
X82666666Y-109994342D02*
X82666666Y-109756247D01*
X82666666Y-109756247D02*
X82619047Y-109661009D01*
X82619047Y-109661009D02*
X82571428Y-109613390D01*
X82571428Y-109613390D02*
X82476190Y-109565771D01*
X82476190Y-109565771D02*
X82285714Y-109565771D01*
X82285714Y-109565771D02*
X82190476Y-109613390D01*
X82190476Y-109613390D02*
X82142857Y-109661009D01*
X82142857Y-109661009D02*
X82095238Y-109756247D01*
X50190476Y-85184819D02*
X50190476Y-85899104D01*
X50190476Y-85899104D02*
X50142857Y-86041961D01*
X50142857Y-86041961D02*
X50047619Y-86137200D01*
X50047619Y-86137200D02*
X49904762Y-86184819D01*
X49904762Y-86184819D02*
X49809524Y-86184819D01*
X51190476Y-86184819D02*
X50619048Y-86184819D01*
X50904762Y-86184819D02*
X50904762Y-85184819D01*
X50904762Y-85184819D02*
X50809524Y-85327676D01*
X50809524Y-85327676D02*
X50714286Y-85422914D01*
X50714286Y-85422914D02*
X50619048Y-85470533D01*
X52047619Y-85518152D02*
X52047619Y-86184819D01*
X51809524Y-85137200D02*
X51571429Y-85851485D01*
X51571429Y-85851485D02*
X52190476Y-85851485D01*
D12*
%TO.C,J19*%
X109670000Y-93770000D02*
X109670000Y-109070000D01*
X109670000Y-93770000D02*
X112330000Y-93770000D01*
X109670000Y-109070000D02*
X112330000Y-109070000D01*
X111000000Y-91170000D02*
X112330000Y-91170000D01*
X112330000Y-91170000D02*
X112330000Y-92500000D01*
X112330000Y-93770000D02*
X112330000Y-109070000D01*
%TO.C,J8*%
X112670000Y-93770000D02*
X112670000Y-109070000D01*
X112670000Y-93770000D02*
X115330000Y-93770000D01*
X112670000Y-109070000D02*
X115330000Y-109070000D01*
X114000000Y-91170000D02*
X115330000Y-91170000D01*
X115330000Y-91170000D02*
X115330000Y-92500000D01*
X115330000Y-93770000D02*
X115330000Y-109070000D01*
%TO.C,J7*%
X93120000Y-104810000D02*
X93120000Y-97080000D01*
X95880000Y-97080000D02*
X93120000Y-97080000D01*
X95880000Y-104810000D02*
X93120000Y-104810000D01*
X95880000Y-104810000D02*
X95880000Y-97080000D01*
X95880000Y-106080000D02*
X95880000Y-107460000D01*
X95880000Y-107460000D02*
X94500000Y-107460000D01*
%TO.C,J13*%
X49670000Y-72210000D02*
X49670000Y-72330000D01*
X49670000Y-72330000D02*
X52330000Y-72330000D01*
X51000000Y-69670000D02*
X52330000Y-69670000D01*
X52330000Y-69670000D02*
X52330000Y-71000000D01*
X52330000Y-72210000D02*
X52330000Y-72330000D01*
%TO.C,J2*%
X121670000Y-121270000D02*
X121670000Y-156890000D01*
X121670000Y-121270000D02*
X124330000Y-121270000D01*
X121670000Y-156890000D02*
X124330000Y-156890000D01*
X123000000Y-118670000D02*
X124330000Y-118670000D01*
X124330000Y-118670000D02*
X124330000Y-120000000D01*
X124330000Y-121270000D02*
X124330000Y-156890000D01*
%TO.C,J10*%
X119170000Y-78770000D02*
X119170000Y-81370000D01*
X119170000Y-78770000D02*
X121830000Y-78770000D01*
X119170000Y-81370000D02*
X121830000Y-81370000D01*
X120500000Y-76170000D02*
X121830000Y-76170000D01*
X121830000Y-76170000D02*
X121830000Y-77500000D01*
X121830000Y-78770000D02*
X121830000Y-81370000D01*
%TO.C,J20*%
X78260000Y-51780000D02*
X85700000Y-51780000D01*
X78260000Y-61820000D02*
X78260000Y-51780000D01*
X86300000Y-51780000D02*
X88660000Y-51780000D01*
X88660000Y-51780000D02*
X88660000Y-61820000D01*
X88660000Y-52400000D02*
X78260000Y-52400000D01*
X88660000Y-53900000D02*
X78260000Y-53900000D01*
X88660000Y-58800000D02*
X78260000Y-58800000D01*
X88660000Y-61820000D02*
X78260000Y-61820000D01*
X86000000Y-51780000D02*
X85560000Y-51170000D01*
X86440000Y-51170000D01*
X86000000Y-51780000D01*
G36*
X86000000Y-51780000D02*
G01*
X85560000Y-51170000D01*
X86440000Y-51170000D01*
X86000000Y-51780000D01*
G37*
%TO.C,J9*%
X65260000Y-51780000D02*
X72700000Y-51780000D01*
X65260000Y-61820000D02*
X65260000Y-51780000D01*
X73300000Y-51780000D02*
X75660000Y-51780000D01*
X75660000Y-51780000D02*
X75660000Y-61820000D01*
X75660000Y-52400000D02*
X65260000Y-52400000D01*
X75660000Y-53900000D02*
X65260000Y-53900000D01*
X75660000Y-58800000D02*
X65260000Y-58800000D01*
X75660000Y-61820000D02*
X65260000Y-61820000D01*
X73000000Y-51780000D02*
X72560000Y-51170000D01*
X73440000Y-51170000D01*
X73000000Y-51780000D01*
G36*
X73000000Y-51780000D02*
G01*
X72560000Y-51170000D01*
X73440000Y-51170000D01*
X73000000Y-51780000D01*
G37*
%TO.C,R3*%
X114190000Y-63000000D02*
X114880000Y-63000000D01*
X124810000Y-63000000D02*
X124120000Y-63000000D01*
X114880000Y-61280000D02*
X124120000Y-61280000D01*
X124120000Y-64720000D01*
X114880000Y-64720000D01*
X114880000Y-61280000D01*
%TO.C,J12*%
X47670000Y-148210000D02*
X47670000Y-148330000D01*
X47670000Y-148330000D02*
X50330000Y-148330000D01*
X49000000Y-145670000D02*
X50330000Y-145670000D01*
X50330000Y-145670000D02*
X50330000Y-147000000D01*
X50330000Y-148210000D02*
X50330000Y-148330000D01*
%TO.C,D1*%
X95220000Y-56000000D02*
X96130000Y-56000000D01*
X97555000Y-53280000D02*
X97555000Y-58720000D01*
X97675000Y-53280000D02*
X97675000Y-58720000D01*
X97795000Y-53280000D02*
X97795000Y-58720000D01*
X106780000Y-56000000D02*
X105870000Y-56000000D01*
X96130000Y-53280000D02*
X105870000Y-53280000D01*
X105870000Y-58720000D01*
X96130000Y-58720000D01*
X96130000Y-53280000D01*
%TO.C,J15*%
X87670000Y-130710000D02*
X87670000Y-130830000D01*
X87670000Y-130830000D02*
X90330000Y-130830000D01*
X89000000Y-128170000D02*
X90330000Y-128170000D01*
X90330000Y-128170000D02*
X90330000Y-129500000D01*
X90330000Y-130710000D02*
X90330000Y-130830000D01*
%TO.C,J18*%
X89670000Y-89710000D02*
X89670000Y-89830000D01*
X89670000Y-89830000D02*
X92330000Y-89830000D01*
X91000000Y-87170000D02*
X92330000Y-87170000D01*
X92330000Y-87170000D02*
X92330000Y-88500000D01*
X92330000Y-89710000D02*
X92330000Y-89830000D01*
%TO.C,R2*%
X115460000Y-58560000D02*
X116230000Y-58560000D01*
X123540000Y-58560000D02*
X122770000Y-58560000D01*
X116230000Y-57190000D02*
X122770000Y-57190000D01*
X122770000Y-59930000D01*
X116230000Y-59930000D01*
X116230000Y-57190000D01*
%TO.C,J11*%
X50607500Y-55295000D02*
X60647500Y-55295000D01*
X50607500Y-57655000D02*
X50607500Y-55295000D01*
X50607500Y-65695000D02*
X50607500Y-58255000D01*
X51227500Y-55295000D02*
X51227500Y-65695000D01*
X52727500Y-55295000D02*
X52727500Y-65695000D01*
X57627500Y-55295000D02*
X57627500Y-65695000D01*
X60647500Y-55295000D02*
X60647500Y-65695000D01*
X60647500Y-65695000D02*
X50607500Y-65695000D01*
X50607500Y-57955000D02*
X49997500Y-58395000D01*
X49997500Y-57515000D01*
X50607500Y-57955000D01*
G36*
X50607500Y-57955000D02*
G01*
X49997500Y-58395000D01*
X49997500Y-57515000D01*
X50607500Y-57955000D01*
G37*
%TO.C,J17*%
X89670000Y-72210000D02*
X89670000Y-72330000D01*
X89670000Y-72330000D02*
X92330000Y-72330000D01*
X91000000Y-69670000D02*
X92330000Y-69670000D01*
X92330000Y-69670000D02*
X92330000Y-71000000D01*
X92330000Y-72210000D02*
X92330000Y-72330000D01*
%TO.C,J5*%
X80670000Y-98745000D02*
X80670000Y-103885000D01*
X80670000Y-98745000D02*
X83330000Y-98745000D01*
X80670000Y-103885000D02*
X83330000Y-103885000D01*
X82000000Y-96145000D02*
X83330000Y-96145000D01*
X83330000Y-96145000D02*
X83330000Y-97475000D01*
X83330000Y-98745000D02*
X83330000Y-103885000D01*
%TO.C,J4*%
X47670000Y-130710000D02*
X47670000Y-130830000D01*
X47670000Y-130830000D02*
X50330000Y-130830000D01*
X49000000Y-128170000D02*
X50330000Y-128170000D01*
X50330000Y-128170000D02*
X50330000Y-129500000D01*
X50330000Y-130710000D02*
X50330000Y-130830000D01*
%TO.C,R5*%
X115380000Y-71500000D02*
X116150000Y-71500000D01*
X123460000Y-71500000D02*
X122690000Y-71500000D01*
X116150000Y-70130000D02*
X122690000Y-70130000D01*
X122690000Y-72870000D01*
X116150000Y-72870000D01*
X116150000Y-70130000D01*
%TO.C,R1*%
X115460000Y-54510000D02*
X116230000Y-54510000D01*
X123540000Y-54510000D02*
X122770000Y-54510000D01*
X116230000Y-53140000D02*
X122770000Y-53140000D01*
X122770000Y-55880000D01*
X116230000Y-55880000D01*
X116230000Y-53140000D01*
%TO.C,J1*%
X96270000Y-121270000D02*
X96270000Y-156890000D01*
X96270000Y-121270000D02*
X98930000Y-121270000D01*
X96270000Y-156890000D02*
X98930000Y-156890000D01*
X97600000Y-118670000D02*
X98930000Y-118670000D01*
X98930000Y-118670000D02*
X98930000Y-120000000D01*
X98930000Y-121270000D02*
X98930000Y-156890000D01*
%TO.C,R4*%
X115300000Y-67500000D02*
X116070000Y-67500000D01*
X123380000Y-67500000D02*
X122610000Y-67500000D01*
X116070000Y-66130000D02*
X122610000Y-66130000D01*
X122610000Y-68870000D01*
X116070000Y-68870000D01*
X116070000Y-66130000D01*
%TO.C,J3*%
X97670000Y-78770000D02*
X97670000Y-81370000D01*
X97670000Y-78770000D02*
X100330000Y-78770000D01*
X97670000Y-81370000D02*
X100330000Y-81370000D01*
X99000000Y-76170000D02*
X100330000Y-76170000D01*
X100330000Y-76170000D02*
X100330000Y-77500000D01*
X100330000Y-78770000D02*
X100330000Y-81370000D01*
%TO.C,J16*%
X87670000Y-148210000D02*
X87670000Y-148330000D01*
X87670000Y-148330000D02*
X90330000Y-148330000D01*
X89000000Y-145670000D02*
X90330000Y-145670000D01*
X90330000Y-145670000D02*
X90330000Y-147000000D01*
X90330000Y-148210000D02*
X90330000Y-148330000D01*
%TO.C,J6*%
X80670000Y-113770000D02*
X80670000Y-118910000D01*
X80670000Y-113770000D02*
X83330000Y-113770000D01*
X80670000Y-118910000D02*
X83330000Y-118910000D01*
X82000000Y-111170000D02*
X83330000Y-111170000D01*
X83330000Y-111170000D02*
X83330000Y-112500000D01*
X83330000Y-113770000D02*
X83330000Y-118910000D01*
%TO.C,J14*%
X49670000Y-89710000D02*
X49670000Y-89830000D01*
X49670000Y-89830000D02*
X52330000Y-89830000D01*
X51000000Y-87170000D02*
X52330000Y-87170000D01*
X52330000Y-87170000D02*
X52330000Y-88500000D01*
X52330000Y-89710000D02*
X52330000Y-89830000D01*
%TD*%
M02*
