%TF.GenerationSoftware,KiCad,Pcbnew,9.0.7*%
%TF.CreationDate,2026-03-25T15:08:41+05:30*%
%TF.ProjectId,GPB1,47504231-2e6b-4696-9361-645f70636258,rev?*%
%TF.SameCoordinates,Original*%
%TF.FileFunction,Soldermask,Top*%
%TF.FilePolarity,Negative*%
%FSLAX46Y46*%
G04 Gerber Fmt 4.6, Leading zero omitted, Abs format (unit mm)*
G04 Created by KiCad (PCBNEW 9.0.7) date 2026-03-25 15:08:41*
%MOMM*%
%LPD*%
G01*
G04 APERTURE LIST*
G04 Aperture macros list*
%AMRoundRect*
0 Rectangle with rounded corners*
0 $1 Rounding radius*
0 $2 $3 $4 $5 $6 $7 $8 $9 X,Y pos of 4 corners*
0 Add a 4 corners polygon primitive as box body*
4,1,4,$2,$3,$4,$5,$6,$7,$8,$9,$2,$3,0*
0 Add four circle primitives for the rounded corners*
1,1,$1+$1,$2,$3*
1,1,$1+$1,$4,$5*
1,1,$1+$1,$6,$7*
1,1,$1+$1,$8,$9*
0 Add four rect primitives between the rounded corners*
20,1,$1+$1,$2,$3,$4,$5,0*
20,1,$1+$1,$4,$5,$6,$7,0*
20,1,$1+$1,$6,$7,$8,$9,0*
20,1,$1+$1,$8,$9,$2,$3,0*%
G04 Aperture macros list end*
%ADD10R,1.700000X1.700000*%
%ADD11C,1.700000*%
%ADD12C,3.200000*%
%ADD13RoundRect,0.250000X1.050000X1.050000X-1.050000X1.050000X-1.050000X-1.050000X1.050000X-1.050000X0*%
%ADD14C,2.600000*%
%ADD15C,1.600000*%
%ADD16RoundRect,0.250000X-1.350000X-1.350000X1.350000X-1.350000X1.350000X1.350000X-1.350000X1.350000X0*%
%ADD17RoundRect,0.250000X-1.050000X1.050000X-1.050000X-1.050000X1.050000X-1.050000X1.050000X1.050000X0*%
G04 APERTURE END LIST*
D10*
%TO.C,J19*%
X111000000Y-92500000D03*
D11*
X111000000Y-95040000D03*
X111000000Y-97580000D03*
X111000000Y-100120000D03*
X111000000Y-102660000D03*
X111000000Y-105200000D03*
X111000000Y-107740000D03*
%TD*%
D10*
%TO.C,J8*%
X114000000Y-92500000D03*
D11*
X114000000Y-95040000D03*
X114000000Y-97580000D03*
X114000000Y-100120000D03*
X114000000Y-102660000D03*
X114000000Y-105200000D03*
X114000000Y-107740000D03*
%TD*%
D10*
%TO.C,J7*%
X94500000Y-106080000D03*
D11*
X94500000Y-103540000D03*
X94500000Y-101000000D03*
X94500000Y-98460000D03*
%TD*%
D10*
%TO.C,J13*%
X51000000Y-71000000D03*
%TD*%
%TO.C,J2*%
X123000000Y-120000000D03*
D11*
X123000000Y-122540000D03*
X123000000Y-125080000D03*
X123000000Y-127620000D03*
X123000000Y-130160000D03*
X123000000Y-132700000D03*
X123000000Y-135240000D03*
X123000000Y-137780000D03*
X123000000Y-140320000D03*
X123000000Y-142860000D03*
X123000000Y-145400000D03*
X123000000Y-147940000D03*
X123000000Y-150480000D03*
X123000000Y-153020000D03*
X123000000Y-155560000D03*
%TD*%
D12*
%TO.C,H1*%
X50500000Y-155500000D03*
%TD*%
D10*
%TO.C,J10*%
X120500000Y-77500000D03*
D11*
X120500000Y-80040000D03*
%TD*%
D13*
%TO.C,J20*%
X86000000Y-56500000D03*
D14*
X80920000Y-56500000D03*
%TD*%
D12*
%TO.C,H2*%
X49500000Y-50500000D03*
%TD*%
D13*
%TO.C,J9*%
X73000000Y-56500000D03*
D14*
X67920000Y-56500000D03*
%TD*%
D15*
%TO.C,R3*%
X113150000Y-63000000D03*
X125850000Y-63000000D03*
%TD*%
D10*
%TO.C,J12*%
X49000000Y-147000000D03*
%TD*%
D16*
%TO.C,D1*%
X93380000Y-56000000D03*
D12*
X108620000Y-56000000D03*
%TD*%
D10*
%TO.C,J15*%
X89000000Y-129500000D03*
%TD*%
%TO.C,J18*%
X91000000Y-88500000D03*
%TD*%
D15*
%TO.C,R2*%
X114420000Y-58560000D03*
X124580000Y-58560000D03*
%TD*%
D17*
%TO.C,J11*%
X55327500Y-57955000D03*
D14*
X55327500Y-63035000D03*
%TD*%
D10*
%TO.C,J17*%
X91000000Y-71000000D03*
%TD*%
%TO.C,J5*%
X82000000Y-97475000D03*
D11*
X82000000Y-100015000D03*
X82000000Y-102555000D03*
%TD*%
D10*
%TO.C,J4*%
X49000000Y-129500000D03*
%TD*%
D15*
%TO.C,R5*%
X114340000Y-71500000D03*
X124500000Y-71500000D03*
%TD*%
%TO.C,R1*%
X114420000Y-54510000D03*
X124580000Y-54510000D03*
%TD*%
D10*
%TO.C,J1*%
X97600000Y-120000000D03*
D11*
X97600000Y-122540000D03*
X97600000Y-125080000D03*
X97600000Y-127620000D03*
X97600000Y-130160000D03*
X97600000Y-132700000D03*
X97600000Y-135240000D03*
X97600000Y-137780000D03*
X97600000Y-140320000D03*
X97600000Y-142860000D03*
X97600000Y-145400000D03*
X97600000Y-147940000D03*
X97600000Y-150480000D03*
X97600000Y-153020000D03*
X97600000Y-155560000D03*
%TD*%
D12*
%TO.C,H3*%
X128500000Y-155500000D03*
%TD*%
%TO.C,H4*%
X128000000Y-50500000D03*
%TD*%
D15*
%TO.C,R4*%
X114260000Y-67500000D03*
X124420000Y-67500000D03*
%TD*%
D10*
%TO.C,J3*%
X99000000Y-77500000D03*
D11*
X99000000Y-80040000D03*
%TD*%
D10*
%TO.C,J16*%
X89000000Y-147000000D03*
%TD*%
%TO.C,J6*%
X82000000Y-112500000D03*
D11*
X82000000Y-115040000D03*
X82000000Y-117580000D03*
%TD*%
D10*
%TO.C,J14*%
X51000000Y-88500000D03*
%TD*%
M02*
