%TF.GenerationSoftware,KiCad,Pcbnew,10.0.1*%
%TF.CreationDate,2026-07-16T17:43:55+05:30*%
%TF.ProjectId,PCB_V3_Final,5043425f-5633-45f4-9669-6e616c2e6b69,rev?*%
%TF.SameCoordinates,Original*%
%TF.FileFunction,Soldermask,Bot*%
%TF.FilePolarity,Negative*%
%FSLAX46Y46*%
G04 Gerber Fmt 4.6, Leading zero omitted, Abs format (unit mm)*
G04 Created by KiCad (PCBNEW 10.0.1) date 2026-07-16 17:43:55*
%MOMM*%
%LPD*%
G01*
G04 APERTURE LIST*
G04 Aperture macros list*
%AMRoundRect*
0 Rectangle with rounded corners*
0 $1 Rounding radius*
0 $2 $3 $4 $5 $6 $7 $8 $9 X,Y pos of 4 corners*
0 Add a 4 corners polygon primitive as box body*
4,1,4,$2,$3,$4,$5,$6,$7,$8,$9,$2,$3,0*
0 Add four circle primitives for the rounded corners*
1,1,$1+$1,$2,$3*
1,1,$1+$1,$4,$5*
1,1,$1+$1,$6,$7*
1,1,$1+$1,$8,$9*
0 Add four rect primitives between the rounded corners*
20,1,$1+$1,$2,$3,$4,$5,0*
20,1,$1+$1,$4,$5,$6,$7,0*
20,1,$1+$1,$6,$7,$8,$9,0*
20,1,$1+$1,$8,$9,$2,$3,0*%
G04 Aperture macros list end*
%ADD10R,1.700000X1.700000*%
%ADD11R,2.000000X2.000000*%
%ADD12C,2.000000*%
%ADD13C,1.600000*%
%ADD14C,1.700000*%
%ADD15R,1.905000X2.000000*%
%ADD16O,1.905000X2.000000*%
%ADD17RoundRect,0.250000X1.050000X-1.050000X1.050000X1.050000X-1.050000X1.050000X-1.050000X-1.050000X0*%
%ADD18C,2.600000*%
%ADD19RoundRect,0.250000X-1.050000X1.050000X-1.050000X-1.050000X1.050000X-1.050000X1.050000X1.050000X0*%
%ADD20RoundRect,0.250000X-1.050000X-1.050000X1.050000X-1.050000X1.050000X1.050000X-1.050000X1.050000X0*%
%ADD21C,3.200000*%
%ADD22RoundRect,0.250000X-0.750000X-0.750000X0.750000X-0.750000X0.750000X0.750000X-0.750000X0.750000X0*%
%ADD23RoundRect,0.381000X-0.889000X-1.369000X0.889000X-1.369000X0.889000X1.369000X-0.889000X1.369000X0*%
G04 APERTURE END LIST*
D10*
%TO.C,J39*%
X80500000Y-78000000D03*
%TD*%
%TO.C,J38*%
X94500000Y-78000000D03*
%TD*%
D11*
%TO.C,D1*%
X89920000Y-67500000D03*
D12*
X95000000Y-67500000D03*
%TD*%
D13*
%TO.C,R20*%
X145920000Y-110000000D03*
X135760000Y-110000000D03*
%TD*%
D10*
%TO.C,J41*%
X113000000Y-122000000D03*
%TD*%
%TO.C,J16*%
X163920000Y-116480000D03*
D14*
X163920000Y-113940000D03*
X163920000Y-111400000D03*
X163920000Y-108860000D03*
X163920000Y-106320000D03*
X163920000Y-103780000D03*
X163920000Y-101240000D03*
%TD*%
D15*
%TO.C,Q7*%
X129840000Y-135000000D03*
D16*
X127300000Y-135000000D03*
X124760000Y-135000000D03*
%TD*%
D15*
%TO.C,Q2*%
X129240000Y-72500000D03*
D16*
X126700000Y-72500000D03*
X124160000Y-72500000D03*
%TD*%
D17*
%TO.C,J14*%
X151000000Y-54665000D03*
D18*
X151000000Y-49585000D03*
%TD*%
D10*
%TO.C,J1*%
X169640000Y-152400000D03*
D14*
X172180000Y-152400000D03*
X174720000Y-152400000D03*
X177260000Y-152400000D03*
X179800000Y-152400000D03*
X182340000Y-152400000D03*
X184880000Y-152400000D03*
X187420000Y-152400000D03*
X189960000Y-152400000D03*
X192500000Y-152400000D03*
X195040000Y-152400000D03*
X197580000Y-152400000D03*
X200120000Y-152400000D03*
X202660000Y-152400000D03*
X205200000Y-152400000D03*
%TD*%
D10*
%TO.C,J29*%
X99000000Y-78000000D03*
%TD*%
%TO.C,J28*%
X113000000Y-78000000D03*
%TD*%
D13*
%TO.C,R6*%
X135500000Y-67000000D03*
X145660000Y-67000000D03*
%TD*%
%TO.C,R19*%
X145580000Y-119500000D03*
X135420000Y-119500000D03*
%TD*%
D19*
%TO.C,J6*%
X210827500Y-49955000D03*
D18*
X210827500Y-55035000D03*
%TD*%
D15*
%TO.C,Q4*%
X128740000Y-90500000D03*
D16*
X126200000Y-90500000D03*
X123660000Y-90500000D03*
%TD*%
D13*
%TO.C,R17*%
X145920000Y-138000000D03*
X135760000Y-138000000D03*
%TD*%
%TO.C,R24*%
X102330000Y-151500000D03*
X92170000Y-151500000D03*
%TD*%
%TO.C,R11*%
X135920000Y-143500000D03*
X146080000Y-143500000D03*
%TD*%
%TO.C,R9*%
X135500000Y-92500000D03*
X145660000Y-92500000D03*
%TD*%
D10*
%TO.C,J32*%
X80500000Y-97000000D03*
%TD*%
D13*
%TO.C,R14*%
X135420000Y-116000000D03*
X145580000Y-116000000D03*
%TD*%
D20*
%TO.C,J30*%
X111000000Y-31375000D03*
D18*
X116080000Y-31375000D03*
%TD*%
D10*
%TO.C,J7*%
X186369285Y-35075001D03*
D14*
X186369285Y-32535001D03*
X186369285Y-29995001D03*
%TD*%
D10*
%TO.C,J25*%
X192000000Y-83750000D03*
D14*
X192000000Y-81210000D03*
%TD*%
D13*
%TO.C,R8*%
X135080000Y-84000000D03*
X145240000Y-84000000D03*
%TD*%
D20*
%TO.C,J31*%
X123500000Y-31500000D03*
D18*
X128580000Y-31500000D03*
%TD*%
D13*
%TO.C,R10*%
X135920000Y-101500000D03*
X146080000Y-101500000D03*
%TD*%
%TO.C,R25*%
X121420000Y-47500000D03*
X131580000Y-47500000D03*
%TD*%
D21*
%TO.C,H1*%
X219750000Y-25250000D03*
%TD*%
D13*
%TO.C,R1*%
X145660000Y-63500000D03*
X135500000Y-63500000D03*
%TD*%
D15*
%TO.C,Q8*%
X129840000Y-126000000D03*
D16*
X127300000Y-126000000D03*
X124760000Y-126000000D03*
%TD*%
D13*
%TO.C,R5*%
X146080000Y-98000000D03*
X135920000Y-98000000D03*
%TD*%
D10*
%TO.C,J33*%
X94500000Y-97000000D03*
%TD*%
D13*
%TO.C,R22*%
X182714285Y-82660001D03*
X182714285Y-72500001D03*
%TD*%
D10*
%TO.C,J35*%
X113000000Y-103000000D03*
%TD*%
D20*
%TO.C,J37*%
X93965000Y-31327500D03*
D18*
X99045000Y-31327500D03*
%TD*%
D10*
%TO.C,J10*%
X89120000Y-143500000D03*
D14*
X86580000Y-143500000D03*
X84040000Y-143500000D03*
X81500000Y-143500000D03*
X78960000Y-143500000D03*
%TD*%
D10*
%TO.C,J15*%
X166460000Y-116480000D03*
D14*
X166460000Y-113940000D03*
X166460000Y-111400000D03*
X166460000Y-108860000D03*
X166460000Y-106320000D03*
X166460000Y-103780000D03*
X166460000Y-101240000D03*
%TD*%
D15*
%TO.C,Q5*%
X129000000Y-100000000D03*
D16*
X126460000Y-100000000D03*
X123920000Y-100000000D03*
%TD*%
D15*
%TO.C,Q3*%
X129160000Y-81500000D03*
D16*
X126620000Y-81500000D03*
X124080000Y-81500000D03*
%TD*%
D10*
%TO.C,J34*%
X99000000Y-103000000D03*
%TD*%
%TO.C,J2*%
X169640000Y-127000000D03*
D14*
X172180000Y-127000000D03*
X174720000Y-127000000D03*
X177260000Y-127000000D03*
X179800000Y-127000000D03*
X182340000Y-127000000D03*
X184880000Y-127000000D03*
X187420000Y-127000000D03*
X189960000Y-127000000D03*
X192500000Y-127000000D03*
X195040000Y-127000000D03*
X197580000Y-127000000D03*
X200120000Y-127000000D03*
X202660000Y-127000000D03*
X205200000Y-127000000D03*
%TD*%
D13*
%TO.C,R7*%
X135500000Y-75500000D03*
X145660000Y-75500000D03*
%TD*%
D10*
%TO.C,J19*%
X113580000Y-140980000D03*
D14*
X111040000Y-140980000D03*
X108500000Y-140980000D03*
X105960000Y-140980000D03*
X103420000Y-140980000D03*
%TD*%
D13*
%TO.C,R4*%
X145820000Y-89000000D03*
X135660000Y-89000000D03*
%TD*%
D10*
%TO.C,J9*%
X175500000Y-49460000D03*
D14*
X175500000Y-52000000D03*
X175500000Y-54540000D03*
%TD*%
D10*
%TO.C,J18*%
X113580000Y-143500000D03*
D14*
X111040000Y-143500000D03*
X108500000Y-143500000D03*
X105960000Y-143500000D03*
X103420000Y-143500000D03*
%TD*%
D13*
%TO.C,R3*%
X145580000Y-80500000D03*
X135420000Y-80500000D03*
%TD*%
D17*
%TO.C,J5*%
X151172500Y-35165000D03*
D18*
X151172500Y-30085000D03*
%TD*%
D15*
%TO.C,Q10*%
X130340000Y-108500000D03*
D16*
X127800000Y-108500000D03*
X125260000Y-108500000D03*
%TD*%
D15*
%TO.C,Q6*%
X130000000Y-143500000D03*
D16*
X127460000Y-143500000D03*
X124920000Y-143500000D03*
%TD*%
D10*
%TO.C,J4*%
X175672500Y-29960000D03*
D14*
X175672500Y-32500000D03*
X175672500Y-35040000D03*
%TD*%
D10*
%TO.C,J20*%
X214000000Y-83750000D03*
D14*
X214000000Y-81210000D03*
%TD*%
D10*
%TO.C,J27*%
X94500000Y-122000000D03*
%TD*%
D13*
%TO.C,R18*%
X145920000Y-128500000D03*
X135760000Y-128500000D03*
%TD*%
D10*
%TO.C,J22*%
X94500000Y-103000000D03*
%TD*%
D13*
%TO.C,R23*%
X92250000Y-147950000D03*
X102410000Y-147950000D03*
%TD*%
%TO.C,R12*%
X135760000Y-134500000D03*
X145920000Y-134500000D03*
%TD*%
%TO.C,R13*%
X135760000Y-125000000D03*
X145920000Y-125000000D03*
%TD*%
D10*
%TO.C,J21*%
X80500000Y-103000000D03*
%TD*%
D22*
%TO.C,C1*%
X104000000Y-59000000D03*
D12*
X109000000Y-59000000D03*
%TD*%
D21*
%TO.C,H4*%
X219250000Y-154000000D03*
%TD*%
%TO.C,H2*%
X74500000Y-25250000D03*
%TD*%
D13*
%TO.C,R26*%
X131500000Y-51000000D03*
X121340000Y-51000000D03*
%TD*%
D10*
%TO.C,J24*%
X113000000Y-97000000D03*
%TD*%
%TO.C,J3*%
X186327500Y-54990000D03*
D14*
X186327500Y-52450000D03*
X186327500Y-49910000D03*
%TD*%
D13*
%TO.C,R2*%
X145660000Y-72000000D03*
X135500000Y-72000000D03*
%TD*%
D10*
%TO.C,J26*%
X80500000Y-122000000D03*
%TD*%
D19*
%TO.C,J13*%
X210869285Y-29990001D03*
D18*
X210869285Y-35070001D03*
%TD*%
D23*
%TO.C,F1*%
X80270000Y-46250000D03*
X101570000Y-46250000D03*
%TD*%
D15*
%TO.C,Q1*%
X129080000Y-63500000D03*
D16*
X126540000Y-63500000D03*
X124000000Y-63500000D03*
%TD*%
D21*
%TO.C,H3*%
X75500000Y-154000000D03*
%TD*%
D20*
%TO.C,J36*%
X81000000Y-31500000D03*
D18*
X86080000Y-31500000D03*
%TD*%
D10*
%TO.C,J12*%
X78920000Y-140960000D03*
D14*
X81460000Y-140960000D03*
X84000000Y-140960000D03*
X86540000Y-140960000D03*
X89080000Y-140960000D03*
%TD*%
D13*
%TO.C,R16*%
X146080000Y-147000000D03*
X135920000Y-147000000D03*
%TD*%
D15*
%TO.C,Q9*%
X130000000Y-117500000D03*
D16*
X127460000Y-117500000D03*
X124920000Y-117500000D03*
%TD*%
D10*
%TO.C,J8*%
X153174285Y-64740001D03*
D14*
X153174285Y-67280001D03*
X153174285Y-69820001D03*
X153174285Y-72360001D03*
X153174285Y-74900001D03*
X153174285Y-77440001D03*
X153174285Y-79980001D03*
X153174285Y-82520001D03*
X153174285Y-85060001D03*
X153174285Y-87600001D03*
%TD*%
D13*
%TO.C,R15*%
X135760000Y-106500000D03*
X145920000Y-106500000D03*
%TD*%
%TO.C,R21*%
X178664285Y-82660001D03*
X178664285Y-72500001D03*
%TD*%
D10*
%TO.C,J23*%
X99000000Y-97000000D03*
%TD*%
%TO.C,J40*%
X99000000Y-122000000D03*
%TD*%
%TO.C,J17*%
X171714285Y-87620001D03*
D14*
X171714285Y-85080001D03*
X171714285Y-82540001D03*
X171714285Y-80000001D03*
X171714285Y-77460001D03*
X171714285Y-74920001D03*
X171714285Y-72380001D03*
X171714285Y-69840001D03*
X171714285Y-67300001D03*
X171714285Y-64760001D03*
%TD*%
D10*
%TO.C,J11*%
X155714285Y-64740001D03*
D14*
X155714285Y-67280001D03*
X155714285Y-69820001D03*
X155714285Y-72360001D03*
X155714285Y-74900001D03*
X155714285Y-77440001D03*
X155714285Y-79980001D03*
X155714285Y-82520001D03*
X155714285Y-85060001D03*
X155714285Y-87600001D03*
%TD*%
M02*
